<svg id="car-grey-icon" xmlns="http://www.w3.org/2000/svg" width="48.864" height="21.129" viewBox="0 0 48.864 21.129">
  <g id="Group_1443" data-name="Group 1443">
    <path id="Path_1796" data-name="Path 1796" d="M49.808,82.906l-.672-.877a2.947,2.947,0,0,0-1.344-.964l-3.244-1.023a2.28,2.28,0,0,0-.643-.117l-9.7-.76c-.029,0-.088-.029-.117-.029l-8.066-5.027a2.823,2.823,0,0,0-1.461-.409H12.342a1.189,1.189,0,0,0-.7.234l-6.9,4.793-2.63,1.52A1.275,1.275,0,0,0,1.5,81.328v7.306a1.246,1.246,0,0,0,.935,1.2l4.91,1.257a1.1,1.1,0,0,0,.321.029h.7A4.969,4.969,0,0,0,18.012,91l15.869-.175a4.97,4.97,0,0,0,9.761-.117l2.28-.029a2.742,2.742,0,0,0,2.426-1.49L50.1,85.741A2.769,2.769,0,0,0,49.808,82.906ZM13.131,92.784a2.893,2.893,0,1,1,2.922-2.893A2.925,2.925,0,0,1,13.131,92.784Zm25.572,0a2.893,2.893,0,1,1,2.922-2.893A2.925,2.925,0,0,1,38.7,92.784Zm9.147-8.124L46.1,88.108a.3.3,0,0,1-.234.146l-2.455.029a4.974,4.974,0,0,0-9.44.088L17.9,88.546a4.966,4.966,0,0,0-9.586.088H7.754l-3.8-.994V82L6.03,80.831c.029-.029.058-.029.088-.058l6.634-4.617H24.587a.219.219,0,0,1,.146.029L32.8,81.211a2.778,2.778,0,0,0,1.257.409l9.761.76L47.061,83.4a.64.64,0,0,1,.146.088l.672.877C47.879,84.484,47.909,84.572,47.85,84.659Z" transform="translate(-1.5 -73.7)" fill="#fff"/>
  </g>
</svg>
