<?xml version="1.0" encoding="utf-8"?>
<!-- Generator: Adobe Illustrator 25.0.0, SVG Export Plug-In . SVG Version: 6.00 Build 0)  -->
<svg version="1.1" id="Layer_1" xmlns="http://www.w3.org/2000/svg" xmlns:xlink="http://www.w3.org/1999/xlink" x="0px" y="0px"
	 viewBox="0 0 31.1 24.7" style="enable-background:new 0 0 31.1 24.7;" xml:space="preserve">
<style type="text/css">
	.st0{fill:#FFFFFF;}
</style>
<g>
	<path class="st0" d="M26.5,4.7c-0.4-0.4-1.1-0.5-1.5-0.1C23.1,5.8,14,12,13,13c-1.4,1.4-1.4,3.7,0,5.2c1.4,1.4,3.7,1.4,5.1,0
		c1-1,7.2-10.1,8.5-11.9C26.9,5.7,26.9,5.1,26.5,4.7z M16.4,16.4L16.4,16.4c-0.5,0.5-1.3,0.5-1.7,0c-0.5-0.5-0.5-1.2,0-1.7
		c0.4-0.4,3-2.2,6.2-4.4C18.6,13.5,16.8,16,16.4,16.4z"/>
	<path class="st0" d="M5.6,21.2L5.6,21.2L4.1,22c-1.9-3.4-2.2-7.4-0.8-11.1L5,11.7c0.6,0.3,1.3,0,1.6-0.6c0.3-0.6,0-1.3-0.6-1.6
		L4.4,8.7c2.2-3.5,5.9-5.8,10-6.2v1.8c0,0.7,0.5,1.2,1.2,1.2c0.7,0,1.2-0.5,1.2-1.2V2.5C18.2,2.6,19.6,3,21,3.6
		c0.6,0.3,1.3,0,1.6-0.6c0.3-0.6,0-1.3-0.6-1.6c-7.8-3.5-17-0.1-20.6,7.8C-0.8,14-0.4,19.7,2.6,24.2c0.3,0.5,1,0.7,1.5,0.4l2.5-1.2
		c0.6-0.3,0.9-1,0.6-1.6C6.9,21.2,6.2,20.9,5.6,21.2z"/>
	<path class="st0" d="M29.8,9.2L29.8,9.2c-0.3-0.6-1-0.9-1.6-0.6c-0.6,0.3-0.9,1-0.6,1.6C29.2,14,29.1,18.3,27,22l-1.6-0.7
		c-0.6-0.3-1.3,0-1.6,0.6c-0.3,0.6,0,1.3,0.6,1.6l2.6,1.2c0.5,0.3,1.2,0.1,1.5-0.4C31.5,19.7,32,14.1,29.8,9.2z"/>
</g>
</svg>
