<?xml version="1.0" encoding="utf-8"?>
<!-- Generator: Adobe Illustrator 25.0.0, SVG Export Plug-In . SVG Version: 6.00 Build 0)  -->
<svg version="1.1" id="Layer_1" xmlns="http://www.w3.org/2000/svg" xmlns:xlink="http://www.w3.org/1999/xlink" x="0px" y="0px"
	 viewBox="0 0 25.9 33.5" style="enable-background:new 0 0 25.9 33.5;" xml:space="preserve">
<style type="text/css">
	.st0{fill:#1F2240;}
</style>
<path class="st0" d="M25.8,9.8c0.1-0.2,0.1-0.3,0.1-0.5c0-1.1-0.5-2.1-1.3-2.8l-6.8-5.6C17.2,0.3,16.3,0,15.4,0c0,0,0,0,0,0
	c-0.2,0-0.4,0-0.6,0.1V0H3.5C1.6,0,0,1.6,0,3.5V30c0,1.9,1.6,3.5,3.5,3.5h18.9c1.9,0,3.5-1.6,3.5-3.5V9.8H25.8z M23.9,30
	c0,0.8-0.7,1.5-1.5,1.5H3.5C2.7,31.5,2,30.8,2,30V3.5C2,2.7,2.7,2,3.5,2h9.3v5.3c0,2.5,2,4.5,4.5,4.5h6.6V30z"/>
<g id="Line_388">
	<path class="st0" d="M19.9,18H5.3c-0.6,0-1-0.4-1-1s0.4-1,1-1h14.6c0.6,0,1,0.4,1,1S20.4,18,19.9,18z"/>
</g>
<g id="Line_389">
	<path class="st0" d="M19.9,22.5H5.3c-0.6,0-1-0.4-1-1s0.4-1,1-1h14.6c0.6,0,1,0.4,1,1S20.4,22.5,19.9,22.5z"/>
</g>
<g id="Line_390">
	<path class="st0" d="M19.9,27H5.3c-0.6,0-1-0.4-1-1s0.4-1,1-1h14.6c0.6,0,1,0.4,1,1S20.4,27,19.9,27z"/>
</g>
</svg>
