<svg xmlns="http://www.w3.org/2000/svg" width="38.701" height="35.322" viewBox="0 0 38.701 35.322">
  <g id="Group_17678" data-name="Group 17678" transform="translate(-711.014 -328.139)">
    <path id="Path_1803" data-name="Path 1803" d="M2939.366,1295.681c.122-.639.212-1.286.371-1.916a11.636,11.636,0,0,1,11.892-8.752,11.508,11.508,0,0,1,6.84,2.663c.068.056.137.109.242.192.123-.1.249-.192.373-.29a11.636,11.636,0,0,1,18.684,6.573,11.327,11.327,0,0,1-2.353,9.892,1.148,1.148,0,1,1-1.767-1.429,9.355,9.355,0,0,0-3.741-14.639,9.128,9.128,0,0,0-10.1,1.981,3.5,3.5,0,0,1-.605.5,1.13,1.13,0,0,1-1.4-.316,9.393,9.393,0,0,0-16.108,5.6,8.937,8.937,0,0,0,2.608,7.443c4.715,4.755,9.478,9.463,14.222,14.19.052.052.109.1.224.2.406-.423.8-.842,1.2-1.252.432-.44.867-.878,1.31-1.306a1.137,1.137,0,1,1,1.6,1.606q-1.637,1.647-3.289,3.28a1.141,1.141,0,0,1-1.787-.046q-4.4-4.383-8.8-8.769-3.049-3.039-6.1-6.077a11.57,11.57,0,0,1-3.462-7.155,2.215,2.215,0,0,0-.064-.289Z" transform="translate(-2228.352 -956.855)" fill="#fff"/>
    <path id="Path_1804" data-name="Path 1804" d="M2973.01,1312.652c0-1.292,0-2.525,0-3.757,0-.614.172-.786.781-.787,1.02,0,2.04,0,3.059,0,.517,0,.7.189.7.705,0,1.258,0,2.515,0,3.816.152.008.283.019.416.019,1.133,0,2.265,0,3.4,0,.552,0,.743.2.743.755q0,1.512,0,3.021c0,.6-.171.767-.761.769-1.245,0-2.49,0-3.776,0-.008.157-.02.29-.02.422,0,1.12,0,2.24,0,3.361,0,.6-.171.775-.756.776q-1.53,0-3.059,0c-.534,0-.728-.2-.729-.73,0-1.258,0-2.515,0-3.829h-.993c-.957,0-1.913,0-2.869,0-.5,0-.681-.188-.683-.688q-.01-1.586,0-3.172c0-.482.207-.683.7-.684,1.12,0,2.241,0,3.361,0Z" transform="translate(-2235.255 -962.339)" fill="#fff"/>
  </g>
</svg>
