<?xml version="1.0" encoding="utf-8"?>
<!-- Generator: Adobe Illustrator 25.0.0, SVG Export Plug-In . SVG Version: 6.00 Build 0)  -->
<svg version="1.1" id="Layer_1" xmlns="http://www.w3.org/2000/svg" xmlns:xlink="http://www.w3.org/1999/xlink" x="0px" y="0px"
	 viewBox="0 0 22.6 25.1" style="enable-background:new 0 0 22.6 25.1;" xml:space="preserve">
<style type="text/css">
	.st0{fill:#B3B6CE;}
	.st1{fill:none;stroke:#B3B6CE;stroke-width:2;stroke-linecap:square;stroke-miterlimit:10;}
</style>
<g id="Group_16572" transform="translate(1.004 1.014)">
	<circle id="Ellipse_551" class="st0" cx="14.7" cy="11.4" r="1.1"/>
	<path class="st0" d="M20,15.1c0,0,0,0-1.7-0.3v-0.1l0.4-0.1c0.1,0,0.2-0.1,0.4-0.2c0.4-0.3,0.8-0.7,0.9-1.2c0.1-0.5,0.1-1-0.2-1.4
		L19,10.7l0.3,0c0.1,0,0.2,0,0.2,0c1,0,1.8-0.7,1.9-1.7c0-0.2,0-0.3,0-0.5l-0.1-0.4c-0.1-1-1-1.7-1.9-1.7c0,0,0,0,0,0l-0.5,0
		l-3.1-4.6c-0.3-0.4-0.7-0.7-1.2-0.8L6.4-1C5.6-1.1,4.7-0.8,4.3-0.1l-3,4.7H1C0,4.6-0.8,5.2-1,6.1c-0.1,0.5,0,1,0.3,1.5
		C-0.4,8,0,8.3,0.6,8.5l1.6,0.2l0.6,3.5c-0.2,0-0.5,0-0.7,0.1c-0.5,0.2-1,0.6-1.2,1.1c-0.2,0.5-0.3,1.1-0.1,1.6l0.9,2.4
		c0,0,0,0.1-0.1,0.2c-0.2,0.2-0.4,0.5-0.5,0.7c-0.4,1.1,0.1,2.3,1.2,2.7l5.4,2c0.9,0.4,1.8,0.8,2.7,1l0.1,0c0.2,0,0.4,0,0.7,0
		c2.6,0,5.9-1.9,7.2-3.4c0.1-0.1,0.3-0.3,0.5-0.5c1.6-1.5,2.8-2.8,2.4-4.1C21.3,15.9,21,15.3,20,15.1z M2.9,5.7l3-4.7l8.3,1.9
		l3.1,4.6c0.4,0.5,1,0.9,1.6,0.9l0.5,0l0.1,0.4L1.5,6.6C2.1,6.5,2.6,6.2,2.9,5.7z M11.7,9.8L11.7,9.8l4.9,0.6l1.3,2.4l-1.6,0.5v1.2
		c-2.2-0.4-5.8-1-11.4-2L4.3,8.9L11.7,9.8z M17.6,18.8c-0.2,0.2-0.4,0.4-0.6,0.6c-1.3,1.4-4.3,2.9-6.1,2.7c-0.8-0.2-1.6-0.5-2.4-0.9
		L3,19.1C3,19.1,2.9,19,3,19L2,18.6l1,0.3c0.6-0.6,0.8-1.4,0.5-2.2l-0.9-2.4c0-0.1,0-0.1,0.1-0.1c0,0,0,0,0.1,0l0,0
		C7.9,15,17.2,16.6,19.3,17C18.9,17.6,17.9,18.5,17.6,18.8z"/>
	<path id="Path_9865" class="st1" d="M20.7,13.4"/>
</g>
</svg>
