<?xml version="1.0" encoding="utf-8"?>
<!-- Generator: Adobe Illustrator 25.0.0, SVG Export Plug-In . SVG Version: 6.00 Build 0)  -->
<svg version="1.1" id="Layer_1" xmlns="http://www.w3.org/2000/svg" xmlns:xlink="http://www.w3.org/1999/xlink" x="0px" y="0px"
	 viewBox="0 0 44.7 27" style="enable-background:new 0 0 44.7 27;" xml:space="preserve">
<style type="text/css">
	.st0{fill:#1F2240;}
</style>
<path class="st0" d="M38.6,0c-3.3,0-6,2.7-6,6c0,1.6,0.6,3.1,1.8,4.3c0.9,0.9,2,1.5,3.3,1.7V22c0,1.7-1.4,3-3,3H23.8v-9
	c2.8-0.5,5-3,5-5.9c0-3.3-2.7-6-6-6c-3.3,0-6,2.7-6,6c0,3,2.2,5.4,5,5.9v9H10c-1.7,0-3-1.4-3-3v-10C9.9,11.5,12,9,12,6
	c0-3.3-2.7-6-6-6S0,2.7,0,6c0,3,2.2,5.4,5,5.9V22c0,2.8,2.2,5,5,5h24.6c2.8,0,5-2.2,5-5V11.9c2.8-0.5,5-2.9,5-5.9v0
	C44.7,2.7,42,0,38.6,0z M18.8,10.1c0-2.2,1.8-4,4-4s4,1.8,4,4c0,2.2-1.8,4-4,4S18.8,12.3,18.8,10.1z M38.6,10L38.6,10
	c-1.1,0-2.1-0.4-2.8-1.2C35,8.1,34.6,7.1,34.6,6c0-2.2,1.8-4,4-4c2.2,0,4,1.8,4,4C42.7,8.2,40.9,10,38.6,10z"/>
</svg>
