<svg xmlns="http://www.w3.org/2000/svg" width="23.625" height="27" viewBox="0 0 23.625 27">
  <path id="Icon_metro-attachment" data-name="Icon metro-attachment" d="M20.247,10.551,18.535,8.84,9.97,17.4a3.633,3.633,0,0,0,5.138,5.138L25.386,12.264A6.055,6.055,0,1,0,16.822,3.7L6.032,14.491l-.023.022A8.445,8.445,0,0,0,17.953,26.455l.022-.023h0l7.365-7.364-1.714-1.712L16.262,24.72l-.022.022a6.023,6.023,0,0,1-8.519-8.516l.023-.022v0L18.535,5.414a3.633,3.633,0,0,1,5.139,5.137L13.4,20.827a1.211,1.211,0,0,1-1.713-1.712l8.564-8.564Z" transform="translate(-3.535 -1.928)" fill="#1db2a6"/>
</svg>
