<svg xmlns="http://www.w3.org/2000/svg" width="36.781" height="29.425" viewBox="0 0 36.781 29.425">
  <path id="Icon_awesome-car-crash" data-name="Icon awesome-car-crash" d="M8.232,12.69l-.714,2.665a5.419,5.419,0,0,0-.139,1.976L5.357,19a.52.52,0,0,1-.84-.5L5.4,14.086a.52.52,0,0,0-.46-.62L.47,13.032a.52.52,0,0,1-.238-.951L3.976,9.593a.521.521,0,0,0,.114-.764L1.233,5.357a.52.52,0,0,1,.5-.84L6.145,5.4a.52.52,0,0,0,.621-.46L7.2.47A.52.52,0,0,1,8.15.232l2.488,3.744a.521.521,0,0,0,.764.114l3.471-2.857a.52.52,0,0,1,.84.5l-.651,3.227c-.156.175-.312.35-.455.54L12.76,7.974l-.615.823A5.543,5.543,0,0,0,8.232,12.69ZM36.655,20.3l-.714,2.664a3.6,3.6,0,0,1-1.009,1.687,3.844,3.844,0,0,1-.5.4l-.8,3a1.837,1.837,0,0,1-2.252,1.3L29.6,28.885a1.839,1.839,0,0,1-1.3-2.252l.476-1.776L14.561,21.049l-.476,1.776a1.839,1.839,0,0,1-2.252,1.3l-1.776-.476a1.838,1.838,0,0,1-1.3-2.252l.8-3a3.828,3.828,0,0,1-.235-.6,3.6,3.6,0,0,1-.03-1.965l.714-2.665a3.651,3.651,0,0,1,2.12-2.426,3.7,3.7,0,0,1,1.063-.271l1.042-1.392,1.848-2.469a6.473,6.473,0,0,1,2.18-1.859,6.31,6.31,0,0,1,.865-.373,6.38,6.38,0,0,1,1.853-.347,6.489,6.489,0,0,1,1.921.218l7.05,1.889a6.477,6.477,0,0,1,1.773.772,6.4,6.4,0,0,1,2.952,4.683l.366,3.063.206,1.727a3.706,3.706,0,0,1,1.307,1.72,3.629,3.629,0,0,1,.1,2.206ZM14.688,13.467a1.735,1.735,0,0,0-2.251,1.295,1.734,1.734,0,0,0,1.3,2.246c1.066.286,2.617.891,2.9-.171A3.537,3.537,0,0,0,14.688,13.467Zm16.7,1.619-.366-3.063A2.758,2.758,0,0,0,29,9.686L21.948,7.8a2.759,2.759,0,0,0-2.923,1.012l-1.848,2.469,9.885,2.648,4.327,1.16Zm1.063,3.141a3.538,3.538,0,0,0-3.376,1.942c-.284,1.063,1.361,1.314,2.428,1.6a1.833,1.833,0,1,0,.949-3.541Z" transform="translate(0 0.001)" fill="#1f2240"/>
</svg>
