<svg xmlns="http://www.w3.org/2000/svg" width="11.961" height="18.954" viewBox="0 0 11.961 18.954">
  <path id="Path_12585" data-name="Path 12585" d="M.91-13.286H4.342A2.277,2.277,0,0,1,6.864-15.73a2.274,2.274,0,0,1,2.47,2.444c.026,2.34-2,2.834-4.706,2.834H3.458l.13,4.42h3.2l.1-2c3.458,0,5.98-1.716,5.98-5.226s-2.47-5.512-6.006-5.512C3.068-18.772.858-16.432.91-13.286ZM7.384-1.95a2.128,2.128,0,0,0-2.21-2.132A2.142,2.142,0,0,0,2.912-1.95,2.142,2.142,0,0,0,5.174.182,2.128,2.128,0,0,0,7.384-1.95Z" transform="translate(-0.909 18.772)" fill="#b3b6ce"/>
</svg>
