<?xml version="1.0" encoding="utf-8"?>
<!-- Generator: Adobe Illustrator 25.0.0, SVG Export Plug-In . SVG Version: 6.00 Build 0)  -->
<svg version="1.1" id="Layer_1" xmlns="http://www.w3.org/2000/svg" xmlns:xlink="http://www.w3.org/1999/xlink" x="0px" y="0px"
	 viewBox="0 0 34.7 31.6" style="enable-background:new 0 0 34.7 31.6;" xml:space="preserve">
<style type="text/css">
	.st0{fill:#FFFFFF;}
</style>
<path class="st0" d="M33.9,11.7L18,0.2c-0.3-0.3-0.8-0.3-1.2,0l-5,3.6V1c0-0.6-0.4-1-1-1H7.3c-0.6,0-1,0.4-1,1v6.5
	c0,0.1,0,0.2,0.1,0.3l-5.5,4c-0.4,0.3-0.6,0.9-0.2,1.4c0.2,0.3,0.5,0.4,0.8,0.4c0.2,0,0.4-0.1,0.6-0.2l0.6-0.4v15
	c0,2,1.7,3.7,3.7,3.7h22.2c2,0,3.7-1.7,3.7-3.7v-15l0.6,0.4c0.4,0.3,1.1,0.2,1.4-0.2C34.4,12.7,34.3,12.1,33.9,11.7z M8.3,2h1.6v3.2
	c0,0,0,0,0,0L8.3,6.4V2z M20.1,29.6h-6.3v-9.8c0.5-0.8,1.3-1.3,2.2-1.5c1-0.2,2-0.1,2.9,0.5c0.4,0.3,0.8,0.6,1.1,1V29.6z M30.1,27.9
	c0,0.9-0.8,1.7-1.7,1.7h-6.3V19.6c0-0.2-0.1-0.4-0.1-0.5c-0.5-0.8-1.1-1.5-1.9-1.9c-1.3-0.8-2.9-1.1-4.4-0.7
	c-1.5,0.4-2.8,1.3-3.6,2.6c-0.1,0.2-0.1,0.3-0.1,0.5v10.1H6.3c-0.9,0-1.7-0.8-1.7-1.7V11.5l12.9-9.3l12.7,9.2V27.9z"/>
</svg>
