<?xml version="1.0" encoding="utf-8"?>
<!-- Generator: Adobe Illustrator 25.0.0, SVG Export Plug-In . SVG Version: 6.00 Build 0)  -->
<svg version="1.1" id="Layer_1" xmlns="http://www.w3.org/2000/svg" xmlns:xlink="http://www.w3.org/1999/xlink" x="0px" y="0px"
	 viewBox="0 0 579.1 353.7" style="enable-background:new 0 0 579.1 353.7;" xml:space="preserve">
<style type="text/css">
	.st0{fill:none;stroke:#3BA4FF;stroke-width:3;stroke-miterlimit:10;}
	.st1{fill:#3BA4FF;}
	.st2{fill:none;stroke:#E42D53;stroke-width:3;stroke-miterlimit:10;}
	.st3{fill:#E42D53;}
	.st4{fill:#FFFFFF;}
	.st5{fill:#FAB61C;}
	.st6{fill:none;stroke:#000000;stroke-miterlimit:10;}
</style>
<g id="Group_17707" transform="translate(-1156.897 -493.618)">
	<g id="Group_17641">
		<g id="Group_17642">
			<path id="Path_12649" class="st0" d="M1334.6,600.4c5.1-4.4,10.8-8.5,17-10.9c5.8-2.2,12.5-4.6,18.8-3.4
				c5.8,1.1,10.8,4.7,13.7,9.8l46.2,82.8c5.3,9.6,1.9,21.7-7.7,27l-21.9,12.2c-9.6,5.3-21.7,1.9-27-7.7l-46.2-82.8
				c-2.5-4.4-3.1-9.6-1.9-14.6C1326.9,607.6,1330.5,604,1334.6,600.4z"/>
			<path id="Path_12650" class="st0" d="M1384.1,596l-1,0.6c-5,2.8-11.2,1-14-4l-3.8-6.7"/>
			<path id="Path_12651" class="st0" d="M1327.5,627.5l1-0.6c5-2.8,6.7-9,4-14c0,0,0,0,0,0l-3.8-6.7"/>
			<path id="Path_12652" class="st0" d="M1380.7,717.6l0.8-0.8c4-4.1,10.5-4.2,14.5-0.2l2.7,2.6"/>
			<path id="Path_12654" class="st0" d="M1340.1,638.8c7.6-21,22.9-30.3,47.2-25.7c0.7,0.1,1.2,0.6,1.4,1.2l7.8,22.4
				c0.3,1-0.2,2-1.2,2.4c-0.1,0-0.2,0.1-0.3,0.1c-14,2.3-26,9-36.1,20.2c-0.7,0.8-1.9,0.8-2.6,0.2c-0.1-0.1-0.1-0.1-0.2-0.2
				l-15.7-18.7C1340,640.1,1339.9,639.4,1340.1,638.8z"/>
			<path id="Path_12655" class="st0" d="M1373.8,684.9c13.6-3.6,26.1-10.5,37.1-20.7l12.4,22.3c-7.6,13.9-20.3,20.4-37.1,20.7
				L1373.8,684.9z"/>
			<path id="Path_12656" class="st0" d="M1422.4,671.5c-9.5-11.1-16.8-25-22.8-40.8"/>
			<path id="Path_12657" class="st0" d="M1373.7,698.6c-4.4-13.9-12.5-27.5-22.8-40.8"/>
			<line id="Line_403" class="st0" x1="1397.3" y1="618.6" x2="1409.1" y2="623.6"/>
			<line id="Line_404" class="st0" x1="1341" y1="651.8" x2="1339.1" y2="664.5"/>
		</g>
		<path id="Path_12660" class="st1" d="M1390.2,660.9l-6.8,3l0.5,5.6l-2.9,1.3l-1.5-20.8l3-1.3l14.4,15l-2.9,1.3L1390.2,660.9z
			 M1383.1,661.3l5.4-2.4l-6.1-6.7l-0.1,0L1383.1,661.3z"/>
		<path id="Path_12662" class="st0" d="M1433,688.4l-1.2,0.3c-5.5,1.2-9,6.7-7.8,12.3c0,0,0,0,0,0l0.8,3.7"/>
	</g>
	<g id="Group_17643">
		<path id="Path_12640" class="st2" d="M1479.2,832c-6.6,1.4-13.5,2.1-20.1,1.2c-6.1-0.9-13.2-2.1-18.1-6.2
			c-4.5-3.8-7.1-9.4-7.2-15.3v-94.8c0-11,8.9-19.9,19.9-19.9h25.1c11,0,19.9,8.9,19.9,19.9l0,0v94.8c0,5.1-2,10-5.4,13.6
			C1489.4,829.4,1484.5,830.9,1479.2,832z"/>
		<path id="Path_12641" class="st2" d="M1433.8,811.8h1.2c5.7,0,10.3,4.6,10.3,10.3c0,0,0,0,0,0v7.7"/>
		<path id="Path_12642" class="st2" d="M1498.7,811.8h-1.2c-5.7,0-10.3,4.6-10.3,10.3l0,0v7.7"/>
		<path id="Path_12643" class="st2" d="M1496.1,707.2l-1.1,0.3c-5.4,1.6-11.2-1.5-12.8-6.9c0,0,0,0,0,0l-1.1-3.6"/>
		<path id="Path_12644" class="st2" d="M1436.2,707.2l1.1,0.3c5.4,1.6,11.2-1.5,12.8-6.9c0,0,0,0,0,0l1.1-3.6"/>
		<path id="Path_12645" class="st2" d="M1493.1,795.8c-16.9,14.6-34.7,15.3-53.8-0.5c-0.5-0.4-0.8-1.1-0.6-1.8l4.1-23.4
			c0.2-1,1.2-1.7,2.2-1.5c0.1,0,0.2,0,0.3,0.1c13.3,4.8,27.1,4.8,41.4-0.1c1-0.3,2,0.2,2.4,1.1c0,0.1,0.1,0.2,0.1,0.3l4.6,24
			C1493.8,794.6,1493.6,795.3,1493.1,795.8z"/>
		<path id="Path_12646" class="st2" d="M1486.2,739.2c-13.7-3.5-27.9-3.5-42.5,0v-25.5c13.4-8.4,27.7-7.9,42.5,0V739.2z"/>
		<path id="Path_12647" class="st2" d="M1437.2,727.2c2.9,14.3,2.5,30.1,0,46.7"/>
		<path id="Path_12648" class="st2" d="M1492.9,727.2c-2.9,14.3-2.5,30.1,0,46.7"/>
		<line id="Line_401" class="st2" x1="1433.3" y1="785.5" x2="1425.4" y2="775.4"/>
		<line id="Line_402" class="st2" x1="1498.7" y1="784" x2="1506.5" y2="773.9"/>
		<path id="Path_12661" class="st3" d="M1473.5,745.6v19.6h-7.8c-3.5,0-5.7-1.9-5.7-4.9c0-2.1,1.5-3.8,3.5-4.3v-0.1
			c-2.5-0.1-4.5-2.3-4.4-4.8c0-3.4,2.5-5.5,6.7-5.5L1473.5,745.6z M1466.3,748.1c-2.7,0-4.2,1.1-4.2,3.2s1.5,3.2,4.4,3.2h4v-6.4
			H1466.3z M1470.4,756.8h-3.4c-2.6,0-4.1,1.1-4.1,3c0,1.8,1.2,2.8,3.4,2.8h4V756.8z"/>
	</g>
	<g id="Group_17644" transform="translate(3 -4)">
		<path id="Path_12658" class="st4" d="M1453.5,701.2c0,10.3-8.4,18.7-18.7,18.7c-10.3,0-18.7-8.4-18.7-18.7s8.4-18.7,18.7-18.7l0,0
			C1445.2,682.5,1453.5,690.9,1453.5,701.2"/>
		<path id="Path_12659" class="st5" d="M1434.8,682.5l2.9,7.2l6.3-4.5l-1.4,7.6l7.7-0.3l-5.3,5.6l6.7,3.9l-7.5,1.8l3.5,6.9l-7.3-2.5
			l-0.8,7.7l-4.8-6.1l-4.8,6.1l-0.8-7.7l-7.3,2.5l3.5-6.9l-7.5-1.8l6.7-3.9l-5.3-5.6l7.7,0.3l-1.4-7.6l6.3,4.5L1434.8,682.5z"/>
	</g>
</g>
<polyline class="st6" points="0,92.2 173.7,92.2 173.7,1.9 "/>
<polyline class="st6" points="173.7,353.1 173.7,256.9 0,256.9 "/>
<polyline class="st6" points="579.1,92.7 405.4,92.7 405.4,2.5 "/>
<polyline class="st6" points="405.4,353.7 405.4,257.5 579.1,257.5 "/>
</svg>
