<?xml version="1.0" encoding="utf-8"?>
<!-- Generator: Adobe Illustrator 25.0.0, SVG Export Plug-In . SVG Version: 6.00 Build 0)  -->
<svg version="1.1" id="Layer_1" xmlns="http://www.w3.org/2000/svg" xmlns:xlink="http://www.w3.org/1999/xlink" x="0px" y="0px"
	 viewBox="0 0 55.9 54.5" style="enable-background:new 0 0 55.9 54.5;" xml:space="preserve">
<style type="text/css">
	.st0{stroke:#000000;stroke-miterlimit:10;}
</style>
<g>
	<path class="st0" d="M29.6,44.5v-2c0-2.4-2-4.4-4.4-4.4H9.4c-2.4,0-4.4,2-4.4,4.4v2c-1.8,0.6-3,2.3-3,4.3V52c0,0.8,0.7,1.5,1.5,1.5
		h27.6c0.8,0,1.5-0.7,1.5-1.5v-3.2C32.6,46.8,31.3,45.1,29.6,44.5z M8,42.5c0-0.7,0.6-1.3,1.3-1.3h15.8c0.7,0,1.3,0.6,1.3,1.3v1.7H8
		V42.5z M29.6,50.5H5v-1.7c0-0.8,0.7-1.5,1.5-1.5h21.5c0.8,0,1.5,0.7,1.5,1.5V50.5z"/>
	<path class="st0" d="M53,42.3L38.8,23.4c0.8-1,1.5-2.1,2.1-3.3c1.5,0.6,3.2,0.4,4.5-0.6c2-1.5,2.4-4.4,0.9-6.4l-7.3-9.7
		c-1.5-2-4.4-2.4-6.4-0.9c-1.3,1-2,2.6-1.8,4.2c-5.7,1-10.6,4.7-13.2,9.9c-1.5-0.6-3.2-0.4-4.5,0.6c-2,1.5-2.4,4.4-0.9,6.4l7.3,9.7
		c1.5,2,4.4,2.4,6.4,0.9c1.3-1,2-2.6,1.8-4.2c1.3-0.2,2.6-0.6,3.8-1.1l14.3,18.9c1.5,2,4.4,2.4,6.4,0.9C54.1,47.2,54.5,44.4,53,42.3
		z M34.4,4.9c0.7-0.5,1.6-0.4,2.1,0.3l7.3,9.7c0.5,0.7,0.4,1.6-0.3,2.1c-0.7,0.5-1.6,0.4-2.1-0.3L34.1,7C33.6,6.4,33.7,5.4,34.4,4.9
		z M24.1,31.7c-0.7,0.5-1.6,0.4-2.1-0.3l-7.3-9.7c-0.5-0.7-0.4-1.6,0.3-2.1c0.7-0.5,1.6-0.4,2.1,0.3l7.3,9.7c0,0,0,0,0,0
		C24.9,30.3,24.7,31.2,24.1,31.7z M26.3,27.1L20,18.7c2.1-5.1,6.7-8.6,12.2-9.2c0.7,0.9,5.6,7.5,6.3,8.4
		C36.4,23,31.7,26.5,26.3,27.1z M34.2,27.5c0.9-0.5,1.7-1.2,2.4-1.8l2,2.7l-2.4,1.8L34.2,27.5z M50.3,46.3c-0.7,0.5-1.6,0.4-2.1-0.3
		L38.1,32.6l2.4-1.8l10.1,13.4C51.1,44.8,51,45.8,50.3,46.3z"/>
</g>
</svg>
