<?xml version="1.0" encoding="utf-8"?>
<!-- Generator: Adobe Illustrator 25.0.0, SVG Export Plug-In . SVG Version: 6.00 Build 0)  -->
<svg version="1.1" id="Layer_1" xmlns="http://www.w3.org/2000/svg" xmlns:xlink="http://www.w3.org/1999/xlink" x="0px" y="0px"
	 viewBox="0 0 60 54.5" style="enable-background:new 0 0 60 54.5;" xml:space="preserve">
<path d="M16.2,16.9l-2.4-0.5c-0.9-0.2-1.4-0.7-1.4-1.4c0-0.9,0.8-1.5,2-1.5c1.3,0,2.1,0.6,2.4,1.5h2.7c-0.4-1.9-1.5-3.3-3.5-3.7V9.1
	h-2.4v2.1c-2.3,0.3-3.8,1.8-3.8,4c0,2.3,1.5,3.3,3.3,3.7l2.2,0.5c1.2,0.3,1.7,0.7,1.7,1.5c0,1-0.8,1.6-2.1,1.6
	c-1.3,0-2.2-0.5-2.6-1.7H9.4c0.4,2.2,2,3.5,4.1,3.9l-0.1,2.1h2.4v-2.2c2.2-0.3,3.7-1.8,3.7-4C19.5,18.7,18.2,17.4,16.2,16.9z"/>
<path d="M57.3,29.5L55,27.8c0,0-0.1-0.1-0.1-0.1c0,0,0,0,0,0L39.4,16.4c-0.5-0.4-1.2-0.4-1.8,0l-8.9,6.4c0.1-0.3,0.2-0.7,0.3-1
	c0.3-1.2,0.5-2.4,0.5-3.6c0-8.2-6.6-14.8-14.8-14.8C6.6,3.3-0.1,10-0.1,18.2c0,8.2,6.7,14.8,14.8,14.8c0.9,0,1.7-0.1,2.5-0.2
	c0.6-0.1,1.3-0.3,1.9-0.5c0.2-0.1,0.4-0.1,0.6-0.2c0.2,0.1,0.4,0.1,0.6,0.1c0.3,0,0.6-0.1,0.9-0.3l0.1-0.1v16.3c0,2.5,2,4.6,4.5,4.6
	h25.1c2.5,0,4.6-2,4.6-4.6V31.9l0.1,0c0.7,0.5,1.6,0.3,2.1-0.3C58.1,30.9,58,30,57.3,29.5z M18.9,30.3
	C18.9,30.3,18.8,30.3,18.9,30.3c-0.3,0.1-0.6,0.2-0.9,0.3c-1,0.3-2.1,0.4-3.2,0.4C7.7,31,1.9,25.2,1.9,18.2
	c0-7.1,5.7-12.8,12.8-12.8c7.1,0,12.8,5.8,12.8,12.8c0,2.6-0.8,5-2.1,7c-0.5,0.8-1.1,1.5-1.8,2.1c-0.1,0.1-0.2,0.2-0.3,0.2
	c-0.5,0.5-1,0.9-1.6,1.2c-0.2,0.1-0.3,0.2-0.5,0.3C20.5,29.6,19.7,30,18.9,30.3z M41.2,49.7h-6.4V39.2c0.6-0.7,1.3-1.3,2.2-1.5
	c1-0.2,2.1-0.1,3,0.5c0.4,0.3,0.8,0.6,1.1,1V49.7z M52.5,48.2c0,0.9-0.7,1.6-1.6,1.6h-6.7v-11c0-0.3-0.1-0.5-0.2-0.8
	c-0.6-0.9-1.4-1.7-2.3-2.3c-1.6-1-3.5-1.3-5.3-0.8c-1.8,0.4-3.3,1.6-4.3,3.1c-0.1,0.2-0.2,0.5-0.2,0.8v11h-6c-0.8,0-1.5-0.7-1.5-1.6
	V29.7l14.2-10.2l14,10.2V48.2z"/>
</svg>
