<?xml version="1.0" encoding="utf-8"?>
<!-- Generator: Adobe Illustrator 25.0.0, SVG Export Plug-In . SVG Version: 6.00 Build 0)  -->
<svg version="1.1" id="Layer_1" xmlns="http://www.w3.org/2000/svg" xmlns:xlink="http://www.w3.org/1999/xlink" x="0px" y="0px"
	 viewBox="0 0 60 60" style="enable-background:new 0 0 60 60;" xml:space="preserve">
<path d="M53.4,27.5c-0.1,0.2-0.1,0.4-0.2,0.4c-0.5,1.8-2.2,3-4.1,3c-1.3,0-2.6,0-3.8,0c-0.2,0-0.3,0-0.5,0c0,1.9,0,3.7,0,5.6
	c-2.9-2.4-5.8-4.7-8.7-7.1c2.9-2.3,5.8-4.6,8.7-7.1c0,1.9,0,3.7,0,5.6c0.8,0,1.6,0,2.3,0c0.6,0,1.3,0,2,0c0.9,0,1.6-0.6,1.6-1.5
	c0-2.8,0-5.5,0-8.3c0-0.9-0.6-1.5-1.6-1.5c-5.3,0-10.6,0-15.9,0c-3.7,0-7.3,0-11.1,0c-0.1,0-0.2,0-0.4,0c0-0.9,0-1.9,0-2.8
	c0.2,0,0.3,0,0.5,0c9,0,17.9,0,26.9,0c2.2,0,3.8,1.2,4.4,3.4c0,0.1,0.1,0.1,0.1,0.2C53.4,20.8,53.4,24.1,53.4,27.5z"/>
<path d="M53.4,49.7c-0.4,0.8-0.9,1.1-1.8,1.1c-2.7,0-5.5,0-8.2,0c-0.9,0-1.6-0.5-1.6-1.5c0-1.9,0-3.7,0-5.5c0-0.8,0.6-1.4,1.5-1.4
	c2.8,0,5.8,0,8.6,0c0.7,0,1.2,0.4,1.5,1.1C53.4,45.4,53.4,47.5,53.4,49.7z"/>
<path d="M18.8,28.3c0,1,0,1.7,0,2.7c-0.2,0-0.4,0-0.5,0c-2.2,0-4.3,0-6.5,0c-1.1,0-1.6,0.5-1.6,1.6c0,3.7,0,7.2,0,10.9
	c0,1,0.5,1.6,1.6,1.6c6.1,0,12.3,0,18.4,0c0.1,0,0.2,0,0.3,0c0-1.9,0-3.7,0-5.6c2.9,2.4,5.8,4.7,8.7,7.1c-2.9,2.3-5.8,4.6-8.7,7.1
	c0-1.9,0-3.7,0-5.6c-0.2,0-0.4,0-0.5,0c-6.1,0-12.3,0-18.4,0c-1.7,0-3-0.8-3.8-2.3c-0.3-0.5-0.5-1.2-0.5-1.8c0-3.7,0-7.6,0-11.3
	c0-2.3,1.9-4.2,4.3-4.2C13.6,28.3,18.6,28.3,18.8,28.3z"/>
<path d="M12.2,19.1c-1.4,0-2.9,0-4.3,0c-0.9,0-1.5-0.6-1.5-1.5c0-1.9,0-3.7,0-5.6c0-0.9,0.7-1.5,1.5-1.5c2.9,0,5.8,0,8.7,0
	c1,0,1.6,0.5,1.6,1.5c0,1.8,0,3.7,0,5.5c0,0.9-0.7,1.5-1.6,1.5C15,19.1,13.6,19.1,12.2,19.1L12.2,19.1z"/>
<path d="M23,33.6c-1.1,0-2-0.8-2-1.9v-5.6c0-1.2,0.8-1.9,2-1.9c1.4-0.1,2.9-0.1,4.4-0.1h4.3c1.3,0,2.1,0.8,2.1,2v5.6
	c0,1.1-0.9,1.9-2,1.9H23z"/>
</svg>
