<?xml version="1.0" encoding="iso-8859-1"?>
<!-- Generator: Adobe Illustrator 21.1.0, SVG Export Plug-In . SVG Version: 6.00 Build 0)  -->
<svg version="1.1" xmlns="http://www.w3.org/2000/svg" xmlns:xlink="http://www.w3.org/1999/xlink" x="0px" y="0px"
	 viewBox="0 0 512 512" style="enable-background:new 0 0 512 512;" xml:space="preserve">
<g id="diagnostic-treatment-match">
	<g>
		<g id="q2m6dB.tif">
			<g>
				<g>
					<path style="fill:#1EB1A5;" d="M160.546,207.293c4.95,0,9.255,0,13.774,0c3.444,0,5.165,1.937,5.165,5.165
						c0,34.867,0,69.948,0,104.815c0,3.228-1.937,4.95-5.165,4.95c-29.271,0-58.541,0-87.812,0c-3.874,0-5.596-1.722-5.596-5.596
						c0-10.546,0-21.307,0-31.853c0-24.321,0-48.426,0-72.746c0-3.013,1.937-4.95,4.95-4.95c4.089,0,8.609,0,12.698,0
						c0.43,0,0.861,0,1.291,0c0-2.367,0-4.305,0-6.457c-4.95,0-9.47,0-14.42,0c-6.457,0-11.407,4.95-11.407,11.407
						c0,35.082,0,70.379,0,105.676c0,6.242,5.165,11.407,11.407,11.407c29.486,0,58.972,0,88.458,0
						c6.672,0,11.622-4.95,11.622-11.622c0-19.155,0-38.31,0-57.465c0-15.927,0-31.853,0-47.995c0-5.596-3.874-10.331-9.47-10.761
						c-3.659-0.43-7.318-0.215-11.192-0.215c-1.722,0-3.444,0-5.381,0C160.546,202.773,160.546,204.925,160.546,207.293z
						 M97.915,261.314c3.659,0,7.318,0,10.761,0c1.722,0,2.583-0.43,3.013-2.152c1.291-3.444,2.798-6.887,4.089-10.331
						c0.215-0.43,0.43-0.861,0.646-1.722c0.215,0.646,0.43,1.076,0.646,1.722c3.228,8.394,6.457,16.572,9.47,24.966
						c0.43,1.076,1.076,2.152,2.583,2.152c1.291-0.215,1.937-1.076,2.152-2.367c2.798-10.761,5.811-21.738,8.609-32.714
						c0-0.43,0.215-0.861,0.43-1.722c0.43,0.861,0.646,1.291,0.861,1.937c2.583,6.026,5.165,11.837,7.533,17.864
						c0.43,1.291,1.291,1.937,3.013,1.937c1.291,0,3.013,0,4.305,0c2.152,0,4.305,0,6.672,0c0-1.722,0-2.798,0-4.305
						c-3.013,0-6.026,0-9.039,0c-0.861,0-1.291-0.215-1.937-1.076c-0.861-2.368-1.937-4.52-3.013-6.887
						c-2.367-5.381-4.52-10.761-6.887-16.142c-0.43-1.076-1.076-1.937-2.583-1.722c-1.076,0.215-1.722,1.076-1.937,2.367
						c-2.798,10.546-5.596,21.092-8.394,31.638c-0.215,0.646-0.43,1.076-0.646,2.368c-1.291-3.659-2.583-6.672-3.874-9.9
						c-2.152-5.381-4.089-10.546-6.026-15.927c-0.43-0.861-0.861-1.937-2.152-1.937c-1.291,0-1.937,0.646-2.152,1.722
						c0,0.215-0.215,0.43-0.215,0.646c-1.722,4.089-3.228,8.394-5.165,12.483c-1.076,3.013-1.076,3.013-4.305,3.013
						c-2.368,0-4.52,0-6.887,0C97.915,258.516,97.915,259.808,97.915,261.314z M97.915,291.231c21.738,0,43.476,0,64.998,0
						c0-1.291,0-2.798,0-4.089c-21.738,0-43.26,0-64.998,0C97.915,288.433,97.915,289.724,97.915,291.231z M162.913,298.764
						c-21.738,0-43.476,0-64.998,0c0,1.291,0,2.798,0,4.089c21.738,0,43.26,0,65.213,0c0-0.861,0-1.937,0-2.798
						C162.913,299.625,162.913,299.194,162.913,298.764z"/>
				</g>
				<g>
					<path style="fill:#1EB1A5;" d="M160.546,207.293c0-2.367,0-4.305,0-6.672c1.937,0,3.444,0,5.381,0
						c3.659,0,7.318-0.215,11.192,0.215c5.596,0.646,9.255,5.381,9.47,10.761c0,15.927,0,31.853,0,47.995c0,19.155,0,38.31,0,57.465
						c0,6.457-4.95,11.622-11.622,11.622c-29.486,0-58.972,0-88.458,0c-6.457,0-11.407-4.95-11.407-11.407
						c0-35.082,0-70.379,0-105.676c0-6.457,4.95-11.407,11.407-11.407c4.52,0,9.47,0,14.42,0c0,2.368,0,4.305,0,6.457
						c-0.43,0-0.861,0-1.291,0c-4.089,0-8.609,0-12.698,0c-3.013,0-4.95,1.937-4.95,4.95c0,24.321,0,48.426,0,72.746
						c0,10.546,0,21.307,0,31.853c0,3.874,1.722,5.596,5.596,5.596c29.271,0,58.541,0,87.812,0c3.228,0,5.165-1.937,5.165-4.95
						c0-34.867,0-69.948,0-104.815c0-3.228-1.937-5.165-5.165-5.165C169.585,207.293,165.281,207.293,160.546,207.293z"/>
				</g>
				<g>
					<path style="fill:#FAB616;" d="M97.915,261.314c0-1.722,0-2.798,0-4.305c2.368,0,4.52,0,6.887,0c3.228,0,3.228,0,4.305-3.013
						c1.722-4.089,3.228-8.394,5.165-12.483c0-0.215,0.215-0.43,0.215-0.646c0.43-0.861,1.076-1.722,2.152-1.722
						c1.076,0,1.937,0.646,2.152,1.937c2.152,5.381,3.874,10.546,6.026,15.927c1.076,3.228,2.583,6.457,3.874,9.9
						c0.215-0.861,0.43-1.722,0.646-2.368c2.798-10.546,5.596-21.092,8.394-31.638c0.215-0.861,0.646-2.152,1.937-2.367
						c1.291-0.215,2.152,0.43,2.583,1.722c2.367,5.596,4.52,10.761,6.887,16.142c0.861,2.367,2.152,4.52,3.013,6.887
						c0.215,0.861,0.646,1.076,1.937,1.076c3.013,0,6.026,0,9.039,0c0,1.291,0,2.798,0,4.305c-2.367,0-4.305,0-6.672,0
						c-1.291,0-3.013,0-4.305,0s-2.367-0.43-3.013-1.937c-2.583-6.026-5.165-11.837-7.533-17.864
						c-0.215-0.43-0.43-0.861-0.861-1.937c-0.215,0.646-0.43,1.076-0.43,1.722c-2.798,10.761-5.811,21.738-8.609,32.714
						c-0.215,1.076-0.646,2.367-2.152,2.367c-1.291,0.215-2.152-0.861-2.583-2.152c-3.228-8.394-6.457-16.572-9.47-24.966
						c-0.215-0.43-0.43-0.861-0.646-1.722c-0.215,0.646-0.43,1.076-0.646,1.722c-1.291,3.444-2.798,6.887-4.089,10.331
						c-0.43,1.291-1.291,2.152-3.013,2.152C105.233,261.314,101.574,261.314,97.915,261.314z"/>
				</g>
				<g>
					<path style="fill:#FAB616;" d="M97.915,291.231c0-1.291,0-2.798,0-4.089c21.738,0,43.26,0,64.998,0c0,1.291,0,2.798,0,4.089
						C141.176,291.231,119.868,291.231,97.915,291.231z"/>
				</g>
				<g>
					<path style="fill:#FAB616;" d="M162.913,298.764c0,0.43,0,0.861,0,1.291c0,0.861,0,1.937,0,2.798c-21.738,0-43.476,0-65.213,0
						c0-1.291,0-2.798,0-4.089C119.438,298.764,141.176,298.764,162.913,298.764z"/>
				</g>
				<g>
					<path style="fill:#1EB1A5;" d="M142.252,195.455c-0.215-0.861-0.215-1.722-0.43-2.368c-0.646-4.52-3.659-7.533-8.394-8.394
						c-0.215,0-0.646-0.215-0.861-0.215c-1.291,0-3.013,0-4.305,0c-0.215,0-0.646,0.215-0.861,0.215
						c-4.305,0.646-7.102,3.228-8.179,7.533c-0.215,0.861-0.215,1.937-0.43,3.013c-4.305,0-8.824,0-13.129,0
						c0,5.596,0,11.192,0,16.572c16.788,0,33.575,0,50.363,0c0-5.596,0-11.192,0-16.572
						C150.861,195.455,146.556,195.455,142.252,195.455z M130.414,200.621c-3.013,0-5.165-2.367-5.165-5.165
						c0-2.798,2.368-5.165,5.165-5.165c3.013,0,5.381,2.367,5.381,5.165S133.427,200.621,130.414,200.621z"/>
				</g>
			</g>
		</g>
		<g>
			<g>
				<g>
					<path style="fill:#1DB2A6;" d="M453.253,244.957c-3.659-2.367-6.457-6.457-6.457-10.761V223.65h3.444
						c1.937,0,3.444-1.722,3.444-3.444v-11.622c0-5.811-4.52-10.331-10.331-10.331H383.52c-5.811,0-10.331,4.52-10.331,10.331
						v11.622c0,1.937,1.722,3.444,3.444,3.444h3.444v10.546c0,4.305-2.583,8.609-6.457,10.761c-6.026,3.444-9.685,9.9-9.685,16.788
						v36.804c0,9.47,7.963,17.433,17.433,17.433h64.568c9.47,0,17.433-7.963,17.433-17.433v-36.804
						C462.938,254.858,459.279,248.401,453.253,244.957L453.253,244.957z M456.051,298.764c0,5.811-4.52,10.331-10.331,10.331
						h-64.568c-5.811,0-10.331-4.52-10.331-10.331V261.96c0-4.305,2.583-8.609,6.457-10.761c6.026-3.444,9.685-9.9,9.685-16.788
						V223.65h52.946v10.546c0,6.887,3.659,13.559,9.685,16.788c3.659,2.367,6.457,6.457,6.457,10.761L456.051,298.764
						L456.051,298.764z"/>
				</g>
				<g>
					<path style="fill:#FAB616;" d="M432.376,263.897h-10.331v-10.331c0-1.722-1.291-2.798-2.798-2.798H407.84
						c-1.722,0-2.798,1.291-2.798,2.798v10.331h-10.331c-1.722,0-2.798,1.291-2.798,2.798v11.407c0,1.722,1.291,2.798,2.798,2.798
						h10.331v10.331c0,1.722,1.291,2.798,2.798,2.798h11.407c1.722,0,2.798-1.291,2.798-2.798V280.9h10.331
						c1.722,0,2.798-1.291,2.798-2.798V266.91C434.959,265.188,433.883,263.897,432.376,263.897z"/>
				</g>
			</g>
		</g>
		<g>
			<path style="fill:#1EB1A5;" d="M235.875,381.195H32.271c-13.559,0-24.321-10.977-24.321-24.32V153.271
				c0-13.559,10.977-24.536,24.321-24.536h203.604c13.559,0,24.321,10.977,24.321,24.321v39.602
				c6.026-1.722,11.837-2.583,18.079-2.583c35.082,0,63.492,28.41,63.492,63.492s-28.41,63.492-63.492,63.492
				c-6.026,0-12.268-0.861-18.079-2.583v42.4C260.195,370.219,249.219,381.195,235.875,381.195z M32.271,137.129
				c-8.609,0-15.711,7.102-15.711,15.927v203.604c0,8.609,7.102,15.711,15.711,15.711h203.604c8.609,0,15.712-7.102,15.712-15.711
				v-54.883l5.811,2.367c6.672,2.798,13.774,4.089,20.877,4.089c30.347,0,54.883-24.536,54.883-54.883s-24.536-54.883-54.883-54.883
				c-7.102,0-13.99,1.291-20.877,4.089l-5.811,2.367v-52.085c0-8.609-7.102-15.711-15.711-15.711H32.271z"/>
		</g>
		<g>
			<path style="fill:#1EB1A5;" d="M479.726,380.98H276.122c-12.914,0-23.46-9.9-24.321-22.814v-1.507v-54.883l5.811,2.367
				c6.887,2.798,13.774,4.089,20.877,4.089c30.347,0,54.883-24.536,54.883-54.883s-24.536-54.883-54.883-54.883
				c-7.102,0-13.99,1.291-20.877,4.089l-5.811,2.368v-53.806c0.861-12.698,11.622-22.814,24.321-22.814h203.604
				c13.559,0,24.32,10.977,24.32,24.321v203.819C504.262,370.003,493.285,380.98,479.726,380.98z M260.411,357.736
				c0.646,8.179,7.533,14.635,15.712,14.635h203.604c8.609,0,15.711-7.102,15.711-15.711V153.056
				c0-8.609-7.102-15.711-15.711-15.711H276.122c-8.179,0-15.281,6.457-15.712,14.635v40.893c6.026-1.722,12.053-2.583,18.079-2.583
				c35.082,0,63.492,28.41,63.492,63.492s-28.41,63.492-63.492,63.492c-6.242,0-12.268-0.861-18.079-2.583L260.411,357.736
				L260.411,357.736z"/>
		</g>
	</g>
</g>
<g id="Layer_1">
</g>
</svg>
