<?xml version="1.0" encoding="iso-8859-1"?>
<!-- Generator: Adobe Illustrator 21.1.0, SVG Export Plug-In . SVG Version: 6.00 Build 0)  -->
<svg version="1.1" xmlns="http://www.w3.org/2000/svg" xmlns:xlink="http://www.w3.org/1999/xlink" x="0px" y="0px"
	 viewBox="0 0 512 512" style="enable-background:new 0 0 512 512;" xml:space="preserve">
<g id="doctor-check">
	<g>
		<path style="fill:#1EB1A5;" d="M297.107,446.92H109.666v-60.355c0-0.85,0-1.7,0-2.55c0-0.425,0-0.425,0-0.425
			c0-0.85,0-1.7,0-2.125c0-0.425,0-0.425,0-0.85c0-0.425,0-0.85,0.425-1.7c0-0.425,0-0.85,0-0.85c0-0.425,0.425-1.275,0.425-1.7
			c0-0.425,0-0.85,0.425-1.275s0-0.425,0.425-0.85c0.425-1.7,0.85-2.975,1.275-4.25c0-0.425,0-0.425,0-0.425
			c0.425-1.7,0.85-2.975,1.7-4.25c0-0.425,0-0.425,0.425-0.425c0.425-0.85,0.85-1.7,0.85-2.55c0,0,0-0.425,0.425-0.425
			c0.425-0.425,0.425-0.85,0.425-1.275c0-0.425,0.425-0.425,0.425-0.85c0.425-0.425,0.425-0.85,0.85-1.275
			c0.425-0.425,0.425-0.85,0.85-1.275c0-0.425,0.425-0.425,0.425-0.85c0.425-0.425,0.425-0.85,0.85-1.275
			c0-0.425,0.425-0.425,0.425-0.425c0.425-0.425,0.85-1.275,1.275-1.7c0-0.425,0.425-0.425,0.425-0.425
			c0.425-0.425,0.85-0.85,1.275-1.275c0,0,0-0.425,0.425-0.425c0.425-0.425,0.85-1.275,1.7-1.7l0.425-0.425
			c0.425-0.425,0.85-0.85,1.275-1.275l0.425-0.425c0.425-0.425,0.85-0.85,1.7-1.7c0.425,0,0.425-0.425,0.425-0.425
			c0.425-0.425,0.85-0.85,1.275-0.85s0.425-0.425,0.425-0.425c0.425-0.425,0.85-0.85,1.7-1.275c0.425-0.425,0.425-0.425,0.85-0.85
			c0.425-0.425,0.425-0.425,0.85-0.425c0.425-0.425,0.85-0.425,0.85-0.85l0,0c7.651-5.1,17.001-8.501,26.777-9.351
			c0,5.95,0,14.876,0,29.328c-17.427,3.4-29.753,18.277-29.753,36.128v31.453c0,3.825,2.975,6.801,6.801,6.801
			c3.825,0,6.801-2.975,6.801-6.801V396.34c0-12.751,10.201-22.952,22.952-22.952s22.952,10.201,22.952,22.952v31.453
			c0,3.825,2.975,6.801,6.801,6.801c3.825,0,6.801-2.975,6.801-6.801V396.34c0-17.427-12.751-32.728-29.753-36.128V328.76
			c0.425,0,0.425,0,0.85-0.425c4.675-1.275,9.351-2.975,13.176-5.525l40.804,31.028c1.275,0.85,2.55,1.275,4.25,1.275
			c1.275,0,2.125-0.425,3.4-0.85c0.85-0.425-2.125,1.7,41.229-31.453c4.25,2.975,9.351,4.675,14.026,5.95v30.603
			c-13.601,3.825-21.677,17.852-17.852,31.453c2.55,9.351,10.201,16.151,19.127,18.277c0.425-4.675,1.7-8.926,2.975-13.176
			c-5.525-1.275-9.351-5.951-9.351-11.476c0-6.376,5.525-11.901,11.901-11.901c2.55,0,5.1,0.85,6.801,2.125
			c2.55-3.825,5.101-7.651,8.076-11.051c-2.55-1.7-5.1-2.975-8.076-3.825v-29.753c12.326,0.85,23.377,5.951,31.878,13.176
			c4.25-2.55,8.501-4.675,13.176-6.376c-12.751-12.751-30.178-20.827-50.154-20.827l0,0c-15.726,0-28.478-12.751-28.478-28.478v-1.7
			c30.603-14.451,50.579-45.054,51.855-79.057c12.751-2.975,21.252-14.026,21.252-26.777V96.689
			c0-14.451-10.626-27.202-25.077-29.753c-12.326-26.352-38.678-43.354-67.581-42.929h-58.655
			c-40.379,0-73.106,31.878-74.381,71.831v79.057c0,12.326,10.201,23.377,22.102,26.777v2.125c0,32.728,17.852,61.205,43.354,77.357
			l0,0c2.975,1.7,5.95,3.4,8.501,4.675v1.7c0,11.051-6.376,21.252-16.151,25.502l0,0c-0.425,0.425-0.85,0.425-1.275,0.425
			c0,0,0,0-0.425,0c-1.275,0.425-2.55,0.85-3.825,1.275l0,0c-0.425,0-0.85,0-0.85,0.425h-0.425c-0.425,0-0.85,0-0.85,0.425h-0.425
			c-0.425,0-0.85,0-1.275,0l0,0c-0.85,0-1.7,0-2.975,0l0,0c-14.451,0-28.052,4.25-39.103,11.901l0,0c-0.85,0.425-1.7,1.275-2.55,1.7
			c0,0,0,0-0.425,0.425c-4.25,3.4-8.501,7.226-11.901,11.476c0,0,0,0,0,0.425c-1.275,1.7-2.55,3.4-3.825,5.1
			c0,0.425-0.425,0.425-0.425,0.85c-0.425,0.85-0.85,1.7-1.7,2.55c-0.425,0.425-0.425,0.425-0.425,0.85
			c-0.425,0.425-0.425,0.85-0.85,1.7c-0.425,0.425-0.425,0.85-0.85,1.275c-0.425,0.85-0.85,1.275-0.85,2.125
			c-0.425,0.425-0.425,0.85-0.85,1.7c0,0.425-0.425,0.425-0.425,0.85c-0.425,0.85-0.85,2.125-1.275,2.975
			c0,0.425,0,0.425-0.425,0.425c-0.425,0.425-0.425,1.275-0.85,1.7v0.425c-0.425,1.275-0.85,2.125-0.85,3.4
			c0,0.425,0,0.425-0.425,0.85c-0.425,0.85-0.425,1.7-0.85,2.55c0,0.425-0.425,0.85-0.425,1.275c0,0.425-0.425,0.85-0.425,1.7
			c0,0.425-0.425,1.275-0.425,1.7c0,0.425,0,0.85-0.425,1.7c0,0.85-0.425,1.275-0.425,2.125c0,0.425,0,0.425,0,0.85
			c0,0.85,0,2.125-0.425,2.975c0,0.425,0,0.425,0,0.85c0,0.85,0,2.125,0,2.975v67.581c0,0.425,0,0.85,0,1.275
			c0.85,3.4,3.4,5.525,6.801,5.525h199.767C300.083,456.696,298.382,451.595,297.107,446.92z M233.777,339.811l-34.428-26.352
			c0.85-1.275,2.125-2.55,2.975-4.25c0,0,0-0.425,0.425-0.425c0.425,0,0-0.425,0.425-0.425c2.975-5.525,5.1-11.476,5.525-17.852
			c7.651,2.55,16.151,3.825,24.652,3.825c0.425,0,0.85,0,1.275,0c0.425,0,0.85,0,1.275,0c8.501,0,16.576-1.275,24.652-3.825
			c0.425,8.076,3.825,16.151,8.926,22.527L233.777,339.811z M142.819,186.797c-4.25-2.55-8.501-7.226-8.501-11.901V95.839l0,0
			c1.7-32.303,28.052-58.23,60.78-58.23h58.655c25.077,0,47.604,15.301,56.53,38.253c0.85,2.55,3.4,4.25,6.376,4.25
			c8.926,0,16.151,7.226,16.151,16.151v83.307c0,5.1-2.975,10.201-7.651,12.751v-44.204c0-26.352-21.252-47.604-47.604-47.604
			h-87.133c-26.352,0-47.604,21.252-47.604,47.604V186.797L142.819,186.797z M156.42,203.374v-55.255
			c0-18.702,15.301-34.003,34.003-34.003h87.133c18.702,0,34.003,15.301,34.003,34.003v55.255c0,42.929-34.853,77.782-77.782,77.782
			C191.273,281.155,156.42,246.302,156.42,203.374z"/>
		<g>
			<path style="fill:#1EB1A5;" d="M428.019,388.69c-1.275-1.275-2.975-2.125-4.675-2.125l0,0c-1.7,0-3.4,0.85-4.675,2.125
				l-51.004,51.004l-17.427-17.852c-2.55-2.55-7.226-2.55-9.776,0c-1.275,1.275-2.125,2.975-2.125,4.675s0.85,3.4,2.125,4.675
				l22.952,22.952c1.275,1.275,2.975,2.125,4.675,2.125c1.7,0,3.825-0.85,4.675-2.125l56.105-56.105
				C430.994,395.915,430.994,391.665,428.019,388.69z"/>
			<g>
				<path style="fill:#FAB616;" d="M384.24,506c-46.754,0-84.157-37.828-84.157-84.157c0-46.754,37.828-84.157,84.157-84.157
					s84.157,37.828,84.157,84.157C468.397,468.172,430.569,506,384.24,506z M384.24,356.387c-36.128,0-65.456,29.328-65.456,65.456
					s29.328,65.456,65.456,65.456s65.456-29.328,65.456-65.456S420.368,356.387,384.24,356.387z"/>
			</g>
		</g>
	</g>
</g>
<g id="Layer_1">
</g>
</svg>
