<?xml version="1.0" encoding="iso-8859-1"?>
<!-- Generator: Adobe Illustrator 21.1.0, SVG Export Plug-In . SVG Version: 6.00 Build 0)  -->
<svg version="1.1" xmlns="http://www.w3.org/2000/svg" xmlns:xlink="http://www.w3.org/1999/xlink" x="0px" y="0px"
	 viewBox="0 0 512 512" style="enable-background:new 0 0 512 512;" xml:space="preserve">
<g id="hospital-check">
	<g>
		<path style="fill:#1EB1A5;" d="M209.686,180.315h18.662v18.662c0,3.293,2.561,5.855,5.855,5.855h32.567
			c3.293,0,5.855-2.561,5.855-5.855v-18.662h18.662c3.293,0,5.855-2.561,5.855-5.855v-32.567c0-3.293-2.561-5.855-5.855-5.855
			h-18.662v-18.662c0-3.293-2.561-5.855-5.855-5.855h-32.567c-3.293,0-5.855,2.561-5.855,5.855v18.662h-18.662
			c-3.293,0-5.855,2.561-5.855,5.855v32.567C203.831,177.753,206.393,180.315,209.686,180.315z M215.175,147.748h18.662
			c3.293,0,5.855-2.561,5.855-5.855v-18.662h21.223v18.662c0,3.293,2.561,5.855,5.855,5.855h18.662v21.223H266.77
			c-3.293,0-5.855,2.561-5.855,5.855v18.662h-21.223v-18.662c0-3.293-2.561-5.855-5.855-5.855h-18.662V147.748L215.175,147.748z"/>
		<path style="fill:#1EB1A5;" d="M229.08,265.574c3.293,0,5.855-2.561,5.855-5.855v-32.567c0-3.293-2.561-5.855-5.855-5.855h-32.567
			c-3.293,0-5.855,2.561-5.855,5.855v32.567c0,3.293,2.561,5.855,5.855,5.855H229.08z M202.002,232.641h21.223v21.223h-21.223
			V232.641z"/>
		<path style="fill:#1EB1A5;" d="M266.404,227.152v32.567c0,3.293,2.561,5.855,5.855,5.855h32.567c3.293,0,5.855-2.561,5.855-5.855
			v-32.567c0-3.293-2.561-5.855-5.855-5.855h-32.567C268.599,221.298,266.404,223.859,266.404,227.152z M277.747,232.641h21.223
			v21.223h-21.223V232.641z"/>
		<path style="fill:#1EB1A5;" d="M375.082,265.574h32.567c3.293,0,5.855-2.561,5.855-5.855v-32.567c0-3.293-2.561-5.855-5.855-5.855
			h-32.567c-3.293,0-5.855,2.561-5.855,5.855v32.567C369.593,263.013,372.154,265.574,375.082,265.574z M380.936,232.641h21.223
			v21.223h-21.223V232.641z"/>
		<path style="fill:#1EB1A5;" d="M125.891,221.298H93.324c-3.293,0-5.855,2.561-5.855,5.855v32.567c0,3.293,2.561,5.855,5.855,5.855
			h32.567c3.293,0,5.855-2.561,5.855-5.855v-32.567C131.379,223.859,128.818,221.298,125.891,221.298z M120.036,253.865H98.813
			v-21.223h21.223V253.865z"/>
		<path style="fill:#1EB1A5;" d="M125.891,292.286H93.324c-3.293,0-5.855,2.561-5.855,5.855v32.567c0,3.293,2.561,5.855,5.855,5.855
			l0,0h32.567c3.293,0,5.855-2.561,5.855-5.855l0,0v-32.567C131.379,294.848,128.818,292.286,125.891,292.286z M120.036,324.853
			H98.813V303.63h21.223V324.853z"/>
		<path style="fill:#1EB1A5;" d="M125.891,363.275H93.324c-3.293,0-5.855,2.561-5.855,5.855v32.567c0,3.293,2.561,5.855,5.855,5.855
			h32.567c3.293,0,5.855-2.561,5.855-5.855v-32.567C131.379,365.836,128.818,363.275,125.891,363.275z M120.036,395.841H98.813
			v-21.223h21.223V395.841z"/>
		<path style="fill:#1EB1A5;" d="M318.73,429.872h-17.564V305.459c0-3.293-2.561-5.855-5.855-5.855h-90.016
			c-3.293,0-5.855,2.561-5.855,5.855v124.413h-37.69v-254.68V65.05H338.49v270.414c3.659-3.293,7.318-5.855,11.344-8.416V180.681
			h82.698v146.368c4.025,2.561,8.05,5.123,11.344,8.416V175.192c0-3.293-2.561-5.855-5.855-5.855h-88.187V59.196
			c0-3.293-2.561-5.855-5.855-5.855H155.896c-3.293,0-5.855,2.561-5.855,5.855v110.142H61.855c-3.293,0-5.855,2.561-5.855,5.855
			v260.534c0,3.293,2.561,5.855,5.855,5.855h263.462C322.755,437.556,320.926,433.897,318.73,429.872z M150.773,429.872H68.075
			V180.681h82.698V429.872z M244.814,429.872H211.15V311.314h33.665V429.872z M289.822,429.872h-33.665V311.314h33.665V429.872z"/>
		<g>
			<path style="fill:#1EB1A5;" d="M429.604,367.666c-1.098-1.098-2.561-1.83-4.025-1.83l0,0c-1.464,0-2.927,0.732-4.025,1.83
				l-43.91,43.91l-15.369-15.369c-2.196-2.196-6.221-2.196-8.416,0c-1.098,1.098-1.83,2.561-1.83,4.025s0.732,2.927,1.83,4.025
				l19.76,19.76c1.098,1.098,2.561,1.83,4.025,1.83s3.293-0.732,4.025-1.83l48.301-48.301
				C431.799,373.886,431.799,370.227,429.604,367.666z"/>
			<g>
				<path style="fill:#FAB616;" d="M391.548,468.659c-40.251,0-72.452-32.567-72.452-72.452c0-40.251,32.567-72.452,72.452-72.452
					c40.251,0,72.452,32.567,72.452,72.452S431.433,468.659,391.548,468.659z M391.548,339.856
					c-31.103,0-56.352,25.248-56.352,56.352s25.248,56.352,56.352,56.352S447.9,427.31,447.9,396.207
					S422.651,339.856,391.548,339.856z"/>
			</g>
		</g>
		<path style="fill:#1EB1A5;" d="M380.936,316.437v-12.441h21.223v12.441c4.025,0.366,7.684,1.464,11.344,2.561v-20.857
			c0-3.293-2.561-5.855-5.855-5.855h-32.567c-3.293,0-5.855,2.561-5.855,5.855v20.857
			C373.252,317.535,376.911,316.803,380.936,316.437z"/>
	</g>
</g>
<g id="Layer_1">
</g>
</svg>
