<?xml version="1.0" encoding="utf-8"?>
<!-- Generator: Adobe Illustrator 25.0.0, SVG Export Plug-In . SVG Version: 6.00 Build 0)  -->
<svg version="1.1" id="Layer_1" xmlns="http://www.w3.org/2000/svg" xmlns:xlink="http://www.w3.org/1999/xlink" x="0px" y="0px"
	 viewBox="0 0 60 54.5" style="enable-background:new 0 0 60 54.5;" xml:space="preserve">
<path d="M19.9,16.7l-2.4-0.5c-0.9-0.2-1.4-0.7-1.4-1.4c0-0.9,0.8-1.5,2-1.5c1.3,0,2.1,0.6,2.4,1.5h2.7c-0.4-1.9-1.5-3.3-3.5-3.7V8.9
	h-2.4V11c-2.3,0.3-3.8,1.8-3.8,4c0,2.3,1.5,3.3,3.3,3.7l2.2,0.5c1.2,0.3,1.7,0.7,1.7,1.5c0,1-0.8,1.6-2.1,1.6
	c-1.3,0-2.2-0.5-2.6-1.7h-2.8c0.4,2.2,2,3.5,4.1,3.9l-0.1,2.1h2.4v-2.2c2.2-0.3,3.7-1.8,3.7-4C23.3,18.5,22,17.2,19.9,16.7z"/>
<g>
	<path d="M53.4,28.4c-0.4-1.7-1.1-3.2-2.2-4.6c-3.8-4.7-10.7-5.4-15.4-1.6c-0.1,0.1-0.2,0.2-0.3,0.3c-0.1-0.1-0.2-0.1-0.2-0.2
		c-0.7-0.6-1.4-1.1-2.2-1.4c0.2-0.9,0.3-1.9,0.3-2.9c0-8.2-6.6-14.8-14.8-14.8c-8.2,0-14.8,6.6-14.8,14.8c0,7.8,6.1,14.2,13.8,14.8
		c0.4,2.2,1.5,4.3,3.1,5.8c1.9,1.9,3.8,3.8,5.7,5.7c2.8,2.8,5.5,5.5,8.3,8.2c0,0.1,0.1,0.1,0.2,0.2c0.5,0.4,1.1,0.3,1.5-0.1
		c1-1,2.1-2.1,3.1-3.1c0,0,0-0.1,0.1-0.1c0.4-0.4,0.4-1.1-0.1-1.5c-0.4-0.4-1.1-0.4-1.5,0.1c-0.4,0.4-0.8,0.8-1.2,1.2
		c-0.4,0.4-0.8,0.8-1.1,1.2c-0.1-0.1-0.2-0.1-0.2-0.2c-4.5-4.5-8.9-8.9-13.4-13.3c-1.2-1.1-2-2.6-2.3-4.1c0.5,0,1-0.1,1.4-0.2
		c0.6-0.1,1.3-0.3,1.9-0.5c0.6-0.2,1.3-0.5,1.9-0.7c1.2-0.6,2.4-1.3,3.4-2.2c1.9-1.7,3.4-3.8,4.2-6.2c0.8,0.4,1.5,1,2.2,1.7
		c0.3,0.4,0.9,0.5,1.3,0.3c0.2-0.1,0.4-0.3,0.6-0.5c2.5-2.5,6.2-3.3,9.5-1.9c0.8,0.3,1.6,0.8,2.3,1.4c3.8,3.1,4.3,8.6,1.2,12.4
		c-0.1,0.1-0.1,0.2-0.2,0.2c-0.3,0.5-0.1,1.2,0.4,1.5c0.5,0.3,1.2,0.1,1.5-0.4C53.3,35.1,54.2,31.6,53.4,28.4z M27.4,27.1
		c-0.6,0.6-1.2,1.1-1.9,1.5c-0.9,0.6-1.9,1.1-3,1.4c-0.3,0.1-0.6,0.2-0.9,0.3c-0.8,0.2-1.5,0.3-2.3,0.4l-2.2,0
		C10.8,30,5.7,24.6,5.7,17.9c0-7.1,5.7-12.8,12.8-12.8c7.1,0,12.8,5.8,12.8,12.8c0,0.8-0.1,1.5-0.2,2.2c-0.1,0.7-0.3,1.4-0.5,2.1
		C29.9,24.1,28.8,25.7,27.4,27.1z"/>
	<path d="M50.3,40.6c-1.1,0-2.1,0-3.2,0c-0.1,0-0.2,0-0.4,0c0-1.2,0-2.4,0-3.6c0-0.5-0.2-0.7-0.7-0.7c-1,0-1.9,0-2.9,0
		c-0.6,0-0.7,0.2-0.7,0.7c0,1.2,0,2.3,0,3.5l-0.5,0c-1.1,0-2.1,0-3.2,0c-0.5,0-0.7,0.2-0.7,0.6c0,1,0,2,0,3c0,0.5,0.2,0.6,0.6,0.6
		c0.9,0,1.8,0,2.7,0h0.9c0,1.2,0,2.4,0,3.6c0,0.5,0.2,0.7,0.7,0.7c1,0,1.9,0,2.9,0c0.6,0,0.7-0.2,0.7-0.7c0-1.1,0-2.1,0-3.2
		c0-0.1,0-0.3,0-0.4c1.2,0,2.4,0,3.6,0c0.6,0,0.7-0.2,0.7-0.7c0-0.9,0-1.9,0-2.8C51,40.8,50.8,40.6,50.3,40.6z"/>
</g>
</svg>
