<?xml version="1.0" encoding="utf-8"?>
<!-- Generator: Adobe Illustrator 25.0.0, SVG Export Plug-In . SVG Version: 6.00 Build 0)  -->
<svg version="1.1" id="Layer_1" xmlns="http://www.w3.org/2000/svg" xmlns:xlink="http://www.w3.org/1999/xlink" x="0px" y="0px"
	 viewBox="0 0 60 60" style="enable-background:new 0 0 60 60;" xml:space="preserve">
<g>
	<path d="M52.3,33.3c-1.1-0.7-1.9-1.9-1.9-3.2V27h1c0.5,0,1-0.5,1-1v-3.4c0-1.7-1.4-3.1-3.1-3.1H31.9c-1.7,0-3.1,1.4-3.1,3.1V26
		c0,0.5,0.5,1,1,1h1v3.1c0,1.3-0.7,2.5-1.9,3.2c-1.8,1-2.9,2.9-2.9,5v10.8c0,2.8,2.3,5.1,5.1,5.1h19c2.8,0,5.1-2.3,5.1-5.1V38.3
		C55.2,36.3,54.1,34.4,52.3,33.3z M50.1,52.2h-19c-1.7,0-3.1-1.4-3.1-3.1V38.4c0-1.3,0.7-2.5,1.9-3.2c1.8-1,2.9-2.9,2.9-5V27h15.6
		v3.1c0,2,1.1,4,2.9,5c1.1,0.7,1.9,1.9,1.9,3.2v10.9h0C53.2,50.9,51.8,52.2,50.1,52.2z"/>
	<path d="M46.2,38.9h-3.1v-3.1c0-0.5-0.4-0.8-0.8-0.8H39c-0.5,0-0.8,0.4-0.8,0.8v3.1h-3.1c-0.5,0-0.8,0.4-0.8,0.8v3.3
		c0,0.5,0.4,0.8,0.8,0.8h3.1V47c0,0.5,0.4,0.8,0.8,0.8h3.3c0.5,0,0.8-0.4,0.8-0.8V44h3.1c0.5,0,0.8-0.4,0.8-0.8v-3.3
		C47,39.3,46.7,38.9,46.2,38.9z"/>
	<path d="M19.3,15.6h-2v-2.3c0-0.5-0.4-0.9-0.9-0.9h-1.7V2.3c0-0.5-0.4-0.9-0.9-0.9c-0.5,0-0.9,0.4-0.9,0.9v10.1h-1.7
		c-0.5,0-0.9,0.4-0.9,0.9v2.3h-2c-0.5,0-0.9,0.4-0.9,0.9v34.7c0,0.5,0.4,0.9,0.9,0.9h3v1.8H8.4c-0.5,0-0.9,0.4-0.9,0.9v2.9
		c0,0.5,0.4,0.9,0.9,0.9h10.9c0.5,0,0.9-0.4,0.9-0.9v-2.8c0-0.5-0.4-0.9-0.9-0.9h-3v-1.8h3c0.5,0,0.9-0.4,0.9-0.9V16.5
		C20.2,16,19.8,15.6,19.3,15.6z M12.2,14.2h3.4v1.4h-3.4V14.2z M18.4,55.8v1.1H9.3v-1.1H18.4z M13.3,54v-1.8h1.3V54H13.3z M9.3,50.4
		V17.5h9.1v2.3h-3.8c-0.5,0-0.9,0.4-0.9,0.9c0,0.5,0.4,0.9,0.9,0.9h3.8v1.6h-0.9c-0.5,0-0.9,0.4-0.9,0.9c0,0.5,0.4,0.9,0.9,0.9h0.9
		v1.4h-3.8c-0.5,0-0.9,0.4-0.9,0.9c0,0.5,0.4,0.9,0.9,0.9h3.8v1.6h-0.9c-0.5,0-0.9,0.4-0.9,0.9c0,0.5,0.4,0.9,0.9,0.9h0.9v1.4h-3.8
		c-0.5,0-0.9,0.4-0.9,0.9c0,0.5,0.4,0.9,0.9,0.9h3.8v1.6h-0.9c-0.5,0-0.9,0.4-0.9,0.9c0,0.5,0.4,0.9,0.9,0.9h0.9v1.4h-3.8
		c-0.5,0-0.9,0.4-0.9,0.9s0.4,0.9,0.9,0.9h3.8v1.6h-0.9c-0.5,0-0.9,0.4-0.9,0.9s0.4,0.9,0.9,0.9h0.9v1.4h-3.8
		c-0.5,0-0.9,0.4-0.9,0.9s0.4,0.9,0.9,0.9h3.8v2.5H9.3z"/>
</g>
</svg>
