<?xml version="1.0" encoding="utf-8"?>
<!-- Generator: Adobe Illustrator 25.0.0, SVG Export Plug-In . SVG Version: 6.00 Build 0)  -->
<svg version="1.1" id="Layer_1" xmlns="http://www.w3.org/2000/svg" xmlns:xlink="http://www.w3.org/1999/xlink" x="0px" y="0px"
	 viewBox="0 0 60 54.5" style="enable-background:new 0 0 60 54.5;" xml:space="preserve">
<path d="M37.4,24.3c0.3-0.3,0.6-0.7,0.9-1.1h2.8c1.6,0,3-1.3,3-3v-5.7c0-7.2-5.9-13.1-13.1-13.1S17.9,7.4,17.9,14.6v5.7
	c0,1.6,1.3,3,3,3h3c0.3,0.4,0.6,0.8,0.9,1.1c-7,0.7-12.4,6.6-12.4,13.8v13.4c0,0.8,0.7,1.5,1.5,1.5h34.5c0.8,0,1.5-0.7,1.5-1.5V38.2
	C49.9,31,44.4,25,37.4,24.3z M31.4,36.7l-1.8-5.5H33L31.4,36.7z M25.2,18v-3.6c1.5-0.3,2.8-1.4,3.9-3.1c2.5,2.4,5.1,3.6,7.9,3.4V18
	c0,3.2-2.6,5.9-5.9,5.9S25.2,21.3,25.2,18z M20.9,20.3v-5.7C20.9,9,25.4,4.5,31,4.5S41.1,9,41.1,14.6l0,5.7h-1.4
	c0.2-0.7,0.3-1.4,0.3-2.2v-5c0-0.5-0.2-0.9-0.6-1.2s-0.8-0.4-1.3-0.3c-2.9,0.8-5.5-0.4-8.2-3.8c-0.3-0.4-0.9-0.6-1.4-0.5
	c-0.5,0.1-1,0.4-1.2,0.9c-1.5,3.6-3,3.4-3.4,3.4c-0.4-0.1-0.9,0.1-1.2,0.4c-0.3,0.3-0.5,0.7-0.5,1.1v5c0,0.8,0.1,1.5,0.3,2.2
	L20.9,20.3z M31.1,26.9c1.1,0,2.2-0.2,3.3-0.6l-0.5,1.8h-5.2l-0.6-1.8C29,26.7,30.1,26.9,31.1,26.9z M23.7,43.1
	c0.9,0,1.7,0.7,1.7,1.7s-0.7,1.7-1.7,1.7S22,45.6,22,44.7S22.7,43.1,23.7,43.1z M15.4,38.2c0-4.5,2.8-8.4,6.7-10v12.2
	C20.3,41,19,42.7,19,44.7c0,2.6,2.1,4.7,4.7,4.7c2.6,0,4.7-2.1,4.7-4.7c0-2-1.3-3.8-3.2-4.4v-13c0,0,0.1,0,0.1,0l0.8,2.6
	c0,0.1,0.1,0.2,0.1,0.3L29.9,42v8H15.4V38.2z M46.9,50h-14v-8l4.3-14.7c0.1,0,0.2,0,0.3,0v10c-2.2,0.6-3.9,2.6-3.9,5.1v5.2
	c0,0.8,0.7,1.5,1.5,1.5h1.8c0.8,0,1.5-0.7,1.5-1.5s-0.7-1.5-1.5-1.5h-0.3v-3.7c0-1.2,1-2.3,2.3-2.3s2.3,1,2.3,2.3v3.7h0
	c-0.8,0-1.5,0.7-1.5,1.5s0.7,1.5,1.5,1.5h1.5c0.8,0,1.5-0.7,1.5-1.5v-5.2c0-2.3-1.5-4.3-3.6-5v-9.2c3.8,1.7,6.5,5.5,6.5,9.9V50z"/>
</svg>
