<?xml version="1.0" encoding="utf-8"?>
<!-- Generator: Adobe Illustrator 25.0.0, SVG Export Plug-In . SVG Version: 6.00 Build 0)  -->
<svg version="1.1" id="Layer_1" xmlns="http://www.w3.org/2000/svg" xmlns:xlink="http://www.w3.org/1999/xlink" x="0px" y="0px"
	 viewBox="0 0 60 60" style="enable-background:new 0 0 60 60;" xml:space="preserve">
<g>
	<path d="M23.2,22.7h2.1v2.1c0,0.5,0.4,1,1,1h4.1c0.5,0,1-0.4,1-1v-2.1h2.1c0.5,0,1-0.4,1-1v-4.1c0-0.5-0.4-1-1-1h-2.1v-2.1
		c0-0.5-0.4-1-1-1h-4.1c-0.6,0-1,0.4-1,1v2.1h-2.1c-0.6,0-1,0.4-1,1v4.1C22.2,22.3,22.6,22.7,23.2,22.7z M27.2,17.7v-2.1h2.2v2.1
		c0,0.5,0.4,1,1,1h2.1v2.2h-2.1c-0.5,0-1,0.4-1,1v2.1h-2.2v-2.1c0-0.5-0.4-1-1-1h-2.1v-2.2h2.1C26.8,18.6,27.2,18.2,27.2,17.7z"/>
	<path d="M25.6,27.3h-4.1c-0.5,0-1,0.4-1,1v4.1c0,0.5,0.4,1,1,1h4.1c0.6,0,1-0.4,1-1v-4.1C26.6,27.8,26.2,27.3,25.6,27.3z
		 M22.5,31.4v-2.2h2.1v2.2H22.5z"/>
	<path d="M8.6,33.4h4.1c0.5,0,1-0.4,1-1v-4.1c-0.1-0.5-0.5-1-1-1H8.6c-0.5,0-1,0.4-1,1v4.1C7.7,33,8.1,33.4,8.6,33.4z M11.7,29.3
		v2.2H9.6v-2.2H11.7z"/>
	<path d="M8.6,42.3h4.1c0.5,0,1-0.4,1-1v-4.1c-0.1-0.5-0.5-1-1-1H8.6c-0.5,0-1,0.4-1,1v4.1C7.7,41.8,8.1,42.3,8.6,42.3z M11.7,38.1
		v2.2H9.6v-2.2H11.7z"/>
	<path d="M8.6,51.2h4.1c0.5,0,1-0.4,1-1v-4.1c-0.1-0.5-0.5-0.9-1-0.9H8.6c-0.5,0-1,0.4-1,1v4.1C7.7,50.7,8.1,51.2,8.6,51.2z
		 M11.7,47v2.2H9.6V47H11.7z"/>
	<path d="M50.1,35.9L39.4,46.6l-3.9-3.9c-0.4-0.4-1.1-0.4-1.6,0c-0.1,0.1-0.4,0.4-0.4,0.8c0,0.3,0.1,0.6,0.4,0.8l4.6,4.6
		c0.1,0.1,0.4,0.4,0.8,0.4c0.3,0,0.6-0.1,0.8-0.4l11.5-11.5c0.5-0.4,0.5-1.1,0.1-1.6C51.3,35.5,50.6,35.5,50.1,35.9z"/>
	<path d="M52.7,31c-0.1-0.1-0.2-0.1-0.2-0.2v-9c0-0.4-0.3-0.7-0.7-0.7h-11V7.3c0-0.4-0.3-0.7-0.7-0.7H16.5c-0.4,0-0.7,0.3-0.7,0.7
		v13.8h-11c-0.4,0-0.7,0.3-0.7,0.7v32.6c0,0.4,0.3,0.7,0.7,0.7h31.1c0.1,0.1,0.3,0.2,0.4,0.2c2.1,1.2,4.5,1.8,7.1,1.8
		c8.2,0,14.8-6.7,14.8-14.8C58.1,37.8,56,33.7,52.7,31z M15.8,53.7H5.5V22.5h10.3V53.7z M40.7,22.5h10.3v7.3
		c-0.1-0.1-0.2-0.1-0.2-0.2c-0.6-0.4-1.2-0.7-1.9-0.9c-0.1,0-0.2-0.1-0.2-0.1c-1.6-0.6-3.2-1-5-1c-0.1,0-0.3,0-0.4,0h-0.1
		c-0.8,0-1.5,0.1-2.2,0.2c-0.1,0-0.2,0-0.2,0V22.5z M21.9,38.1v15.6h-4.7V8.1h22.1v20.1c-0.1,0-0.2,0-0.2,0.1c-1,0.3-2,0.7-3,1.3
		v-1.2c0-0.5-0.4-1-1-1H31c-0.6,0-1,0.4-1,1v4.1c0,0.5,0.4,1,1,1h0.6c-0.9,1.1-1.6,2.4-2.1,3.8c0,0.1-0.1,0.2-0.1,0.2h-6.7
		C22.2,37.4,21.9,37.7,21.9,38.1z M34.1,30.8c-0.2,0.2-0.5,0.4-0.7,0.6H32v-2.2h2.2V30.8z M27.6,53.7h-4.2V38.9h4.2V53.7z
		 M33.2,53.7H29v-7.4c0.1,0.3,0.1,0.6,0.2,0.8c0.8,2.3,2,4.3,3.7,5.9c0.1,0.1,0.2,0.2,0.2,0.2V53.7z M43.3,55.2
		c-2.3,0-4.4-0.6-6.2-1.6c-0.1-0.1-0.2-0.1-0.3-0.2c-0.7-0.4-1.3-0.9-1.9-1.4c-0.1-0.1-0.2-0.1-0.2-0.2c-0.5-0.5-1-1-1.4-1.5
		C33.1,50.2,33,50.1,33,50c-1.5-2.1-2.5-4.7-2.5-7.5c0-1.2,0.2-2.3,0.4-3.3c0-0.1,0-0.2,0.1-0.2c0.1-0.5,0.3-1,0.5-1.5
		c0-0.1,0.1-0.2,0.1-0.2c0.6-1.4,1.5-2.7,2.6-3.8c0.1-0.1,0.2-0.2,0.3-0.2l1.3-1.1c0.1-0.1,0.2-0.1,0.2-0.2c0.9-0.6,1.9-1.1,3-1.5
		c0.1,0,0.2-0.1,0.2-0.1l1.4-0.4c0.1,0,0.2,0,0.2,0c0.6-0.1,1.3-0.2,1.9-0.2l0.2,0.1v-0.1h0.2c0.4,0,0.9,0,1.3,0.1
		c0.1,0,0.2,0,0.2,0c0.7,0.1,1.5,0.2,2.2,0.5c0.1,0,0.2,0,0.2,0.1c0.5,0.1,1,0.3,1.4,0.6v0.1l0.2,0.1c0.7,0.3,1.3,0.7,1.9,1.1
		c0.1,0.1,0.2,0.1,0.2,0.2c0.5,0.4,1,0.8,1.4,1.3c0.1,0.1,0.2,0.2,0.2,0.3c2.1,2.3,3.4,5.3,3.4,8.7C56.1,49.5,50.4,55.2,43.3,55.2z"
		/>
</g>
</svg>
