<?xml version="1.0" encoding="iso-8859-1"?>
<!-- Generator: Adobe Illustrator 21.1.0, SVG Export Plug-In . SVG Version: 6.00 Build 0)  -->
<svg version="1.1" xmlns="http://www.w3.org/2000/svg" xmlns:xlink="http://www.w3.org/1999/xlink" x="0px" y="0px"
	 viewBox="0 0 512 512" style="enable-background:new 0 0 512 512;" xml:space="preserve">
<g id="substance-abuse">
	<g>
		<g>
			<path style="fill:#FAB616;" d="M195.278,400.376h-31.812c-3.671,0-6.933-3.263-6.933-6.933s3.263-6.933,6.933-6.933h31.812
				c3.671,0,6.933,3.263,6.933,6.933C202.212,397.522,198.949,400.376,195.278,400.376z"/>
		</g>
		<g>
			<path style="fill:#FAB616;" d="M195.278,348.988h-31.812c-3.671,0-6.933-3.263-6.933-6.933s3.263-6.933,6.933-6.933h31.812
				c3.671,0,6.933,3.263,6.933,6.933S198.949,348.988,195.278,348.988z"/>
		</g>
		<g>
			<path style="fill:#FAB616;" d="M195.278,297.6h-31.812c-3.671,0-6.933-3.263-6.933-6.933c0-3.671,3.263-6.933,6.933-6.933h31.812
				c3.671,0,6.933,3.263,6.933,6.933C202.212,294.745,198.949,297.6,195.278,297.6z"/>
		</g>
		<g>
			<path style="fill:#FAB616;" d="M195.278,246.212h-31.812c-3.671,0-6.933-3.263-6.933-6.933c0-3.671,3.263-6.933,6.933-6.933
				h31.812c3.671,0,6.933,3.263,6.933,6.933C202.212,243.357,198.949,246.212,195.278,246.212z"/>
		</g>
		<g>
			<path style="fill:#FAB616;" d="M195.278,194.824h-31.812c-3.671,0-6.933-3.263-6.933-6.933c0-3.671,3.263-6.933,6.933-6.933
				h31.812c3.671,0,6.933,3.263,6.933,6.933C202.212,191.561,198.949,194.824,195.278,194.824z"/>
		</g>
		<g>
			<path style="fill:#FAB616;" d="M195.278,375.498h-9.38c-3.671,0-6.933-3.263-6.933-6.933s3.263-6.933,6.933-6.933h9.38
				c3.671,0,6.933,3.263,6.933,6.933S198.949,375.498,195.278,375.498z"/>
		</g>
		<g>
			<path style="fill:#FAB616;" d="M195.278,324.11h-9.38c-3.671,0-6.933-3.263-6.933-6.933c0-3.671,3.263-6.933,6.933-6.933h9.38
				c3.671,0,6.933,3.263,6.933,6.933C202.212,320.847,198.949,324.11,195.278,324.11z"/>
		</g>
		<g>
			<path style="fill:#FAB616;" d="M195.278,272.722h-9.38c-3.671,0-6.933-3.263-6.933-6.933c0-3.671,3.263-6.933,6.933-6.933h9.38
				c3.671,0,6.933,3.263,6.933,6.933C202.212,269.459,198.949,272.722,195.278,272.722z"/>
		</g>
		<g>
			<path style="fill:#FAB616;" d="M195.278,221.333h-9.38c-3.671,0-6.933-3.263-6.933-6.933c0-3.671,3.263-6.933,6.933-6.933h9.38
				c3.671,0,6.933,3.263,6.933,6.933C202.212,218.071,198.949,221.333,195.278,221.333z"/>
		</g>
		<path style="fill:#1EB1A5;" d="M200.173,433.82c3.671,0,6.933-3.263,6.933-6.933V155.671c0-3.671-3.263-6.933-6.933-6.933h-15.498
			v-17.945c0-3.671-3.263-6.933-6.933-6.933H164.69v-94.62c0-3.671-3.263-6.933-6.933-6.933c-3.671,0-6.933,3.263-6.933,6.933v94.62
			h-13.051c-3.671,0-6.933,3.263-6.933,6.933v17.945h-15.498c-3.671,0-6.933,3.263-6.933,6.933v270.808
			c0,3.671,3.263,6.933,6.933,6.933h23.655v14.275h-24.063c-3.671,0-6.933,3.263-6.933,6.933v22.431
			c0,3.671,3.263,6.933,6.933,6.933h85.239c3.671,0,6.933-3.263,6.933-6.933v-22.023c0-3.671-3.263-6.933-6.933-6.933h-23.247
			V433.82H200.173z M144.706,137.726h26.51v11.012h-26.51V137.726z M122.274,163.012h70.965v256.941h-70.965V163.012z
			 M193.239,470.525h-71.373v-8.565h70.965v8.565H193.239z M162.651,448.094h-9.788V433.82h9.788V448.094z"/>
		<g>
			<g>
				<path style="fill:#1DB2A6;" d="M401.647,359.184c-6.933-4.078-11.827-11.827-11.827-19.984v-19.576h6.526
					c3.263,0,6.526-2.855,6.526-6.525V291.89c0-10.604-8.565-19.169-19.169-19.169H273.584c-10.604,0-19.169,8.565-19.169,19.169
					v21.208c0,3.263,2.855,6.525,6.525,6.525h6.525V339.2c0,8.157-4.486,15.906-11.827,19.984
					c-11.012,6.526-17.945,18.353-17.945,30.996v67.702c0,17.537,14.275,31.812,31.812,31.812h118.682
					c17.537,0,31.812-14.275,31.812-31.812V390.18C419.592,377.537,412.659,365.71,401.647,359.184L401.647,359.184z
					 M406.949,458.29c0,10.604-8.565,19.169-19.169,19.169H269.098c-10.604,0-19.169-8.565-19.169-19.169v-67.702
					c0-8.157,4.486-15.906,11.827-19.984c11.012-6.526,17.945-18.353,17.945-30.996v-19.984h97.474V339.2
					c0,12.643,6.933,24.878,17.945,30.996c6.933,4.078,11.827,11.827,11.827,19.984V458.29z"/>
				<path style="fill:#FAB616;" d="M363.31,394.259h-19.169V375.09c0-2.855-2.447-5.302-5.302-5.302h-20.8
					c-2.855,0-5.302,2.447-5.302,5.302v19.169h-19.169c-2.855,0-5.302,2.447-5.302,5.302v20.8c0,2.855,2.447,5.302,5.302,5.302
					h19.169v19.169c0,2.855,2.447,5.302,5.302,5.302h20.8c2.855,0,5.302-2.447,5.302-5.302v-19.169h19.169
					c2.855,0,5.302-2.447,5.302-5.302v-20.8C368.204,396.706,366.165,394.259,363.31,394.259z"/>
			</g>
		</g>
	</g>
</g>
<g id="Layer_1">
</g>
</svg>
