<?xml version="1.0" encoding="iso-8859-1"?>
<!-- Generator: Adobe Illustrator 21.1.0, SVG Export Plug-In . SVG Version: 6.00 Build 0)  -->
<svg version="1.1" xmlns="http://www.w3.org/2000/svg" xmlns:xlink="http://www.w3.org/1999/xlink" x="0px" y="0px"
	 viewBox="0 0 512 512" style="enable-background:new 0 0 512 512;" xml:space="preserve">
<g id="treatment-cost">
	<g>
		<path style="fill:#1DB2A6;" d="M356.849,261.48h-0.592c-2.073,0-4.147,0-6.22-0.296c3.554,5.628,5.924,11.848,5.924,18.957
			l0.296,98.044c0,15.106-12.441,27.547-27.547,27.547H156.912c-15.106,0-27.547-12.441-27.547-27.547v-97.747
			c0-11.848,6.22-23.104,16.884-29.028c15.995-9.182,26.066-26.362,26.066-44.727V177.95h95.378c0-2.073-0.296-4.147-0.296-6.22
			c0.296-23.696,9.775-45.319,25.177-61.314H163.132c-15.106,0-27.547,12.441-27.547,27.547v30.805c0,5.035,4.147,9.182,9.182,9.182
			h9.182v28.436c0,11.848-6.22,23.104-16.884,29.028C121.071,244.596,111,261.776,111,280.141v98.044
			c0,25.474,20.734,45.912,45.912,45.912h171.502c25.474,0,45.912-20.734,45.912-45.912v-97.747
			c0.296-6.813-1.185-13.625-3.554-19.846C366.032,261.184,361.589,261.48,356.849,261.48z"/>
		<path style="fill:#F9B61B;" d="M416.683,113.082c-15.699-15.995-36.729-24.881-59.241-25.177h-0.592
			c-46.208,0-84.122,37.322-84.418,83.53c-0.296,46.504,37.026,84.714,83.53,85.011h0.592c46.208,0,84.122-37.618,84.418-83.53
			C441.564,150.107,432.974,129.077,416.683,113.082z M427.346,172.915c-0.296,38.507-31.694,69.608-70.497,69.608h-0.592
			c-38.803-0.296-69.904-31.99-69.608-71.089c0.296-38.507,31.694-69.608,70.497-69.608h0.592c18.957,0,36.137,7.405,49.466,21.03
			C420.533,136.185,427.642,153.662,427.346,172.915z"/>
		<g>
			<g>
				<path style="fill:#1EB1A5;" d="M352.702,203.424c-10.96-2.073-18.957-8.59-20.734-19.549h14.218
					c2.073,5.924,6.516,8.294,13.033,8.294c6.22,0,10.367-2.962,10.367-7.998c0-4.147-2.37-6.22-8.294-7.701l-10.96-2.666
					c-9.182-2.073-16.587-7.109-16.587-18.661c0-10.663,7.405-18.365,18.957-19.846V124.93h11.848v10.663
					c10.071,2.073,15.699,8.886,17.772,18.365h-13.625c-1.481-4.443-5.332-7.405-11.848-7.405c-6.22,0-10.071,2.962-10.071,7.701
					c0,3.851,2.37,6.22,7.109,7.109l11.848,2.666c10.367,2.37,16.884,8.886,16.884,18.957c0,10.96-7.405,18.365-18.661,19.846v10.96
					H352.11L352.702,203.424L352.702,203.424z"/>
			</g>
		</g>
		<path style="fill:#FAB616;" d="M293.165,285.769h-27.547v-27.547c0-4.147-3.258-7.405-7.405-7.405h-30.509
			c-4.147,0-7.405,3.258-7.405,7.405v27.547h-27.547c-4.147,0-7.405,3.258-7.405,7.405v30.213c0,4.147,3.258,7.405,7.405,7.405
			h27.547v27.547c0,4.147,3.258,7.405,7.405,7.405h30.213c4.147,0,7.405-3.258,7.405-7.405v-27.547h27.547
			c4.147,0,7.405-3.258,7.405-7.405v-30.213C300.571,289.027,297.312,285.769,293.165,285.769z"/>
	</g>
</g>
<g id="Layer_1">
</g>
</svg>
