<svg id="diagnostic-treatment-match" xmlns="http://www.w3.org/2000/svg" width="83.065" height="42.669" viewBox="0 0 83.065 42.669">
  <g id="Group_16799" data-name="Group 16799">
    <g id="q2m6dB.tif" transform="translate(10.975 9.331)">
      <g id="Group_16792" data-name="Group 16792">
        <g id="Group_16786" data-name="Group 16786" transform="translate(0 2.681)">
          <path id="Path_12494" data-name="Path 12494" d="M385.236,218.926a2.229,2.229,0,0,1-2.227-2.227V199.147a2.2,2.2,0,0,1,2.227-2.227h2.727v1.737h-2.655a.442.442,0,0,0-.49.49V216.52c0,.458.139.6.6.6H400c.465,0,.526-.262.526-.49v-17.41c0-.369-.158-.526-.526-.526H397.38v-.332a1.708,1.708,0,0,0-.128-.86l-.319-.509h1.494c.16,0,.319,0,.476,0s.312,0,.466,0a8.1,8.1,0,0,1,.956.047,2.067,2.067,0,0,1,1.866,2.117v17.517a2.213,2.213,0,0,1-2.262,2.262Zm1.741-4.361v-1.344h11.46v.332a.565.565,0,0,0,0,.071l.035.07,0,.073v.8Zm0-1.931v-1.343h11.46v1.343Zm5.516-2.538a.772.772,0,0,1-.737-.566c-.393-1.093-.795-2.132-1.22-3.231l-.153-.4c-.047.115-.093.229-.138.341-.111.274-.226.556-.33.833a.747.747,0,0,1-.818.589h-2.119v-.333a1.824,1.824,0,0,0-.055-.574l-.145-.437h1.6c.118,0,.24,0,.3-.007a2.87,2.87,0,0,0,.105-.272l.006-.016.007-.015c.2-.419.374-.862.543-1.291.1-.247.194-.493.295-.733a.512.512,0,0,1,.034-.093.654.654,0,0,1,.68-.539.706.706,0,0,1,.64.477l.023.046.006.019c.349.969.666,1.807,1,2.635l.161.4.119.294,1.232-4.643a.744.744,0,0,1,.581-.648l.018,0a.8.8,0,0,1,.12-.009.692.692,0,0,1,.664.5c.193.439.385.894.57,1.335s.374.891.569,1.335l.126.273c.131.282.255.548.365.84l.01.011H398.4v1.379h-2.155a.779.779,0,0,1-.812-.539c-.3-.762-.614-1.49-.948-2.261l-.052-.121c-.217.839-.441,1.679-.659,2.5-.2.762-.4,1.519-.6,2.271a.739.739,0,0,1-.628.65l-.027,0Z" transform="translate(-383.009 -196.92)" fill="#1f2240"/>
          <path id="Path_12495" data-name="Path 12495" d="M397.792,198.441h2.288a.773.773,0,0,1,.857.858v17.409a.763.763,0,0,1-.857.823H385.495c-.643,0-.93-.287-.93-.93V199.227a.769.769,0,0,1,.823-.822h2.323v-1.072h-2.4a1.863,1.863,0,0,0-1.9,1.894V216.78a1.908,1.908,0,0,0,1.9,1.9h14.693a1.879,1.879,0,0,0,1.93-1.931V199.227a1.731,1.731,0,0,0-1.572-1.787,15.945,15.945,0,0,0-1.859-.035h-.894A1.92,1.92,0,0,1,397.792,198.441Zm-10.4,8.973h1.787c.287,0,.429-.071.5-.357.214-.572.465-1.143.68-1.716a1.262,1.262,0,0,0,.107-.286c.035.107.072.179.107.286.536,1.394,1.072,2.753,1.573,4.147.072.179.179.357.429.357a.421.421,0,0,0,.357-.394c.465-1.787.965-3.61,1.43-5.433a1.57,1.57,0,0,1,.072-.286,2.268,2.268,0,0,1,.142.322c.429,1,.858,1.966,1.252,2.967a.451.451,0,0,0,.5.322h1.824v-.715h-1.5a.344.344,0,0,1-.322-.179c-.143-.394-.321-.751-.5-1.144-.394-.894-.751-1.787-1.144-2.682a.371.371,0,0,0-.429-.286.425.425,0,0,0-.322.393l-1.394,5.256a1.89,1.89,0,0,0-.108.393c-.214-.608-.429-1.108-.643-1.644-.357-.894-.679-1.752-1-2.645-.072-.143-.143-.322-.357-.322a.325.325,0,0,0-.357.287c0,.035-.036.071-.036.107-.286.679-.536,1.394-.857,2.073-.179.5-.179.5-.715.5h-1.144A2.1,2.1,0,0,1,387.389,207.413Zm0,4.97h10.8V211.7h-10.8Zm10.8,1.251h-10.8v.679h10.832v-.465A.446.446,0,0,1,398.185,213.634Z" transform="translate(-383.089 -197.001)" fill="#1f2240"/>
        </g>
        <g id="Group_16787" data-name="Group 16787" transform="translate(0.179 2.609)">
          <path id="Path_12496" data-name="Path 12496" d="M385.458,218.837a2.2,2.2,0,0,1-2.227-2.227V199.058a2.2,2.2,0,0,1,2.227-2.227h2.728v1.737h-2.656a.443.443,0,0,0-.49.49v17.373c0,.458.14.6.6.6h14.586c.24,0,.526-.085.526-.49V199.13a.46.46,0,0,0-.514-.526c-.971.072-1.7.072-2.478.072h-.332V196.9h1.226c.15,0,.3,0,.45,0s.31,0,.466,0a8.7,8.7,0,0,1,.98.047,2.153,2.153,0,0,1,1.868,2.1v17.53a2.238,2.238,0,0,1-2.262,2.262Z" transform="translate(-383.231 -196.831)" fill="#1f2240"/>
          <path id="Path_12497" data-name="Path 12497" d="M397.836,198.423v-1.108h.894a16.254,16.254,0,0,1,1.859.035,1.81,1.81,0,0,1,1.573,1.787v17.517a1.9,1.9,0,0,1-1.931,1.931H385.538a1.863,1.863,0,0,1-1.894-1.9V199.138a1.862,1.862,0,0,1,1.894-1.894h2.4v1.072H385.61a.769.769,0,0,0-.822.822v17.373c0,.643.286.93.929.93H400.3a.78.78,0,0,0,.858-.823V199.21a.79.79,0,0,0-.858-.858C399.337,198.423,398.622,198.423,397.836,198.423Z" transform="translate(-383.311 -196.912)" fill="#1f2240"/>
        </g>
        <g id="Group_16788" data-name="Group 16788" transform="translate(3.968 7.643)">
          <path id="Path_12498" data-name="Path 12498" d="M393.47,211.267a.757.757,0,0,1-.69-.589c-.113-.293-.231-.6-.349-.9-.341-.879-.69-1.783-1.024-2.691-.043.109-.088.218-.131.325-.114.279-.231.568-.337.85a.8.8,0,0,1-.8.572c-.649.036-1.269.036-1.869.036h-.332v-1.379h1.476c.118,0,.24,0,.3-.008.026-.051.066-.163.105-.272l.006-.018c.1-.248.2-.5.3-.755.168-.426.341-.866.542-1.293a.394.394,0,0,1,.022-.062v-.019l.035-.07a.721.721,0,0,1,.655-.47.674.674,0,0,1,.678.56c.176.441.337.878.492,1.3s.32.871.5,1.314l.006.019c.077.231.168.462.266.7l1.243-4.686a.743.743,0,0,1,.589-.635.77.77,0,0,1,.133-.012.687.687,0,0,1,.661.507l.237.56c.3.721.59,1.4.9,2.106l.008.02c.066.182.15.357.238.543s.173.365.247.561h1.858v1.38h-2.155a.82.82,0,0,1-.806-.523l-.3-.69c-.248-.575-.486-1.127-.717-1.688q-.211.8-.428,1.615c-.274,1.027-.556,2.09-.824,3.137-.112.543-.447.643-.655.65A.557.557,0,0,1,393.47,211.267Z" transform="translate(-387.938 -203.083)" fill="#1f2240"/>
          <path id="Path_12499" data-name="Path 12499" d="M388.35,208.615V207.9h1.144c.536,0,.536,0,.715-.5.287-.679.536-1.394.858-2.074,0-.035.035-.071.035-.107a.424.424,0,0,1,.357-.286.349.349,0,0,1,.357.321c.357.894.644,1.752,1,2.645.179.536.428,1.072.643,1.645.035-.143.072-.287.107-.394l1.394-5.255c.035-.143.107-.357.321-.393a.361.361,0,0,1,.429.286c.394.929.751,1.787,1.144,2.681.143.393.357.751.5,1.144.035.143.107.179.321.179h1.5v.715h-1.823a.489.489,0,0,1-.5-.321c-.429-1-.858-1.967-1.251-2.968-.035-.072-.072-.143-.143-.322a.851.851,0,0,0-.071.287c-.465,1.787-.965,3.61-1.431,5.433-.035.179-.107.393-.357.393-.214.036-.357-.143-.428-.357-.536-1.394-1.073-2.753-1.573-4.147a1.189,1.189,0,0,1-.108-.286c-.035.107-.071.179-.107.286-.214.572-.464,1.144-.679,1.716a.477.477,0,0,1-.5.357C389.566,208.615,388.958,208.615,388.35,208.615Z" transform="translate(-388.018 -203.164)" fill="#1f2240"/>
        </g>
        <g id="Group_16789" data-name="Group 16789" transform="translate(3.968 17.052)">
          <rect id="Rectangle_3525" data-name="Rectangle 3525" width="11.46" height="1.344" fill="#1f2240"/>
          <path id="Path_12500" data-name="Path 12500" d="M388.35,215.863v-.679h10.8v.679Z" transform="translate(-388.018 -214.851)" fill="#1f2240"/>
        </g>
        <g id="Group_16790" data-name="Group 16790" transform="translate(3.932 18.982)">
          <rect id="Rectangle_3526" data-name="Rectangle 3526" width="11.496" height="1.344" fill="#1f2240"/>
          <path id="Path_12501" data-name="Path 12501" d="M399.137,217.581v.679H388.306v-.679Z" transform="translate(-387.974 -217.249)" fill="#1f2240"/>
        </g>
        <g id="Group_16791" data-name="Group 16791" transform="translate(5.255)">
          <path id="Path_12502" data-name="Path 12502" d="M389.536,198.794v-3.417h2.222a1.754,1.754,0,0,1,.04-.249,1.894,1.894,0,0,1,1.631-1.5l.016,0a.55.55,0,0,1,.176-.035h.715a.556.556,0,0,1,.177.035l.01,0,.015,0a1.918,1.918,0,0,1,1.659,1.647.915.915,0,0,1,.029.134c.613,0,1.255,0,1.992-.035l.346-.014v3.431Zm4.443-3.575a.539.539,0,0,0-.526.526.514.514,0,0,0,.526.526.527.527,0,1,0,0-1.051Z" transform="translate(-389.536 -193.59)" fill="#1f2240"/>
          <path id="Path_12503" data-name="Path 12503" d="M396.026,195.826c-.036-.143-.036-.286-.072-.394a1.593,1.593,0,0,0-1.394-1.394c-.035,0-.107-.036-.143-.036H393.7c-.035,0-.107.036-.142.036a1.555,1.555,0,0,0-1.359,1.251c-.035.143-.035.321-.071.5h-2.181v2.753h8.365v-2.753C397.456,195.826,396.741,195.826,396.026,195.826Zm-1.967.858a.847.847,0,0,1-.857-.858.876.876,0,1,1,.857.858Z" transform="translate(-389.617 -193.67)" fill="#1f2240"/>
        </g>
      </g>
    </g>
    <g id="Group_16796" data-name="Group 16796" transform="translate(59.128 11.618)">
      <g id="Group_16795" data-name="Group 16795">
        <g id="Group_16793" data-name="Group 16793">
          <path id="Path_12504" data-name="Path 12504" d="M446.049,216.65a3.271,3.271,0,0,1-3.228-3.228v-6.113a3.545,3.545,0,0,1,1.776-3.076,1.773,1.773,0,0,0,.9-1.5v-1.419h-.24a.917.917,0,0,1-.9-.9v-1.93a2.027,2.027,0,0,1,2.048-2.049h9.938a2.027,2.027,0,0,1,2.048,2.049v1.93a.917.917,0,0,1-.9.9h-.24v1.419a1.905,1.905,0,0,0,.914,1.5A3.753,3.753,0,0,1,460,207.289v6.133a3.271,3.271,0,0,1-3.228,3.228Zm1.262-13.881a3.547,3.547,0,0,1-1.776,3.077,1.772,1.772,0,0,0-.9,1.5v6.113a1.369,1.369,0,0,0,1.384,1.384h10.724a1.369,1.369,0,0,0,1.384-1.384v-6.149a1.9,1.9,0,0,0-.911-1.5,3.508,3.508,0,0,1-1.771-3.074v-1.419h-8.13Z" transform="translate(-442.821 -196.431)" fill="#1f2240"/>
          <path id="Path_12505" data-name="Path 12505" d="M458.069,204.6A2.238,2.238,0,0,1,457,202.814v-1.752h.572a.588.588,0,0,0,.572-.572v-1.93a1.7,1.7,0,0,0-1.716-1.716h-9.938a1.694,1.694,0,0,0-1.716,1.716v1.93a.588.588,0,0,0,.572.572h.572v1.752a2.107,2.107,0,0,1-1.072,1.787,3.21,3.21,0,0,0-1.609,2.788V213.5a2.929,2.929,0,0,0,2.9,2.9h10.724a2.93,2.93,0,0,0,2.9-2.9V207.39a3.441,3.441,0,0,0-1.68-2.788Zm.465,8.937a1.693,1.693,0,0,1-1.716,1.716H446.094a1.694,1.694,0,0,1-1.716-1.716v-6.113a2.107,2.107,0,0,1,1.072-1.787,3.212,3.212,0,0,0,1.609-2.789v-1.787h8.795v1.752a3.17,3.17,0,0,0,1.609,2.788,2.238,2.238,0,0,1,1.072,1.787v6.149Z" transform="translate(-442.902 -196.512)" fill="#1f2240"/>
        </g>
        <g id="Group_16794" data-name="Group 16794" transform="translate(4.647 8.723)">
          <path id="Path_12506" data-name="Path 12506" d="M451.571,215.116a.779.779,0,0,1-.8-.8v-1.384H449.39a.78.78,0,0,1-.8-.8v-1.894a.779.779,0,0,1,.8-.8h1.384v-1.384a.779.779,0,0,1,.8-.8h1.894a.78.78,0,0,1,.8.8v1.384h1.384a.831.831,0,0,1,.794.791l0,.02v1.88a.78.78,0,0,1-.8.8h-1.384v1.384a.78.78,0,0,1-.8.8Z" transform="translate(-448.593 -207.266)" fill="#1f2240"/>
          <path id="Path_12507" data-name="Path 12507" d="M455.727,209.859H454.01v-1.716a.45.45,0,0,0-.465-.465h-1.894a.451.451,0,0,0-.465.465v1.716h-1.716a.451.451,0,0,0-.464.465v1.894a.45.45,0,0,0,.464.465h1.716V214.4a.451.451,0,0,0,.465.465h1.894a.45.45,0,0,0,.465-.465v-1.716h1.716a.45.45,0,0,0,.465-.465V210.36A.506.506,0,0,0,455.727,209.859Z" transform="translate(-448.674 -207.347)" fill="#1f2240"/>
        </g>
      </g>
    </g>
    <g id="Group_16797" data-name="Group 16797" transform="translate(0 0.072)">
      <path id="Path_12508" data-name="Path 12508" d="M373.749,224.686a4.377,4.377,0,0,1-4.372-4.372V186.5a4.395,4.395,0,0,1,4.372-4.408h33.818a4.377,4.377,0,0,1,4.372,4.372v6.145a10.88,10.88,0,1,1,2.671,21.427,11.1,11.1,0,0,1-2.671-.327v6.608a4.377,4.377,0,0,1-4.372,4.372Zm0-40.539a2.3,2.3,0,0,0-2.278,2.314v33.817a2.28,2.28,0,0,0,2.278,2.278h33.818a2.28,2.28,0,0,0,2.278-2.278v-9.609l1.423.58a8.593,8.593,0,0,0,3.343.655,8.784,8.784,0,1,0-3.343-16.913l-1.423.58v-9.146a2.28,2.28,0,0,0-2.278-2.277Z" transform="translate(-369.377 -182.089)" fill="#1f2240"/>
      <path id="Path_12509" data-name="Path 12509" d="M407.647,224.434H373.829a4.035,4.035,0,0,1-4.04-4.039V186.577a4.066,4.066,0,0,1,4.04-4.075h33.818a4.035,4.035,0,0,1,4.04,4.039v6.578a10.7,10.7,0,0,1,3-.429,10.546,10.546,0,1,1,0,21.091,10.676,10.676,0,0,1-3-.429V220.4A4.058,4.058,0,0,1,407.647,224.434ZM373.829,183.9a2.631,2.631,0,0,0-2.609,2.645v33.818a2.624,2.624,0,0,0,2.609,2.61h33.818a2.625,2.625,0,0,0,2.61-2.61v-9.116l.965.394a8.946,8.946,0,0,0,3.467.679,9.116,9.116,0,1,0-3.467-17.552l-.965.393V186.5a2.624,2.624,0,0,0-2.61-2.609H373.829Z" transform="translate(-369.457 -182.169)" fill="#1f2240"/>
    </g>
    <g id="Group_16798" data-name="Group 16798" transform="translate(40.502)">
      <path id="Path_12510" data-name="Path 12510" d="M424.058,224.634a4.345,4.345,0,0,1-4.372-4.1v-9.882l1.423.579a8.783,8.783,0,1,0,0-16.258l-1.423.58V186.1a4.4,4.4,0,0,1,4.372-4.1h33.818a4.377,4.377,0,0,1,4.372,4.372v33.854a4.3,4.3,0,0,1-1.243,3.1,4.357,4.357,0,0,1-3.129,1.307Zm-2.278-4.206a2.306,2.306,0,0,0,2.278,2.112h33.818a2.28,2.28,0,0,0,2.278-2.278V186.444a2.28,2.28,0,0,0-2.278-2.278H424.058a2.286,2.286,0,0,0-2.278,2.108v6.351a11.154,11.154,0,0,1,2.67-.329,10.878,10.878,0,1,1-2.67,21.429Z" transform="translate(-419.686 -182)" fill="#1f2240"/>
      <path id="Path_12511" data-name="Path 12511" d="M457.957,224.382H424.139a4.035,4.035,0,0,1-4.04-3.789v-9.366l.965.394a9.116,9.116,0,1,0,0-16.874l-.965.393V186.2a4.087,4.087,0,0,1,4.04-3.789h33.818A4.035,4.035,0,0,1,462,186.452v33.854A4.02,4.02,0,0,1,457.957,224.382Zm-36.428-3.861a2.642,2.642,0,0,0,2.61,2.431h33.818a2.624,2.624,0,0,0,2.609-2.61V186.524a2.624,2.624,0,0,0-2.609-2.609H424.139a2.617,2.617,0,0,0-2.61,2.431v6.792a10.894,10.894,0,0,1,3-.429,10.546,10.546,0,1,1-3,20.663v7.149Z" transform="translate(-419.767 -182.081)" fill="#1f2240"/>
    </g>
  </g>
</svg>
