<svg id="employment-status" xmlns="http://www.w3.org/2000/svg" width="41.25" height="47" viewBox="0 0 41.25 47">
  <g id="Group_16779" data-name="Group 16779">
    <g id="Group_16778" data-name="Group 16778" transform="translate(27.413 33.163)">
      <path id="Path_12460" data-name="Path 12460" d="M615.545,234.254a6.918,6.918,0,1,1,6.918-6.919A6.927,6.927,0,0,1,615.545,234.254Zm0-12.514a5.625,5.625,0,1,0,5.625,5.625A5.631,5.631,0,0,0,615.545,221.74Z" transform="translate(-608.626 -220.417)" fill="#1f2240"/>
      <path id="Path_12461" data-name="Path 12461" d="M615.6,234.095a6.7,6.7,0,1,1,6.7-6.7A6.713,6.713,0,0,1,615.6,234.095Zm0-12.378a5.7,5.7,0,1,0,5.7,5.7A5.7,5.7,0,0,0,615.6,221.717Z" transform="translate(-608.683 -220.474)" fill="#1f2240"/>
      <path id="Path_12462" data-name="Path 12462" d="M624.527,234.515a.6.6,0,0,1-.3-.06l-2.789-.959a.961.961,0,0,1-.678-.908v-3.509a.962.962,0,0,1,1.924,0V231.9l2.131.7a.985.985,0,0,1,.621,1.239A1.035,1.035,0,0,1,624.527,234.515Z" transform="translate(-615.396 -225.021)" fill="#1f2240"/>
      <path id="Path_12463" data-name="Path 12463" d="M624.584,234.355a.4.4,0,0,1-.219-.044l-2.807-.965a.751.751,0,0,1-.526-.7v-3.509a.746.746,0,1,1,1.492,0v2.982l2.28.746a.769.769,0,0,1,.483.964A.814.814,0,0,1,624.584,234.355Z" transform="translate(-615.436 -225.095)" fill="#1f2240"/>
    </g>
    <path id="Path_12464" data-name="Path 12464" d="M575.918,224.239a.909.909,0,0,1-.918-.918v-4.167a7.479,7.479,0,0,1,7.5-7.5v.115l.011-.113h.022a2.879,2.879,0,0,0,1.919-.816,2.555,2.555,0,0,0,.814-1.908v-.04a9.559,9.559,0,0,1-5.344-8.127,3.15,3.15,0,0,1-2.2-2.974v-8.6a3.242,3.242,0,0,1,2.658-3.221,7.837,7.837,0,0,1,7.12-4.451h5.964a7.945,7.945,0,0,1,7.936,7.935v7.105a3.252,3.252,0,0,1-2.281,2.833v.895a9.659,9.659,0,0,1-5.3,8.591,4.809,4.809,0,0,0,.564,1.853,2.716,2.716,0,0,0,2.1,1.005,7.512,7.512,0,0,1,6.82,4.38l.052.115-.074.1a10.7,10.7,0,0,0-.9,1.505l-.256.513-.146-.555a5.628,5.628,0,0,0-5.448-4.181,5.492,5.492,0,0,1-.751-.062l-.923,4.277a.875.875,0,0,1-.847.7h0a.825.825,0,0,1-.725-.44l-.927-1.043.638,5.217h8.183v.436c0,.426.044.865.086,1.289l.024.238-.239.006Zm10.16-1.837.675-5.211-.937,1.054a.934.934,0,0,1-.7.318.921.921,0,0,1-.9-.72l-.923-4.28a5.483,5.483,0,0,1-.751.062,5.667,5.667,0,0,0-5.661,5.661V222.4Zm5.076-.044-.783-6.267c-.06.07-.086.1-.09.1l-.37.37v-.112a.966.966,0,0,1-.36.07.945.945,0,0,1-.617-.229l-.012-.011c-.019-.019-.072-.076-.173-.188l-.783,6.265Zm-5.515-6.7,1.306-1.541-1.437-1.583a5.448,5.448,0,0,1-.488.36Zm7.785-.009.544-2.719-.108-.081a3.682,3.682,0,0,1-.464-.382l-.015-.015-.029-.044L592,213.973Zm-3.871-1.384.055-.07,1.018-1.2.045-.045,1.743-1.993a4.138,4.138,0,0,1-.336-1.221,9.812,9.812,0,0,1-2.47.317,9.949,9.949,0,0,1-2.494-.32,4.534,4.534,0,0,1-.413,1.355Zm-7.8-13.881a7.787,7.787,0,1,0,15.575,0v-5.123c-3.348-.553-9.069-1.944-11.977-3.665a4.117,4.117,0,0,1-3.6,2.981ZM587.54,183.5a6.068,6.068,0,0,0-5.676,3.811l0,.009,0,.008a.928.928,0,0,1-.851.558,1.452,1.452,0,0,0-1.45,1.45v8.64a1.207,1.207,0,0,0,.356.842v-5.241l0-.013a.923.923,0,0,1,.916-.8c.02,0,.052,0,.094.006.072.006.18.013.315.013a2.386,2.386,0,0,0,2.532-2.653.9.9,0,0,1,1.441-.745c2.943,2.06,9.486,3.705,13.19,4.214a.913.913,0,0,1,.8,1.016v2.809a1.134,1.134,0,0,0,.444-.8v-7.017a6.106,6.106,0,0,0-6.1-6.1Z" transform="translate(-575 -181.528)" fill="#1f2240"/>
    <path id="Path_12465" data-name="Path 12465" d="M594.7,217.852l.965-4.474a6.6,6.6,0,0,0,.921.088,5.843,5.843,0,0,1,5.658,4.342,10.988,10.988,0,0,1,.921-1.535,7.292,7.292,0,0,0-6.622-4.254h0a2.933,2.933,0,0,1-2.281-1.1,5.076,5.076,0,0,1-.614-2.105,9.488,9.488,0,0,0,5.307-8.465V199.3a3.086,3.086,0,0,0,2.28-2.675v-4.517h0V189.52a7.73,7.73,0,0,0-7.719-7.718h-5.965a7.637,7.637,0,0,0-6.973,4.429,3.03,3.03,0,0,0-2.587,3.026v8.6a2.919,2.919,0,0,0,2.193,2.807,9.4,9.4,0,0,0,5.35,8.158v.176a2.784,2.784,0,0,1-.877,2.062,3.063,3.063,0,0,1-2.105.876,7.263,7.263,0,0,0-7.28,7.28v4.167a.693.693,0,0,0,.7.7H601.1c-.044-.439-.088-.877-.088-1.316v-.219h-8.158l-.745-6.1,1.4,1.579A.631.631,0,0,0,594.7,217.852Zm-2.368-8.245a3.926,3.926,0,0,0,.394,1.447l-1.841,2.105-.044.044-1.009,1.184-.175.219h0l-.044.044-3.114-3.465a4.312,4.312,0,0,0,.482-1.667,9.639,9.639,0,0,0,5.351,0v.088Zm-11.447-16.578a.708.708,0,0,0-.7.614V199.3a1.464,1.464,0,0,1-.789-1.272v-8.64a1.666,1.666,0,0,1,1.666-1.666.718.718,0,0,0,.658-.439,6.248,6.248,0,0,1,5.877-3.947h6.008a6.346,6.346,0,0,1,6.316,6.315v7.017a1.584,1.584,0,0,1-.877,1.228v-3.246a.7.7,0,0,0-.614-.789c-3.509-.482-10.218-2.105-13.288-4.254a.685.685,0,0,0-1.1.57,3.184,3.184,0,0,1-1.316,2.544A3.428,3.428,0,0,1,580.887,193.029Zm.7,7.412v-6.008a3.935,3.935,0,0,0,3.684-3.114c2.763,1.754,8.771,3.246,12.324,3.816v5.307a8,8,0,1,1-16.008,0Zm4.736,22.235h-9.6v-3.333a5.877,5.877,0,0,1,5.877-5.877,6.6,6.6,0,0,0,.921-.088l.965,4.473a.708.708,0,0,0,1.228.307l1.4-1.579Zm-.745-6.491-.746-3.333a4.777,4.777,0,0,0,.746-.57l1.71,1.886Zm2.192,6.491.877-7.017c.044.044.439.482.483.526a.742.742,0,0,0,1.009-.044c.044-.087.044-.044.044-.044s.088-.088.4-.483l.877,7.017h-3.685v.044Zm4.079-8.552-.087-.088,1.667-1.929.175.263a6.963,6.963,0,0,0,.658.526l-.658,3.289Z" transform="translate(-575.057 -181.585)" fill="#1f2240"/>
  </g>
</svg>
