<?xml version="1.0" encoding="iso-8859-1"?>
<!-- Generator: Adobe Illustrator 21.1.0, SVG Export Plug-In . SVG Version: 6.00 Build 0)  -->
<svg version="1.1" xmlns="http://www.w3.org/2000/svg" xmlns:xlink="http://www.w3.org/1999/xlink" x="0px" y="0px"
	 viewBox="0 0 512 512" style="enable-background:new 0 0 512 512;" xml:space="preserve">
<g id="fraud-database-check">
	<g>
		<g>
			<g>
				<g>
					<path style="fill:#1EB1A5;" d="M228.969,184.139h-89.388c-2.337-7.011-10.224-10.516-16.943-8.179
						c-7.011,2.337-10.516,10.224-8.179,16.943c2.337,7.011,10.224,10.516,16.943,8.179c3.798-1.461,6.719-4.09,8.179-8.179h89.388
						c2.337,0,4.382-1.753,4.382-4.382C233.643,186.184,231.598,184.139,228.969,184.139z M127.02,192.903
						c-2.337,0-4.382-1.753-4.382-4.382c0-2.337,1.753-4.382,4.382-4.382c2.337,0,4.382,1.753,4.382,4.382
						C131.694,190.858,129.357,192.903,127.02,192.903z"/>
				</g>
			</g>
		</g>
		<g>
			<g>
				<g>
					<path style="fill:#1EB1A5;" d="M228.969,277.325h-89.388c-2.337-7.011-10.224-10.516-16.943-8.179
						c-6.719,2.337-10.516,10.224-8.179,16.943c2.337,6.719,10.224,10.516,16.943,8.179c3.798-1.461,6.719-4.09,8.179-8.179h89.388
						c2.337,0,4.382-1.753,4.382-4.382C233.643,279.077,231.598,277.325,228.969,277.325z M127.02,286.088
						c-2.337,0-4.382-1.753-4.382-4.382c0-2.337,1.753-4.382,4.382-4.382c2.337,0,4.382,1.753,4.382,4.382
						C131.694,284.043,129.357,286.088,127.02,286.088z"/>
				</g>
			</g>
		</g>
		<g>
			<g>
				<g>
					<rect x="246.788" y="277.325" style="fill:#1EB1A5;" width="9.056" height="9.056"/>
				</g>
			</g>
		</g>
		<g>
			<g>
				<g>
					<rect x="246.788" y="295.144" style="fill:#1EB1A5;" width="9.056" height="9.056"/>
				</g>
			</g>
		</g>
		<g>
			<g>
				<g>
					<path style="fill:#1EB1A5;" d="M228.969,370.51h-89.388c-2.337-7.011-10.224-10.516-16.943-8.179
						c-6.719,2.337-10.516,10.224-8.179,16.943c2.337,7.011,10.224,10.516,16.943,8.179c3.798-1.461,6.719-4.09,8.179-8.179h89.388
						c2.337,0,4.382-1.753,4.382-4.382S231.598,370.51,228.969,370.51z M127.02,379.566c-2.337,0-4.382-1.753-4.382-4.382
						c0-2.629,1.753-4.382,4.382-4.382c2.337,0,4.382,1.753,4.382,4.382C131.694,377.521,129.357,379.566,127.02,379.566z"/>
				</g>
			</g>
		</g>
		<g>
			<g>
				<g>
					<rect x="246.788" y="352.691" style="fill:#1EB1A5;" width="9.056" height="9.056"/>
				</g>
			</g>
		</g>
		<g>
			<g>
				<g>
					<rect x="246.788" y="370.51" style="fill:#1EB1A5;" width="9.056" height="9.056"/>
				</g>
			</g>
		</g>
		<g>
			<g>
				<g>
					<rect x="246.788" y="388.037" style="fill:#1EB1A5;" width="9.056" height="9.056"/>
				</g>
			</g>
		</g>
		<g>
			<path style="fill:#1EB1A5;" d="M340.266,335.164h-13.437v-13.437h0.584c-9.056-1.753-17.527-4.966-25.414-9.056H100.437
				c-2.337,0-4.382-1.753-4.382-4.382v-53.458c0-2.337,1.753-4.382,4.382-4.382h144.014c-1.168-2.921-2.045-5.842-2.921-9.056
				H140.165v-13.145h98.151c-0.584-2.921-0.876-5.842-1.168-9.056H100.437c-2.337,0-4.382-1.753-4.382-4.382v-52.873
				c0-2.337,1.753-4.382,4.382-4.382h148.396c1.461-2.921,2.921-6.134,4.966-9.056H100.437c-7.303,0-13.437,5.842-13.437,13.437
				v53.458c0,7.303,5.842,13.437,13.437,13.437h13.437v13.437h-13.437c-7.303,0-13.437,5.842-13.437,13.437v52.873
				c0,7.303,5.842,13.437,13.437,13.437h13.437v13.437h-13.437c-7.303,0-13.437,5.842-13.437,13.437v53.457
				c0,7.303,5.842,13.437,13.437,13.437h239.536c7.303,0,13.437-5.842,13.437-13.437v-53.458
				C353.411,341.006,347.569,335.164,340.266,335.164z M122.638,228.541h9.056v13.437h-9.056V228.541z M309.009,321.726h9.056
				v13.437h-9.056V321.726z M140.165,321.726h159.788v13.437H140.165V321.726z M122.638,321.726h9.056v13.437h-9.056V321.726z
				 M344.648,401.474c0,2.337-1.753,4.382-4.382,4.382H100.73c-2.337,0-4.382-1.753-4.382-4.382v-53.457
				c0-2.337,1.753-4.382,4.382-4.382h239.536c2.337,0,4.382,1.753,4.382,4.382V401.474z"/>
		</g>
		<g>
			<g>
				<g>
					<rect x="264.607" y="295.144" style="fill:#1EB1A5;" width="9.056" height="9.056"/>
				</g>
			</g>
		</g>
		<g>
			<g>
				<g>
					<rect x="282.427" y="352.691" style="fill:#1EB1A5;" width="9.056" height="9.056"/>
				</g>
			</g>
		</g>
		<g>
			<g>
				<g>
					<rect x="300.246" y="352.691" style="fill:#1EB1A5;" width="9.056" height="9.056"/>
				</g>
			</g>
		</g>
		<g>
			<g>
				<g>
					<rect x="317.773" y="352.691" style="fill:#1EB1A5;" width="9.056" height="9.056"/>
				</g>
			</g>
		</g>
		<g>
			<g>
				<g>
					<rect x="264.607" y="352.691" style="fill:#1EB1A5;" width="9.056" height="9.056"/>
				</g>
			</g>
		</g>
		<g>
			<g>
				<g>
					<rect x="282.427" y="370.51" style="fill:#1EB1A5;" width="9.056" height="9.056"/>
				</g>
			</g>
		</g>
		<g>
			<g>
				<g>
					<rect x="300.246" y="370.51" style="fill:#1EB1A5;" width="9.056" height="9.056"/>
				</g>
			</g>
		</g>
		<g>
			<g>
				<g>
					<rect x="317.773" y="370.51" style="fill:#1EB1A5;" width="9.056" height="9.056"/>
				</g>
			</g>
		</g>
		<g>
			<g>
				<g>
					<rect x="264.607" y="370.51" style="fill:#1EB1A5;" width="9.056" height="9.056"/>
				</g>
			</g>
		</g>
		<g>
			<g>
				<g>
					<rect x="282.427" y="388.037" style="fill:#1EB1A5;" width="9.056" height="9.056"/>
				</g>
			</g>
		</g>
		<g>
			<g>
				<g>
					<rect x="300.246" y="388.037" style="fill:#1EB1A5;" width="9.056" height="9.056"/>
				</g>
			</g>
		</g>
		<g>
			<g>
				<g>
					<rect x="317.773" y="388.037" style="fill:#1EB1A5;" width="9.056" height="9.056"/>
				</g>
			</g>
		</g>
		<g>
			<g>
				<g>
					<rect x="264.607" y="388.037" style="fill:#1EB1A5;" width="9.056" height="9.056"/>
				</g>
			</g>
		</g>
		<path style="fill:#1EB1A5;" d="M404.24,173.039c-2.629-2.337-6.719-2.629-9.348-0.292l-61.637,61.637l-22.201-22.201
			c-2.337-2.337-6.134-2.337-9.056,0c-0.584,0.584-2.045,2.337-2.045,4.674c0,1.753,0.584,3.213,2.045,4.674l26.583,26.583
			c0.584,0.584,2.337,2.045,4.674,2.045c1.753,0,3.213-0.584,4.674-2.045l66.019-66.019
			C406.577,179.757,406.577,175.96,404.24,173.039z"/>
		<path style="fill:#FAB616;" d="M353.411,96.212c-61.637,0-111.881,50.244-111.881,111.881s50.244,111.881,111.881,111.881
			S465,269.73,465,208.093S415.048,96.212,353.411,96.212z M450.102,208.093c0,53.165-43.233,96.691-96.691,96.691
			s-96.691-43.233-96.691-96.691s43.233-96.691,96.691-96.691S450.102,154.927,450.102,208.093z"/>
	</g>
</g>
<g id="Layer_1">
</g>
</svg>
