<svg xmlns="http://www.w3.org/2000/svg" width="48.407" height="48.407" viewBox="0 0 48.407 48.407">
  <g id="Group_17631" data-name="Group 17631" transform="translate(-906.161 -182)">
    <path id="Path_12571" data-name="Path 12571" d="M81.937,184.426l1.4-8.646-7.12,6.484L70.367,174l-.763,9.917-10.044-2.8,5.467,8.137L56,193.326l9.663,2.8-4.323,8.519,8.773-4.069.763,3.179" transform="translate(851.161 9)" fill="none" stroke="#1f2240" stroke-linecap="round" stroke-linejoin="round" stroke-width="2"/>
    <path id="Path_12574" data-name="Path 12574" d="M2.667,0H24.923A2.667,2.667,0,0,1,27.59,2.667V28.356a2.667,2.667,0,0,1-2.667,2.667H2.667A2.667,2.667,0,0,1,0,28.356V2.667A2.667,2.667,0,0,1,2.667,0Z" transform="translate(925.978 198.384)" fill="none" stroke="#1f2240" stroke-linecap="round" stroke-width="2"/>
    <path id="Path_12575" data-name="Path 12575" d="M0,0H17.037" transform="translate(931.573 206.648)" fill="none" stroke="#1f2240" stroke-linecap="round" stroke-width="2"/>
    <path id="Path_12576" data-name="Path 12576" d="M0,0H17.037" transform="translate(931.573 215.294)" fill="none" stroke="#1f2240" stroke-linecap="round" stroke-width="2"/>
    <path id="Path_12577" data-name="Path 12577" d="M0,0H17.037" transform="translate(931.573 222.923)" fill="none" stroke="#1f2240" stroke-linecap="round" stroke-width="2"/>
  </g>
</svg>
