<svg xmlns="http://www.w3.org/2000/svg" width="45.713" height="47.003" viewBox="0 0 45.713 47.003">
  <g id="Group_17668" data-name="Group 17668" transform="translate(-527.208 -258.988)">
    <g id="Group_16783" data-name="Group 16783" transform="translate(528.353 260.022)">
      <path id="Path_12478" data-name="Path 12478" d="M68.818,57.832C73.308,40.695,100.49,47.817,96,64.954" transform="translate(-65.33 -48)" fill="none" stroke="#fff" stroke-linecap="round" stroke-miterlimit="10" stroke-width="2"/>
      <path id="Path_12479" data-name="Path 12479" d="M64.579,64.643c2.6.367,4.851-1.047,6.5-2.965,1.436-1.669,2.549-3.628,4.178-5.1,4.674-4.241,13.891-2.758,14.939,4.251.321,2.148.693,4.462.115,6.537" transform="translate(-64.579 -49.099)" fill="none" stroke="#fff" stroke-linecap="round" stroke-miterlimit="10" stroke-width="2"/>
      <path id="Path_12480" data-name="Path 12480" d="M64.579,70.807a20.34,20.34,0,0,0,8.705-3.151,11.124,11.124,0,0,0,3.076-3.279c.811-1.341,1.137-2.907,2.747-3.535A4.97,4.97,0,0,1,84.8,62.564c1.219,1.69,1.143,3.976.712,5.917-2.21,6.475-9.763,9.756-18.824,12.138" transform="translate(-64.579 -50.219)" fill="none" stroke="#fff" stroke-linecap="round" stroke-miterlimit="10" stroke-width="2"/>
      <path id="Path_12481" data-name="Path 12481" d="M65.948,76.451c7.682-1.264,13.464-4.478,15.7-11.338" transform="translate(-64.821 -51.03)" fill="none" stroke="#fff" stroke-linecap="round" stroke-miterlimit="10" stroke-width="2"/>
      <path id="Path_12482" data-name="Path 12482" d="M67.67,88.409c4.787-.477,9.234-1.665,12.646-5.015" transform="translate(-65.126 -54.267)" fill="none" stroke="#fff" stroke-linecap="round" stroke-miterlimit="10" stroke-width="2"/>
      <path id="Path_12483" data-name="Path 12483" d="M71.512,93.849c3.7-.25,7.014-1.373,9.484-4.361" transform="translate(-65.807 -55.346)" fill="none" stroke="#fff" stroke-linecap="round" stroke-miterlimit="10" stroke-width="2"/>
      <path id="Path_12484" data-name="Path 12484" d="M74.691,98.494a60.535,60.535,0,0,0,8.5-3.707" transform="translate(-66.369 -56.284)" fill="none" stroke="#fff" stroke-linecap="round" stroke-miterlimit="10" stroke-width="2"/>
      <path id="Path_12485" data-name="Path 12485" d="M81.182,101.526c3.376-1.6,6.051-1.891,7.555,0" transform="translate(-67.519 -57.245)" fill="none" stroke="#fff" stroke-linecap="round" stroke-miterlimit="10" stroke-width="2"/>
      <path id="Path_12486" data-name="Path 12486" d="M95.357,76.506c2.345,3.1,5.008,5.192,8.176,5.668" transform="translate(-70.028 -53.047)" fill="none" stroke="#fff" stroke-linecap="round" stroke-miterlimit="10" stroke-width="2"/>
      <path id="Path_12487" data-name="Path 12487" d="M90.362,79.95c2.882,4.093,6.235,6.846,10.433,7.2" transform="translate(-69.144 -53.657)" fill="none" stroke="#fff" stroke-linecap="round" stroke-miterlimit="10" stroke-width="2"/>
      <path id="Path_12488" data-name="Path 12488" d="M88.6,87.236a22.115,22.115,0,0,0,9.648,5.56" transform="translate(-68.832 -54.947)" fill="none" stroke="#fff" stroke-linecap="round" stroke-miterlimit="10" stroke-width="2"/>
    </g>
    <line id="Line_350" data-name="Line 350" x1="5.964" y1="5.964" transform="translate(566.249 299.319)" fill="none" stroke="#fff" stroke-miterlimit="10" stroke-width="2"/>
    <circle id="Ellipse_589" data-name="Ellipse 589" cx="11.61" cy="11.61" r="11.61" transform="translate(546.159 280.158)" fill="none" stroke="#fff" stroke-linecap="round" stroke-miterlimit="10" stroke-width="2"/>
  </g>
</svg>
