<svg xmlns="http://www.w3.org/2000/svg" width="36.403" height="33.225" viewBox="0 0 36.403 33.225">
  <g id="Group_16994" data-name="Group 16994" transform="translate(-136.014 -24.138)">
    <path id="Path_1803" data-name="Path 1803" d="M2939.366,1295.046c.115-.6.2-1.209.349-1.8a10.945,10.945,0,0,1,11.186-8.233,10.825,10.825,0,0,1,6.433,2.5c.064.052.129.1.228.181.115-.09.234-.18.351-.273a10.945,10.945,0,0,1,17.574,6.183,10.654,10.654,0,0,1-2.213,9.3,1.08,1.08,0,1,1-1.662-1.344,8.8,8.8,0,0,0-3.519-13.77,8.585,8.585,0,0,0-9.5,1.863,3.285,3.285,0,0,1-.57.473,1.063,1.063,0,0,1-1.313-.3,8.835,8.835,0,0,0-15.151,5.271,8.406,8.406,0,0,0,2.453,7c4.434,4.473,8.915,8.9,13.377,13.347.049.049.1.093.211.189.382-.4.753-.792,1.132-1.177.406-.414.815-.826,1.232-1.229a1.069,1.069,0,1,1,1.509,1.511q-1.54,1.55-3.094,3.085a1.073,1.073,0,0,1-1.681-.044q-4.14-4.123-8.278-8.248-2.867-2.858-5.736-5.716a10.882,10.882,0,0,1-3.256-6.73,2.112,2.112,0,0,0-.061-.272Z" transform="translate(-2803.352 -1260.855)" fill="#fff"/>
    <path id="Path_1804" data-name="Path 1804" d="M2972.74,1312.383c0-1.215,0-2.375,0-3.534,0-.578.162-.74.734-.74.959,0,1.919,0,2.877,0,.487,0,.662.178.662.663,0,1.183,0,2.365,0,3.589.143.007.266.018.391.018,1.066,0,2.131,0,3.2,0,.519,0,.7.184.7.71q0,1.422,0,2.842c0,.562-.161.722-.716.723-1.171,0-2.342,0-3.552,0-.007.148-.018.272-.018.4,0,1.053,0,2.107,0,3.161,0,.563-.161.729-.711.73q-1.439,0-2.877,0c-.5,0-.685-.186-.686-.687,0-1.183,0-2.365,0-3.6h-.934c-.9,0-1.8,0-2.7,0-.466,0-.64-.177-.642-.647q-.009-1.491,0-2.983c0-.453.194-.642.655-.643,1.054,0,2.108,0,3.161,0Z" transform="translate(-2811.573 -1267.386)" fill="#fff"/>
  </g>
</svg>
