<svg id="hospital-check" xmlns="http://www.w3.org/2000/svg" width="41.925" height="42.669" viewBox="0 0 41.925 42.669">
  <g id="Group_16807" data-name="Group 16807">
    <path id="Path_12518" data-name="Path 12518" d="M770.923,69.738a.791.791,0,0,1-.8-.8v-1.7h-1.7a.791.791,0,0,1-.8-.8V63.13a.791.791,0,0,1,.8-.8h1.7v-1.7a.791.791,0,0,1,.8-.8h3.314a.791.791,0,0,1,.8.8v1.7h1.7a.791.791,0,0,1,.8.8v3.314a.791.791,0,0,1-.8.8h-1.7v1.7a.791.791,0,0,1-.8.8Zm2.514-1.561v-1.7a.791.791,0,0,1,.8-.8h1.7V63.93h-1.7a.791.791,0,0,1-.8-.8v-1.7h-1.752v1.7a.791.791,0,0,1-.8.8h-1.7v1.752h1.7a.791.791,0,0,1,.8.8v1.7Z" transform="translate(-752.586 -53.916)" fill="#1f2240"/>
    <path id="Path_12519" data-name="Path 12519" d="M768.5,67.112h1.9v1.9a.588.588,0,0,0,.6.6h3.314a.588.588,0,0,0,.6-.6v-1.9h1.9a.588.588,0,0,0,.6-.6V63.2a.588.588,0,0,0-.6-.6h-1.9v-1.9a.588.588,0,0,0-.6-.6h-3.314a.588.588,0,0,0-.6.6v1.9h-1.9a.588.588,0,0,0-.6.6v3.314A.588.588,0,0,0,768.5,67.112Zm.559-3.313h1.9a.589.589,0,0,0,.6-.6V61.3h2.16v1.9a.588.588,0,0,0,.6.6h1.9v2.16h-1.9a.588.588,0,0,0-.6.6v1.9h-2.16v-1.9a.588.588,0,0,0-.6-.6h-1.9V63.8Z" transform="translate(-752.657 -53.988)" fill="#1f2240"/>
    <path id="Path_12520" data-name="Path 12520" d="M766.615,79.863a.791.791,0,0,1-.8-.8V75.75a.791.791,0,0,1,.8-.8h3.314a.791.791,0,0,1,.8.8v3.314a.791.791,0,0,1-.8.8Zm2.514-1.6V76.512h-1.752v1.752Z" transform="translate(-752.112 -57.86)" fill="#1f2240"/>
    <path id="Path_12521" data-name="Path 12521" d="M770,79.731a.588.588,0,0,0,.6-.6V75.822a.588.588,0,0,0-.6-.6h-3.314a.588.588,0,0,0-.6.6v3.314a.588.588,0,0,0,.6.6Zm-2.756-3.351h2.16v2.16h-2.16V76.38Z" transform="translate(-752.184 -57.931)" fill="#1f2240"/>
    <path id="Path_12522" data-name="Path 12522" d="M777.044,79.863a.791.791,0,0,1-.8-.8V75.75a.773.773,0,0,1,.8-.8h3.314a.791.791,0,0,1,.8.8v3.314a.791.791,0,0,1-.8.8Zm2.514-1.6V76.512H777.8v1.752Z" transform="translate(-754.833 -57.86)" fill="#1f2240"/>
    <path id="Path_12523" data-name="Path 12523" d="M776.519,75.822v3.314a.589.589,0,0,0,.6.6h3.313a.589.589,0,0,0,.6-.6V75.822a.589.589,0,0,0-.6-.6h-3.313A.567.567,0,0,0,776.519,75.822Zm1.154.559h2.16v2.16h-2.16Z" transform="translate(-754.905 -57.931)" fill="#1f2240"/>
    <path id="Path_12524" data-name="Path 12524" d="M791.2,79.863a.845.845,0,0,1-.8-.777l0-.011V75.75a.791.791,0,0,1,.8-.8h3.314a.791.791,0,0,1,.8.8v3.314a.791.791,0,0,1-.8.8Zm2.552-1.6V76.512H792v1.752Z" transform="translate(-758.527 -57.86)" fill="#1f2240"/>
    <path id="Path_12525" data-name="Path 12525" d="M791.272,79.731h3.314a.588.588,0,0,0,.6-.6V75.822a.588.588,0,0,0-.6-.6h-3.314a.588.588,0,0,0-.6.6v3.314A.64.64,0,0,0,791.272,79.731Zm.6-3.351h2.16v2.16h-2.16Z" transform="translate(-758.599 -57.931)" fill="#1f2240"/>
    <path id="Path_12526" data-name="Path 12526" d="M752.408,79.863a.791.791,0,0,1-.8-.8V75.75a.791.791,0,0,1,.8-.8h3.313a.846.846,0,0,1,.8.777l0,.011v3.325a.791.791,0,0,1-.8.8Zm2.514-1.6V76.512H753.17v1.752Z" transform="translate(-748.406 -57.86)" fill="#1f2240"/>
    <path id="Path_12527" data-name="Path 12527" d="M755.793,75.226h-3.313a.589.589,0,0,0-.6.6v3.314a.589.589,0,0,0,.6.6h3.313a.588.588,0,0,0,.6-.6V75.822A.641.641,0,0,0,755.793,75.226Zm-.6,3.314h-2.16V76.38h2.16Z" transform="translate(-748.477 -57.931)" fill="#1f2240"/>
    <path id="Path_12528" data-name="Path 12528" d="M752.408,89.637a.791.791,0,0,1-.8-.8V85.524a.791.791,0,0,1,.8-.8h3.313a.846.846,0,0,1,.8.777l0,.012v3.325a.791.791,0,0,1-.8.8Zm2.514-1.6V86.286H753.17v1.752Z" transform="translate(-748.406 -60.41)" fill="#1f2240"/>
    <path id="Path_12529" data-name="Path 12529" d="M755.793,85h-3.313a.588.588,0,0,0-.6.6V88.91a.589.589,0,0,0,.6.6h3.313a.589.589,0,0,0,.6-.6h0V85.6A.64.64,0,0,0,755.793,85Zm-.6,3.314h-2.16v-2.16h2.16Z" transform="translate(-748.477 -60.482)" fill="#1f2240"/>
    <path id="Path_12530" data-name="Path 12530" d="M752.408,99.411a.791.791,0,0,1-.8-.8V95.3a.791.791,0,0,1,.8-.8h3.313a.846.846,0,0,1,.8.777l0,.011v3.325a.791.791,0,0,1-.8.8Zm2.514-1.6V96.06H753.17v1.752Z" transform="translate(-748.406 -62.96)" fill="#1f2240"/>
    <path id="Path_12531" data-name="Path 12531" d="M755.793,94.774h-3.313a.588.588,0,0,0-.6.6v3.314a.589.589,0,0,0,.6.6h3.313a.589.589,0,0,0,.6-.6V95.37A.64.64,0,0,0,755.793,94.774Zm-.6,3.313h-2.16v-2.16h2.16Z" transform="translate(-748.477 -63.032)" fill="#1f2240"/>
    <path id="Path_12532" data-name="Path 12532" d="M748.075,91.74a.791.791,0,0,1-.8-.8V64.429a.791.791,0,0,1,.8-.8h8.77v-11a.791.791,0,0,1,.8-.8h19.139a.791.791,0,0,1,.8.8v11h8.771a.791.791,0,0,1,.8.8v16.8l-.347-.347a6.566,6.566,0,0,0-1.12-.829l-.094-.06v-14.8h-8.009v14.8l-.094.06a8.3,8.3,0,0,0-1.127.836l-.34.306V53.425H758.443V90.141h3.428V77.684a.791.791,0,0,1,.8-.8h9.159a.791.791,0,0,1,.8.8V90.141h1.7l.058.106c.055.1.107.2.158.293.16.3.312.583.506.887l.2.313Zm22.994-1.6V78.484H768.05V90.141Zm-4.579,0V78.484H763.47V90.141Zm-9.57,0V65.191h-8.008v24.95Z" transform="translate(-747.275 -51.826)" fill="#1f2240"/>
    <path id="Path_12533" data-name="Path 12533" d="M774.286,90.417H772.5V77.756a.589.589,0,0,0-.6-.6h-9.159a.588.588,0,0,0-.6.6V90.417h-3.835V53.293H776.3V80.809a8.415,8.415,0,0,1,1.155-.856V65.059h8.415V79.953a6.64,6.64,0,0,1,1.154.857V64.5a.588.588,0,0,0-.6-.6h-8.974V52.7a.588.588,0,0,0-.6-.6H757.716a.589.589,0,0,0-.6.6V63.9h-8.973a.588.588,0,0,0-.6.6V91.012a.588.588,0,0,0,.6.6h26.81C774.7,91.2,774.509,90.826,774.286,90.417Zm-17.091,0h-8.415V65.059h8.415Zm9.57,0h-3.426V78.352h3.426V90.417Zm4.58,0h-3.426V78.352h3.426Z" transform="translate(-747.347 -51.898)" fill="#1f2240"/>
    <g id="Group_16806" data-name="Group 16806" transform="translate(26.773 27.517)">
      <path id="Path_12534" data-name="Path 12534" d="M790.843,101.365a.8.8,0,0,1-.554-.246l-2.01-2.01a.746.746,0,0,1,0-1.107.834.834,0,0,1,1.144,0l1.42,1.42,4.324-4.324a.747.747,0,0,1,1.107,0l.01.012a.824.824,0,0,1,.027,1.1l-4.9,4.9A.749.749,0,0,1,790.843,101.365Z" transform="translate(-784.682 -90.569)" fill="#1f2240"/>
      <path id="Path_12535" data-name="Path 12535" d="M796.2,95.312a.6.6,0,0,0-.409-.186h0a.6.6,0,0,0-.409.186l-4.469,4.469-1.564-1.564a.63.63,0,0,0-.857,0,.543.543,0,0,0,0,.819l2.011,2.011a.6.6,0,0,0,.409.186.533.533,0,0,0,.409-.186l4.915-4.916A.625.625,0,0,0,796.2,95.312Z" transform="translate(-784.754 -90.64)" fill="#1f2240"/>
      <g id="Group_16805" data-name="Group 16805">
        <path id="Path_12536" data-name="Path 12536" d="M791.075,104.209a7.576,7.576,0,1,1,7.576-7.576A7.584,7.584,0,0,1,791.075,104.209Zm0-13.106a5.531,5.531,0,1,0,5.531,5.531A5.537,5.537,0,0,0,791.075,91.1Z" transform="translate(-783.499 -89.057)" fill="#1f2240"/>
        <path id="Path_12537" data-name="Path 12537" d="M791.146,104.077a7.373,7.373,0,1,1,7.373-7.372A7.366,7.366,0,0,1,791.146,104.077Zm0-13.107a5.734,5.734,0,1,0,5.735,5.735A5.736,5.736,0,0,0,791.146,90.971Z" transform="translate(-783.571 -89.129)" fill="#1f2240"/>
      </g>
    </g>
    <path id="Path_12538" data-name="Path 12538" d="M790.4,85.524a.791.791,0,0,1,.8-.8h3.314a.791.791,0,0,1,.8.8v2.4l-.264-.078a5.594,5.594,0,0,0-1.113-.253l-.185-.017V86.323H792v1.248l-.185.017a4.4,4.4,0,0,0-1.14.249l-.273.1Z" transform="translate(-758.527 -60.41)" fill="#1f2240"/>
    <path id="Path_12539" data-name="Path 12539" d="M791.867,87.457V86.191h2.16v1.266a5.784,5.784,0,0,1,1.154.26V85.6a.587.587,0,0,0-.6-.6h-3.314a.588.588,0,0,0-.6.6v2.122A4.566,4.566,0,0,1,791.867,87.457Z" transform="translate(-758.599 -60.482)" fill="#1f2240"/>
  </g>
</svg>
