<svg id="relationship-mapping" xmlns="http://www.w3.org/2000/svg" width="47.587" height="47" viewBox="0 0 47.587 47">
  <g id="Group_16781" data-name="Group 16781">
    <path id="Path_12466" data-name="Path 12466" d="M788.493,228c-1.456-1.23-2.689-2.261-3.971-3.3l-.208-.168.208-.169c1.281-1.041,2.514-2.073,3.971-3.3l.358-.3v2.886H790.6a.463.463,0,0,0,.493-.494v-3.891a.463.463,0,0,0-.493-.494H777.873v-1.731H790.6a2.185,2.185,0,0,1,2.212,1.729.262.262,0,0,1,.055.162v.012c-.083,1.542-.083,3.113-.083,4.633v.051l-.023.046a.392.392,0,0,0-.023.069.519.519,0,0,1-.058.144,2.18,2.18,0,0,1-2.079,1.54h-1.749V228.3Z" transform="translate(-745.281 -189.251)" fill="#1f2240"/>
    <path id="Path_12467" data-name="Path 12467" d="M792.628,223.628c-.042.083-.042.167-.083.209a1.971,1.971,0,0,1-1.883,1.423h-1.967v2.636c-1.339-1.129-2.636-2.218-3.974-3.3,1.339-1.088,2.635-2.176,3.974-3.306v2.636h1.967a.681.681,0,0,0,.711-.711v-3.891a.681.681,0,0,0-.711-.711h-12.51v-1.3h12.51a1.978,1.978,0,0,1,2.008,1.589c0,.042.041.042.041.084C792.628,220.532,792.628,222.08,792.628,223.628Z" transform="translate(-745.343 -189.312)" fill="#1f2240"/>
    <path id="Path_12468" data-name="Path 12468" d="M790.573,238.479a.88.88,0,0,1-.929-.929v-2.594a.877.877,0,0,1,.887-.887h3.933a.915.915,0,0,1,.869.634l.016.037,0,.04c.042.968.042,1.99.042,2.98v.046l-.019.042a1,1,0,0,1-1.035.631Z" transform="translate(-747.89 -193.027)" fill="#1f2240"/>
    <path id="Path_12469" data-name="Path 12469" d="M795.237,237.822a.788.788,0,0,1-.837.5h-3.766a.659.659,0,0,1-.711-.711v-2.594a.66.66,0,0,1,.669-.669h3.933a.716.716,0,0,1,.669.5C795.237,235.814,795.237,236.818,795.237,237.822Z" transform="translate(-747.952 -193.089)" fill="#1f2240"/>
    <path id="Path_12470" data-name="Path 12470" d="M779.845,235.27H771.4a2.192,2.192,0,0,1-2.184-2.142v-5.313a2.187,2.187,0,0,1,2.184-2.184h3.606v1.69h-3.439c-.381,0-.536.155-.536.536v5.1c0,.356.166.536.493.536h8.318v-2.886l.358.3c1.458,1.23,2.691,2.263,3.971,3.3l.208.169-.208.168c-1.282,1.041-2.515,2.074-3.971,3.3l-.358.3Z" transform="translate(-743.362 -191.157)" fill="#1f2240"/>
    <path id="Path_12471" data-name="Path 12471" d="M774.853,225.91v1.255h-3.222a.666.666,0,0,0-.753.753v5.1a.672.672,0,0,0,.711.753h8.536V231.14c1.339,1.13,2.636,2.218,3.974,3.306-1.339,1.087-2.636,2.176-3.974,3.3v-2.636h-8.661a1.881,1.881,0,0,1-1.758-1.088,1.905,1.905,0,0,1-.209-.837v-5.313a1.964,1.964,0,0,1,1.966-1.967Z" transform="translate(-743.425 -191.218)" fill="#1f2240"/>
    <path id="Path_12472" data-name="Path 12472" d="M736.887,222.19A.877.877,0,0,1,736,221.3v-3.974a7.171,7.171,0,0,1,7.162-7.162v.118l.011-.117h.02a2.737,2.737,0,0,0,1.824-.775,2.427,2.427,0,0,0,.773-1.812v-.033a9.292,9.292,0,0,1-5.1-7.834,3.014,3.014,0,0,1-2.1-2.844v-8.2a3.1,3.1,0,0,1,2.538-3.083,7.488,7.488,0,0,1,6.8-4.247h5.774a7.589,7.589,0,0,1,7.581,7.58V195.7a3.112,3.112,0,0,1-2.176,2.71v.846a9.224,9.224,0,0,1-5.051,8.2,4.643,4.643,0,0,0,.535,1.755,2.578,2.578,0,0,0,2,.955A8,8,0,0,1,763.4,214.6l.118.245-.265.061a1.688,1.688,0,0,0-1.11.89l-.242.484-.16-.517a5.375,5.375,0,0,0-5.148-3.822,5.335,5.335,0,0,1-.708-.058l-.878,4.07a.89.89,0,0,1-.869.7.9.9,0,0,1-.677-.307l-.876-.987.6,4.934h7.848v.217a.7.7,0,0,1-.041.254c0,.394.044.8.082,1.189l.024.239Zm9.683-1.9.638-4.927-.87.979a.9.9,0,0,1-.678.307.889.889,0,0,1-.868-.7l-.879-4.073a5.336,5.336,0,0,1-.708.058,5.4,5.4,0,0,0-5.389,5.389v2.962Zm4.84-.042-.743-5.942c-.046.054-.066.075-.071.079l-.37.371v-.117a.933.933,0,0,1-.333.061.916.916,0,0,1-.6-.221l-.012-.011c-.017-.017-.063-.067-.149-.162l-.743,5.941Zm2.134-6.4.549-2.538-.1-.071a3.492,3.492,0,0,1-.444-.366l-.015-.015-.021-.031-1.294,1.5v0Zm-7.377,0,1.226-1.446-1.357-1.5a5.009,5.009,0,0,1-.452.334Zm3.727-1.322.045-.056.972-1.141.043-.043,1.659-1.9a3.975,3.975,0,0,1-.318-1.15,9.36,9.36,0,0,1-2.347.3,9.485,9.485,0,0,1-2.369-.3,4.369,4.369,0,0,1-.391,1.277ZM742.46,199.3a7.407,7.407,0,0,0,2.175,5.244,7.319,7.319,0,0,0,5.222,2.195,7.448,7.448,0,0,0,7.44-7.44v-4.877c-3.192-.529-8.632-1.852-11.408-3.49a3.936,3.936,0,0,1-3.428,2.838Zm5.514-16.1a5.777,5.777,0,0,0-5.4,3.629l0,.008,0,.009a.9.9,0,0,1-.821.539,1.374,1.374,0,0,0-1.373,1.372V197a1.136,1.136,0,0,0,.318.776V192.8l0-.014a.89.89,0,0,1,.884-.776c.019,0,.05,0,.091.005.069,0,.171.012.3.012a3.031,3.031,0,0,0,1.3-.285,2.845,2.845,0,0,0,1.14-2.235.868.868,0,0,1,1.391-.719c2.806,1.964,9.045,3.533,12.579,4.019a.881.881,0,0,1,.774.98v2.655a1.055,1.055,0,0,0,.4-.742V189a5.814,5.814,0,0,0-5.807-5.807Z" transform="translate(-736 -181.34)" fill="#1f2240"/>
    <path id="Path_12473" data-name="Path 12473" d="M760.88,220.57h-7.823l-.711-5.816,1.339,1.506a.675.675,0,0,0,1.171-.293l.921-4.268a6.209,6.209,0,0,0,.878.084,5.625,5.625,0,0,1,5.356,3.974,1.892,1.892,0,0,1,1.255-1,7.807,7.807,0,0,0-6.611-4.309h0a2.8,2.8,0,0,1-2.176-1.046,4.851,4.851,0,0,1-.585-2.008,9.05,9.05,0,0,0,5.063-8.075v-1a2.944,2.944,0,0,0,2.176-2.552v-4.309h0v-2.469a7.374,7.374,0,0,0-7.363-7.363h-5.774a7.285,7.285,0,0,0-6.653,4.226,2.891,2.891,0,0,0-2.468,2.887v8.2a2.786,2.786,0,0,0,2.092,2.678,9.05,9.05,0,0,0,5.1,7.866v.167a2.654,2.654,0,0,1-.837,1.966,2.925,2.925,0,0,1-2.008.837,6.928,6.928,0,0,0-6.945,6.945v3.974a.661.661,0,0,0,.669.669h23.974a12.551,12.551,0,0,1-.083-1.256A.459.459,0,0,0,760.88,220.57Zm-19.246-28.283a.676.676,0,0,0-.669.585v5.4a1.4,1.4,0,0,1-.753-1.213v-8.242a1.59,1.59,0,0,1,1.59-1.59.684.684,0,0,0,.627-.418,5.96,5.96,0,0,1,5.606-3.766h5.774a6.053,6.053,0,0,1,6.024,6.025v6.694a1.511,1.511,0,0,1-.837,1.171v-3.1a.665.665,0,0,0-.585-.753c-3.347-.461-9.748-2.008-12.677-4.058a.653.653,0,0,0-1.046.544,3.037,3.037,0,0,1-1.255,2.426A3.44,3.44,0,0,1,741.634,192.288Zm.669,7.071v-5.732a3.755,3.755,0,0,0,3.515-2.971c2.636,1.673,8.367,3.1,11.756,3.64v5.062a7.636,7.636,0,1,1-15.271,0Zm10.251,8.744a3.748,3.748,0,0,0,.376,1.38l-1.757,2.009-.042.041-.962,1.129-.167.209h0l-.042.042-2.97-3.3a4.122,4.122,0,0,0,.46-1.59,9.2,9.2,0,0,0,5.1,0v.084Zm-5.732,12.468H737.66v-3.18a5.607,5.607,0,0,1,5.607-5.607,6.2,6.2,0,0,0,.878-.084l.921,4.268a.675.675,0,0,0,1.171.293l1.339-1.506Zm-.711-6.193-.711-3.18a4.594,4.594,0,0,0,.711-.543l1.631,1.8Zm2.092,6.193.837-6.695c.041.042.418.461.46.5a.708.708,0,0,0,.962-.041c.042-.084.042-.042.042-.042s.083-.083.377-.46l.837,6.694H748.2v.042Zm3.807-8.2,1.59-1.841.167.251a6.569,6.569,0,0,0,.628.5l-.669,3.1-1.673-1.925C752.094,212.412,752.052,212.412,752.01,212.37Z" transform="translate(-736.062 -181.402)" fill="#1f2240"/>
    <path id="Path_12474" data-name="Path 12474" d="M778.706,228.266a.877.877,0,0,1-.887-.887v-2.594a.83.83,0,0,1,.879-.887c.633-.042,1.315-.042,1.974-.042H782.6a.853.853,0,0,1,.929.929v2.594a.877.877,0,0,1-.887.887Z" transform="translate(-745.269 -190.763)" fill="#1f2240"/>
    <path id="Path_12475" data-name="Path 12475" d="M780.734,224.137h1.925a.64.64,0,0,1,.711.711v2.594a.661.661,0,0,1-.669.669h-3.933a.661.661,0,0,1-.669-.669v-2.594a.616.616,0,0,1,.669-.669c.627-.041,1.3-.041,1.966-.041Z" transform="translate(-745.331 -190.826)" fill="#1f2240"/>
    <path id="Path_12476" data-name="Path 12476" d="M774.09,219.827c-.663-.042-1.29-.042-1.953-.042h-1.925a.857.857,0,0,1-.887-.887v-2.593a.858.858,0,0,1,.887-.887H774.1a.853.853,0,0,1,.929.929V218.9a.9.9,0,0,1-.929.929Z" transform="translate(-743.386 -188.893)" fill="#1f2240"/>
    <path id="Path_12477" data-name="Path 12477" d="M772.2,219.63h-1.925a.637.637,0,0,1-.669-.669v-2.593a.637.637,0,0,1,.669-.669h3.891a.64.64,0,0,1,.711.711v2.552a.681.681,0,0,1-.711.711c-.669-.042-1.3-.042-1.966-.042Z" transform="translate(-743.448 -188.955)" fill="#1f2240"/>
  </g>
</svg>
