<svg xmlns="http://www.w3.org/2000/svg" viewBox="0 0 75.79 49.85"><g id="Layer_2" data-name="Layer 2"><g id="Layer_2-2" data-name="Layer 2"><path d="M22.41,25.18a13,13,0,0,1,18.13-3.53,13.25,13.25,0,0,1,5,6.55c.76,2.27,1.76,3,4.28,2.77a7.39,7.39,0,0,1,8.56,6.29V38a7.86,7.86,0,0,1-7,8.56h0c-6.8.25-13.34,0-20.14,0H13.34a8.3,8.3,0,0,1-8.81-5A12.18,12.18,0,0,1,6.8,29a8.89,8.89,0,0,1,10.57-2l2.27.76a21.45,21.45,0,0,0,2.77-2.52m0-5.29c-2.52,2.27-4.53,4.28-8.31,2.52a3.53,3.53,0,0,0-2.27,0C4,23.67,0,29,0,37.52H0V38C0,44.31,4.78,49.6,10.83,49.85h40A11.21,11.21,0,0,0,61.18,38,10.48,10.48,0,0,0,50.61,27.44c-1.76,0-2.27-.75-3-2a16.78,16.78,0,0,0-15.11-9.32,14,14,0,0,0-10.07,3.78"/><path d="M43.31,16.37a18,18,0,0,0,2.26,1.51l1-.51a8,8,0,0,1,9.82,0,9.38,9.38,0,0,1,3.27,9.32c-.25,1,.76,2.26,1,3.52a10.8,10.8,0,0,0-2.52-15.1l-.75-.76a10.58,10.58,0,0,0-6-1.76,9.56,9.56,0,0,0-8,3.78"/><path d="M66.47,22.66c-.5,0-1,1-1.51,1.51.5.5,1,1.26,1.76,1.51H74c.76,0,1.26-1,1.77-1.51-.51-.5-1-1.51-1.52-1.51h-7.8"/><path d="M34,7.05a2.77,2.77,0,0,0,0,2,56.81,56.81,0,0,0,5.54,5.54,2.14,2.14,0,0,0,1.76,0c.51-.25.51-.75.76-1a.49.49,0,0,0-.25-.76c-2-2-4-4.28-6-6h-.5c-.25-.25-.76,0-1.26.25"/><path d="M66,7.3a43.91,43.91,0,0,0-4.79,5c-.5.5-.25,1.76-.5,2.51.75,0,2,0,2.52-.5,1.76-1.51,3.27-3,4.78-4.53.25-.5.76-1,1-1.51-.25-.76-.51-1.51-1-1.51h-.25A2.12,2.12,0,0,0,66,7.3"/><path d="M51.11,0c-.75.25-1.26.76-1.26,1.26v4h0v4a1.62,1.62,0,0,0,1.26,1.25c.5,0,1.51-.75,1.51-1.25a43.4,43.4,0,0,0,0-8.06A1.63,1.63,0,0,0,51.11,0Z"/><path d="M66.22,41.29a3.19,3.19,0,0,0,1.51.25h.75c0-.75.26-1.76,0-2.26-1.26-1.76-3-3-4.78-5.29.5,3,0,5.79,2.52,7.3"/></g></g></svg>