<svg xmlns="http://www.w3.org/2000/svg" viewBox="0 0 65.69 55.47"><g id="Layer_2" data-name="Layer 2"><g id="Layer_1-2" data-name="Layer 1"><g id="fraud-database-check"><path d="M24.75,15.2H9.25a2.34,2.34,0,0,0-2.94-1.35,2.19,2.19,0,0,0-1.42,2.81A2.34,2.34,0,0,0,7.83,18a2.27,2.27,0,0,0,1.42-1.35h15.5a.73.73,0,0,0,.76-.73A.7.7,0,0,0,24.75,15.2ZM7.07,16.77A.76.76,0,1,1,7.83,16,.74.74,0,0,1,7.07,16.77Z"/><path d="M24.75,31.39H9.25A2.34,2.34,0,0,0,6.31,30a2.23,2.23,0,0,0-1.42,2.81A2.39,2.39,0,0,0,7.83,34.2a2.24,2.24,0,0,0,1.42-1.35h15.5a.73.73,0,0,0,.76-.73A.68.68,0,0,0,24.75,31.39ZM7.07,32.93a.76.76,0,1,1,.76-.76A.74.74,0,0,1,7.07,32.93Z"/><rect x="27.82" y="31.39" width="1.66" height="1.66"/><rect x="27.82" y="34.51" width="1.66" height="1.66"/><path d="M24.74,47.59H9.25a2.34,2.34,0,0,0-2.94-1.36A2.23,2.23,0,0,0,4.89,49,2.36,2.36,0,0,0,7.83,50.4,2.28,2.28,0,0,0,9.25,49h15.5a.73.73,0,0,0,.76-.69A.76.76,0,0,0,24.74,47.59ZM7.07,49.15a.75.75,0,0,1-.76-.76.71.71,0,0,1,.76-.76.76.76,0,1,1,0,1.52Z"/><rect x="27.82" y="44.47" width="1.66" height="1.66"/><rect x="27.82" y="47.59" width="1.66" height="1.66"/><rect x="27.82" y="50.49" width="1.66" height="1.66"/><path d="M44,41.57H41.72V39.08h.11a16,16,0,0,1-4.42-1.67h-35a.77.77,0,0,1-.76-.8v-9a.77.77,0,0,1,.76-.8H27.5A16.1,16.1,0,0,1,27,25.17H9.34V22.88H26.43a16.4,16.4,0,0,1-.2-1.66H2.42a.77.77,0,0,1-.76-.8v-9s.34-.76.8-.76H28.2c.25-.51.5-1.06.86-1.66H2.46C1.19,9.07,0,11.4,0,11.4v9.41a2.33,2.33,0,0,0,2.39,2.28H4.77v2.28H2.39A2.34,2.34,0,0,0,0,27.66V37a2.33,2.33,0,0,0,2.39,2.28H4.77v2.29H2.39A2.33,2.33,0,0,0,0,43.85v9.31a2.32,2.32,0,0,0,2.33,2.31H44a2.32,2.32,0,0,0,2.33-2.31V43.93A2.28,2.28,0,0,0,44,41.57ZM6.23,22.88H7.89v2.29H6.23Zm32.38,16.2h1.66v2.28H38.61Zm-29.27,0H37.16v2.28H9.34Zm-3.11,0H7.89v2.28H6.23ZM44.84,52.85a.75.75,0,0,1-.76.76H2.63a.75.75,0,0,1-.76-.76V43.57a.75.75,0,0,1,.76-.76H44.08a.75.75,0,0,1,.76.76v9.28Z"/><rect x="30.93" y="34.51" width="1.66" height="1.66"/><rect x="34.04" y="44.47" width="1.66" height="1.66"/><rect x="37.16" y="44.47" width="1.66" height="1.66"/><rect x="40.06" y="44.47" width="1.66" height="1.66"/><rect x="30.93" y="44.47" width="1.66" height="1.66"/><rect x="34.04" y="47.59" width="1.66" height="1.66"/><rect x="37.16" y="47.59" width="1.66" height="1.66"/><rect x="40.06" y="47.59" width="1.66" height="1.66"/><rect x="30.93" y="47.59" width="1.66" height="1.66"/><rect x="34.04" y="50.49" width="1.66" height="1.66"/><rect x="37.16" y="50.49" width="1.66" height="1.66"/><rect x="40.06" y="50.49" width="1.66" height="1.66"/><rect x="30.93" y="50.49" width="1.66" height="1.66"/><path d="M55.15,13.32a1.24,1.24,0,0,0-1.62-.05L42.84,24,39,20.11a1.18,1.18,0,0,0-1.57,0,1.25,1.25,0,0,0-.36.81,1.12,1.12,0,0,0,.36.82L42,26.35a1.2,1.2,0,0,0,.81.35,1.09,1.09,0,0,0,.81-.35L55.1,14.9A1.12,1.12,0,0,0,55.15,13.32Z"/><path d="M46.34,0A19.41,19.41,0,1,0,65.69,19.4,19.44,19.44,0,0,0,46.34,0ZM63.11,19.4A16.77,16.77,0,1,1,46.34,2.63,16.79,16.79,0,0,1,63.11,19.4Z"/></g></g></g></svg>