<svg xmlns="http://www.w3.org/2000/svg" viewBox="0 0 54 53.5"><g id="Layer_2" data-name="Layer 2"><g id="Layer_1-2" data-name="Layer 1"><path d="M27,36C13.58,36,0,33,0,27.22c0-4.33,7.34-6.51,12.35-7.49L16.2,4.27A5.6,5.6,0,0,1,19.55.36a5,5,0,0,1,4.66.53l2.33,1.56L29.26.82a5.69,5.69,0,0,1,5-.42A6.26,6.26,0,0,1,38,4.55l4.45,15.34C47.9,21,54,23.21,54,27.22,54,33,40.42,36,27,36ZM21.38,3a2,2,0,0,0-.75.14A2.56,2.56,0,0,0,19.11,5L14.79,22.34l-1,.17C5.94,23.91,3,26.14,3,27.22c0,2,8.47,5.78,24,5.78s24-3.82,24-5.78c0-1-2.73-3.16-10-4.57L40,22.48,35.09,5.39a3.28,3.28,0,0,0-1.9-2.2,2.66,2.66,0,0,0-2.39.21L28,5.06A2.88,2.88,0,0,1,24.94,5l-2.4-1.6A2.08,2.08,0,0,0,21.38,3Z"/><path d="M36,36.5a8.49,8.49,0,0,0-7.58,4.67,4.59,4.59,0,0,0-2.84,0A8.49,8.49,0,1,0,26.5,45a7.5,7.5,0,0,0-.06-1,1.79,1.79,0,0,1,1.12,0,7.77,7.77,0,0,0-.06,1A8.5,8.5,0,1,0,36,36.5Zm-18,14A5.5,5.5,0,1,1,23.5,45,5.51,5.51,0,0,1,18,50.5Zm18,0A5.5,5.5,0,1,1,41.5,45,5.51,5.51,0,0,1,36,50.5Z"/></g></g></svg>