<svg xmlns="http://www.w3.org/2000/svg" viewBox="0 0 39.52 49.39"><g id="Layer_2" data-name="Layer 2"><g id="Layer_1-2" data-name="Layer 1"><path d="M19.76,49.39l-9.2-12.15A19.85,19.85,0,0,1,.36,23.53l0-.14L0,19.76a19.76,19.76,0,0,1,39.52,0A19.41,19.41,0,0,1,39.25,23l-.09.54A19.87,19.87,0,0,1,29,37.24ZM3.32,23a16.89,16.89,0,0,0,8.91,11.7l.31.15,7.22,9.54L27,34.88l.31-.15A16.88,16.88,0,0,0,36.21,23l.09-.49a17.79,17.79,0,0,0,.22-2.71A16.76,16.76,0,0,0,3,19.69Zm16.44,6.75a10,10,0,1,1,10-10A10,10,0,0,1,19.76,29.78Zm0-17a7,7,0,1,0,7,7A7,7,0,0,0,19.76,12.74Z"/></g></g></svg>