<svg xmlns="http://www.w3.org/2000/svg" viewBox="0 0 52.33 52.66"><g id="Layer_2" data-name="Layer 2"><g id="Layer_1-2" data-name="Layer 1"><path d="M14.52,42.6H4.78A4.78,4.78,0,0,1,0,37.83v-33A4.78,4.78,0,0,1,4.78,0H32.11a4.78,4.78,0,0,1,4.78,4.78v9.37a1.5,1.5,0,0,1-3,0V4.78A1.78,1.78,0,0,0,32.11,3H4.78A1.78,1.78,0,0,0,3,4.78V37.83A1.78,1.78,0,0,0,4.78,39.6h9.74a1.5,1.5,0,1,1,0,3Z"/><path d="M29.3,14.15H8.37a1.5,1.5,0,0,1,0-3H29.3a1.5,1.5,0,0,1,0,3Z"/><path d="M19.3,23.77H8.37a1.5,1.5,0,1,1,0-3H19.3a1.5,1.5,0,0,1,0,3Z"/><path d="M15.3,33.14H8.37a1.5,1.5,0,1,1,0-3H15.3a1.5,1.5,0,0,1,0,3Z"/><path d="M52.33,50.54l-6.09-6.09a15.75,15.75,0,1,0-2,2.23l6,6ZM33.71,47.79A12.61,12.61,0,1,1,46.32,35.18,12.63,12.63,0,0,1,33.71,47.79Z"/></g></g></svg>