<svg xmlns="http://www.w3.org/2000/svg" viewBox="0 0 74.28 46.72"><g id="Layer_2" data-name="Layer 2"><g id="Layer_1-2" data-name="Layer 1"><path d="M74.28,23.17a3.83,3.83,0,0,0-3.81-3.84H67.14l-1.28-2.71a6.69,6.69,0,0,0-2.5-3.26c-1.1-.61-2.24-.61-4.14-.6H45.5c-1.89,0-3,0-4.14.6a4.37,4.37,0,0,0-.83.64,14.89,14.89,0,0,0-1.78,2.17,17,17,0,0,0-1-3.67,18.59,18.59,0,0,0-4.41-6.67A19.37,19.37,0,0,0,19.67,0h-.14a19.5,19.5,0,0,0-.2,39h.13a19.62,19.62,0,0,0,10.1-2.83A19.78,19.78,0,0,0,32.51,34v5.75c0,.66,0,1.76,1,2.21v2.38a2.41,2.41,0,0,0,2.4,2.41H40a2.41,2.41,0,0,0,2.41-2.41V42.14h20v2.17a2.42,2.42,0,0,0,2.42,2.41H69a2.41,2.41,0,0,0,2.41-2.41V41.93c1-.45,1-1.55,1-2.21V31.57a4.39,4.39,0,0,0-.62-2.63l-.92-2A3.82,3.82,0,0,0,74.28,23.17ZM27.22,33.86a16.31,16.31,0,0,1-7.69,1.91h-.14A16.28,16.28,0,0,1,19.6,3.22h.14A15.72,15.72,0,0,1,31.18,8.09a15.66,15.66,0,0,1,4.33,8,16.38,16.38,0,0,1,.33,3.59,16.34,16.34,0,0,1-2.93,9.16A16.39,16.39,0,0,1,27.22,33.86Zm43.25-9H67.41l2.37,5a2.68,2.68,0,0,1,.42,1.69V40h-1v4.3a.29.29,0,0,1-.28.28H64.82a.29.29,0,0,1-.28-.28V40H40.31v4.3a.29.29,0,0,1-.28.28H35.88a.28.28,0,0,1-.27-.28V40h-1c0-.11,0-.22,0-.29v-8a19.27,19.27,0,0,0,4.29-10.66l.33-.19,1.53-3.31c.16-.34.31-.63.44-.88a3.27,3.27,0,0,1,1.18-1.44c.59-.33,1.37-.34,3.09-.34H59.23c1.72,0,2.5,0,3.09.34s1,1,1.61,2.32c0,.08.76,1.59,1.58,3.33l1.73,3.61.23-3h3a1.7,1.7,0,0,1,0,3.4Z"/><path d="M41.16,30.12a3.29,3.29,0,1,0,3.28,3.29A3.29,3.29,0,0,0,41.16,30.12Z"/><path d="M63.93,30.12a3.29,3.29,0,1,0,3.28,3.29A3.29,3.29,0,0,0,63.93,30.12Z"/><path d="M63,25.14c-.68-1.43-2.9-6.1-3-6.29a3,3,0,0,0-1.12-1.36,5.14,5.14,0,0,0-2.53-.32h-10a5.18,5.18,0,0,0-2.55.32,3,3,0,0,0-1.12,1.36s-.12.23-2.08,4.35L39,26.68H63.77Zm-20.7-.6.43-.36-.1-.4c1.54-3.23,1.85-3.87,1.89-4a4.28,4.28,0,0,1,.29-.48,11.38,11.38,0,0,1,1.47-.05h10a9.67,9.67,0,0,1,1.47.05,3.32,3.32,0,0,1,.3.48l2.24,4.7Z"/><path d="M19.71,9.75a10.07,10.07,0,0,0-10,9.43H6.41l4.63,5,5-5H12.68a7.06,7.06,0,1,1,10.7,6.68l1.56,2.56A10.07,10.07,0,0,0,19.71,9.75Z"/></g></g></svg>