<svg xmlns="http://www.w3.org/2000/svg" viewBox="0 0 75.08 40.6"><g id="Layer_2" data-name="Layer 2"><g id="Layer_1-2" data-name="Layer 1"><path d="M36.37,38.16c0,.7.35,1.75,1.4,1.75.7,0,1.74-.35,1.74-1.4v-.35A19.94,19.94,0,0,1,59.39,17.94,20.93,20.93,0,0,1,69.5,20.73c.7.35,1.75.35,2.1-.35h0c0-.7,0-1.75-.7-2.09h0A22.94,22.94,0,0,0,36.37,38.16"/><path d="M36.37,38.16c0,.7.35,1.75,1.4,1.75.7,0,1.74-.35,1.74-1.4v-.35A19.94,19.94,0,0,1,59.39,17.94,20.93,20.93,0,0,1,69.5,20.73c.7.35,1.75.35,2.1-.35h0c0-.7,0-1.75-.7-2.09h0A22.94,22.94,0,0,0,36.37,38.16"/><path d="M60.09,34H59a3.31,3.31,0,1,0-.35,6.62,3.43,3.43,0,0,0,3.49-3.13h0v-1l12.9-15.69Z"/><path d="M60.09,34H59a3.31,3.31,0,1,0-.35,6.62,3.43,3.43,0,0,0,3.49-3.13h0v-1l12.9-15.69Z"/><path d="M29.3,21.15H7.37a1.5,1.5,0,0,1,0-3H29.3a1.5,1.5,0,1,1,0,3Z"/><path d="M49.89,10.15h-47a1.5,1.5,0,0,1,0-3h47a1.5,1.5,0,0,1,0,3Z"/><path d="M29.3,27.77H7.37a1.5,1.5,0,0,1,0-3H29.3a1.5,1.5,0,0,1,0,3Z"/><path d="M28.11,37.1H4.78A4.78,4.78,0,0,1,0,32.33V4.78A4.78,4.78,0,0,1,4.78,0H47.61a4.78,4.78,0,0,1,4.78,4.78v7.29a1.5,1.5,0,0,1-3,0V4.78A1.78,1.78,0,0,0,47.61,3H4.78A1.78,1.78,0,0,0,3,4.78V32.33A1.78,1.78,0,0,0,4.78,34.1H28.11a1.5,1.5,0,0,1,0,3Z"/></g></g></svg>