<svg xmlns="http://www.w3.org/2000/svg" viewBox="0 0 55.86 54.55"><g id="Layer_2" data-name="Layer 2"><g id="Layer_1-2" data-name="Layer 1"><path d="M4.74,13.15a1.5,1.5,0,0,0,1.83-1.07C8.72,3.9,16.26,1.9,22.36,3.5s11.69,7,9.55,15.22A1.5,1.5,0,0,0,33,20.55a1.73,1.73,0,0,0,.38.05,1.5,1.5,0,0,0,1.45-1.12C37.36,9.76,30.86,2.62,23.12.6S6.22,1.6,3.67,11.32A1.5,1.5,0,0,0,4.74,13.15Z"/><path d="M1.29,19.12c2.89.41,5.76-.87,8.1-3.59.61-.7,1.15-1.44,1.68-2.16a20.53,20.53,0,0,1,2.53-3A9,9,0,0,1,22.3,8.8a6.3,6.3,0,0,1,4.33,5.09l0,.19a15,15,0,0,1,.13,6,1.49,1.49,0,0,0,1,1.84,1.45,1.45,0,0,0,.41.06,1.51,1.51,0,0,0,1.44-1.1c.67-2.4.28-5-.05-7.23l0-.18A9.26,9.26,0,0,0,23.31,6,11.88,11.88,0,0,0,11.59,8.14a22.43,22.43,0,0,0-2.93,3.45c-.52.7-1,1.37-1.54,2C6,14.93,4.06,16.49,1.71,16.15a1.5,1.5,0,1,0-.42,3Z"/><path d="M3.69,34.57a1.73,1.73,0,0,0,.38,0c8.67-2.28,17.9-5.68,20.59-13.58l.05-.16c.66-3,.32-5.53-1-7.35a6.64,6.64,0,0,0-7.67-2.31A5.85,5.85,0,0,0,13,14.44c-.16.33-.32.66-.51,1a10,10,0,0,1-2.79,3,19.28,19.28,0,0,1-8.41,3,1.5,1.5,0,0,0,.48,3,22.21,22.21,0,0,0,9.68-3.54A13,13,0,0,0,15,17c.24-.39.44-.8.64-1.2.51-1,.81-1.59,1.48-1.85a3.7,3.7,0,0,1,4.15,1.27c1,1.37.83,3.38.51,4.86-2.29,6.54-11.08,9.62-18.49,11.57a1.5,1.5,0,0,0,.38,2.95Z"/><path d="M2.91,29.38c9.48-1.56,15.2-5.75,17.49-12.8a1.5,1.5,0,0,0-2.85-.93c-1.94,6-6.75,9.39-15.12,10.76a1.51,1.51,0,0,0,.24,3Z"/><path d="M18.35,30.69a1.5,1.5,0,0,0-2.12,0C13.43,33.42,9.66,34.9,4,35.46a1.5,1.5,0,0,0,.15,3h.15c4.3-.43,9.79-1.46,14-5.63A1.51,1.51,0,0,0,18.35,30.69Z"/><path d="M18.44,37.91A1.5,1.5,0,0,0,16.12,36c-2,2.45-4.82,3.72-8.79,4a1.5,1.5,0,0,0,.1,3h.1C12.31,42.66,15.88,41,18.44,37.91Z"/><path d="M20.3,40.77a1.5,1.5,0,0,0-2-.6,61,61,0,0,1-8.62,3.75,1.5,1.5,0,0,0,.5,2.92,1.52,1.52,0,0,0,.51-.09,64.63,64.63,0,0,0,9-4A1.5,1.5,0,0,0,20.3,40.77Z"/><path d="M15.05,46.13a1.5,1.5,0,1,0,1.29,2.71c4.62-2.19,5.68-.86,6-.42a1.5,1.5,0,0,0,2.11.24,1.51,1.51,0,0,0,.24-2.11C22.8,44.14,19.55,44,15.05,46.13Z"/><path d="M55.86,52.43l-6.08-6.08h0a15.59,15.59,0,0,0-21.63-22A14.16,14.16,0,0,0,26.32,26a13.4,13.4,0,0,0-1.64,1.88A15.45,15.45,0,0,0,23,30.64a15.53,15.53,0,0,0-1.38,6.06c0,.12,0,.25,0,.37A15.59,15.59,0,0,0,47.77,48.58l6,6ZM37.24,49.68A12.6,12.6,0,0,1,24.82,39.14a21.13,21.13,0,0,0,6.89,3.13,1.39,1.39,0,0,0,.35,0,1.5,1.5,0,0,0,.34-3,20,20,0,0,1-7.64-4,11.31,11.31,0,0,1,.49-2.18,14.15,14.15,0,0,0,9,4.56h.13a1.5,1.5,0,0,0,.12-3c-2.81-.23-5.41-1.71-7.88-4.5A11.73,11.73,0,0,1,28,28.47a13.49,13.49,0,0,0,8,4.76l.23,0a1.5,1.5,0,0,0,.22-3,10.66,10.66,0,0,1-6.22-3.72,12.48,12.48,0,0,1,6.93-2.08,12.61,12.61,0,0,1,0,25.22Z"/></g></g></svg>