<svg xmlns="http://www.w3.org/2000/svg" viewBox="0 0 37.5 56.29"><g id="Layer_2" data-name="Layer 2"><g id="Layer_2-2" data-name="Layer 2"><path d="M19.5,0h-2a10.2,10.2,0,0,0-10,10.31L7,17.18a1.51,1.51,0,0,0,1.5,1.61H9a9.76,9.76,0,0,0,19.42-.2,1.5,1.5,0,0,0,1.09-1.44V10.37A10.2,10.2,0,0,0,19.5,0Zm-9,10.48v-.11A7.2,7.2,0,0,1,17.5,3h2a7.2,7.2,0,0,1,7,7.37v.33c-3.28.84-6.24-.54-9.31-4.31a1.5,1.5,0,0,0-2.55.37c-1.74,4.16-3.47,4-4,3.89h-.11Zm8.19,14A6.75,6.75,0,0,1,12,18.76a5.8,5.8,0,0,1-.09-1V13.58A6.81,6.81,0,0,0,16.38,10c2.85,2.85,5.88,4.17,9.07,3.93v3.82a4.9,4.9,0,0,1-.08.94A6.74,6.74,0,0,1,18.69,24.49Z"/><path d="M36,56.29H1.5A1.5,1.5,0,0,1,0,54.79V41.42A13.9,13.9,0,0,1,13.88,27.54h0A1.49,1.49,0,0,1,15,28l3.94,4.43,3.53-4.38a1.52,1.52,0,0,1,1.17-.55h0A13.9,13.9,0,0,1,37.5,41.42V54.79A1.5,1.5,0,0,1,36,56.29Zm-33-3H34.5V41.42A10.91,10.91,0,0,0,24.34,30.56l-4.18,5.17a1.48,1.48,0,0,1-1.13.56,1.56,1.56,0,0,1-1.16-.5l-4.65-5.23A10.89,10.89,0,0,0,3,41.42Z"/><path d="M30.5,46.79h-10a1.5,1.5,0,0,1-1.5-1.5v-5a1.5,1.5,0,0,1,1.5-1.5h10a1.5,1.5,0,0,1,1.5,1.5v5A1.5,1.5,0,0,1,30.5,46.79Zm-8.5-3h7v-2H22Z"/></g></g></svg>