<?xml version="1.0" encoding="utf-8"?>
<!-- Generator: Adobe Illustrator 25.0.0, SVG Export Plug-In . SVG Version: 6.00 Build 0)  -->
<svg version="1.1" id="Layer_1" xmlns="http://www.w3.org/2000/svg" xmlns:xlink="http://www.w3.org/1999/xlink" x="0px" y="0px"
	 viewBox="0 0 37.5 56.3" style="enable-background:new 0 0 37.5 56.3;" xml:space="preserve">
<g id="Layer_2_1_">
	<g id="Layer_2-2">
		<path d="M19.5,0h-2c-5.6,0.1-10.1,4.7-10,10.3L7,17.2c-0.1,0.8,0.6,1.6,1.4,1.6c0,0,0.1,0,0.1,0H9c0.6,5.4,5.4,9.2,10.8,8.6
			c4.6-0.5,8.2-4.2,8.6-8.8c0.6-0.2,1.1-0.8,1.1-1.4v-6.8C29.6,4.7,25.1,0.1,19.5,0z M10.5,10.5v-0.1c-0.1-4,3-7.3,7-7.4h2
			c4,0.1,7.1,3.4,7,7.4v0.3c-3.3,0.8-6.2-0.5-9.3-4.3c-0.5-0.6-1.5-0.7-2.1-0.2c-0.2,0.2-0.3,0.4-0.4,0.6c-1.7,4.2-3.5,4-4,3.9h-0.1
			L10.5,10.5z M18.7,24.5c-3.3,0-6.2-2.4-6.7-5.7c-0.1-0.3-0.1-0.7-0.1-1v-4.2c1.9-0.5,3.6-1.8,4.5-3.6c2.9,2.9,5.9,4.2,9.1,3.9v3.8
			c0,0.3,0,0.6-0.1,0.9C24.9,22,22.1,24.5,18.7,24.5L18.7,24.5z"/>
		<path d="M36,56.3H1.5c-0.8,0-1.5-0.7-1.5-1.5l0,0V41.4c0-7.7,6.2-13.9,13.9-13.9l0,0c0.4,0,0.8,0.2,1.1,0.5l3.9,4.4l3.5-4.4
			c0.3-0.3,0.7-0.5,1.2-0.5l0,0c7.7,0,13.9,6.3,13.9,13.9v13.4C37.5,55.6,36.8,56.3,36,56.3L36,56.3z M3,53.3h31.5V41.4
			c0-5.7-4.4-10.5-10.2-10.9l-4.2,5.2c-0.3,0.3-0.7,0.6-1.1,0.6c-0.4,0-0.9-0.2-1.2-0.5l-4.6-5.2C7.5,30.9,3,35.7,3,41.4V53.3z"/>
		<path d="M30.5,46.8h-10c-0.8,0-1.5-0.7-1.5-1.5v-5c0-0.8,0.7-1.5,1.5-1.5h10c0.8,0,1.5,0.7,1.5,1.5v5C32,46.1,31.3,46.8,30.5,46.8
			z M22,43.8h7v-2h-7V43.8z"/>
	</g>
</g>
</svg>
