<?xml version="1.0" encoding="utf-8"?>
<!-- Generator: Adobe Illustrator 25.0.0, SVG Export Plug-In . SVG Version: 6.00 Build 0)  -->
<svg version="1.1" id="Layer_1" xmlns="http://www.w3.org/2000/svg" xmlns:xlink="http://www.w3.org/1999/xlink" x="0px" y="0px"
	 viewBox="0 0 60 60" style="enable-background:new 0 0 60 60;" xml:space="preserve">
<g>
	<path d="M49.6,34.4c-0.8-1.4-2.6-4.7-2.7-4.8c-0.3-0.4-0.6-0.9-1-1.1c-0.5-0.2-1.1-0.2-2.2-0.2h-8.9c-1.1,0-1.7,0-2.2,0.2
		c-0.5,0.2-0.8,0.7-1,1.1c-0.1,0.1-0.7,1.2-1.8,3.4l-1.6,3l22.4,0L49.6,34.4z M31.7,33.9l-0.1-0.4c0.7-1.3,1.5-2.8,1.6-2.9
		c0.1-0.2,0.2-0.3,0.2-0.3c0.2,0,0.8,0,1.4,0h8.9c0.6,0,1.2,0,1.3,0c0,0,0.1,0.1,0.2,0.3c0.1,0.2,1.1,1.9,1.8,3.3L31.7,33.9z"/>
	<path d="M58.8,33.3c0-1.9-1.5-3.4-3.4-3.4h-2.9l-1.1-2.4c-0.6-1.3-1.2-2.3-2.2-2.9c-1-0.6-2-0.6-3.7-0.5H33.3c-1.3,0-2.2,0-2.9,0.2
		c0.3-1.2,0.5-2.4,0.5-3.6c0-8.2-6.6-14.8-14.8-14.8c-8.2,0-14.8,6.6-14.8,14.8c0,8.2,6.7,14.8,14.8,14.8c0.9,0,1.7-0.1,2.5-0.2
		c0.6-0.1,1.3-0.3,1.9-0.5c0.5,1,1.5,1.7,2.7,1.9l0,0.1h0l-0.8,1.6c-0.5,1.1-0.6,1.3-0.6,2.3v7.2c0,0.5,0,1.6,0.8,2v2.1
		c0,1.2,1,2.2,2.2,2.2h3.7c1.2,0,2.2-1,2.2-2.2v-1.8h17.5v1.8c0,1.2,1,2.2,2.2,2.2H54c1.2,0,2.2-1,2.2-2.2v-2c0.8-0.4,0.8-1.4,0.8-2
		v-7.2c0-1,0-1.2-0.6-2.3l-0.8-1.7C57.4,36.5,58.8,35.1,58.8,33.3z M20.1,32.8c-0.3,0.1-0.6,0.2-0.9,0.3c-1,0.3-2.1,0.4-3.2,0.4
		C9,33.5,3.3,27.8,3.3,20.7C3.3,13.6,9,7.9,16.1,7.9c7.1,0,12.8,5.8,12.8,12.8c0,3.6-1.5,6.9-3.9,9.2c-0.6,0.6-1.2,1.1-1.9,1.5
		C22.2,32,21.2,32.5,20.1,32.8z M55.3,34.7h-2.8l2.1,4.5C55,40,55,40,55,40.7v7.4h-0.8v3.8c0,0.1-0.1,0.2-0.2,0.2h-3.6
		c-0.1,0-0.2-0.1-0.2-0.2v-3.8H28.7v3.8c0,0.1-0.1,0.2-0.2,0.2h-3.7c-0.1,0-0.2-0.1-0.2-0.2v-3.8h-0.8v-7.4c0-0.7,0-0.7,0.4-1.5
		l2.1-4.4h-0.1l0,0h-2.7c-0.5,0-0.9-0.2-1.2-0.6c1.2-0.6,2.4-1.3,3.4-2.2h1.9l1.6-3.5c0.5-1.1,0.9-1.7,1.4-2
		c0.5-0.3,1.2-0.3,2.7-0.3h12.1c1.5,0,2.2,0,2.7,0.3c0.5,0.3,0.9,0.9,1.4,2l3,6.2l0.2-2.7h2.6c0.8,0,1.4,0.6,1.4,1.4
		C56.8,34.1,56.1,34.7,55.3,34.7z"/>
	<path d="M30.2,39c-1.9,0-3.4,1.5-3.4,3.4s1.5,3.4,3.4,3.4c1.9,0,3.4-1.5,3.4-3.4S32.1,39,30.2,39z"/>
	<path d="M48.2,39c-1.9,0-3.4,1.5-3.4,3.4s1.5,3.4,3.4,3.4c1.9,0,3.4-1.5,3.4-3.4S50.1,39,48.2,39z"/>
	<path d="M16.5,11.7c-4.7,0-8.6,3.7-8.9,8.4H4.8l4.1,4.4l4.4-4.4h-3c0.3-3.2,3-5.7,6.2-5.7c3.5,0,6.3,2.8,6.3,6.3
		c0,2.2-1.1,4.2-3,5.4l1.4,2.3c2.7-1.6,4.3-4.5,4.3-7.6C25.5,15.7,21.5,11.7,16.5,11.7z"/>
</g>
</svg>
