<?xml version="1.0" encoding="utf-8"?>
<!-- Generator: Adobe Illustrator 25.0.0, SVG Export Plug-In . SVG Version: 6.00 Build 0)  -->
<svg version="1.1" id="Layer_1" xmlns="http://www.w3.org/2000/svg" xmlns:xlink="http://www.w3.org/1999/xlink" x="0px" y="0px"
	 viewBox="0 0 60 60" style="enable-background:new 0 0 60 60;" xml:space="preserve">
<g>
	<g>
		<g>
			<path d="M19.8,48.1c0,0.7,0.3,1.7,1.4,1.7c0.7,0,1.7-0.3,1.7-1.4v-0.3c0-11.2,8.7-20.2,19.9-20.2c3.5,0,7,1,10.1,2.8
				c0.7,0.3,1.7,0.3,2.1-0.3l0,0c0-0.7,0-1.7-0.7-2.1l0,0c-3.5-2.1-7.7-3.1-11.5-3.1C29.9,25,19.8,35.5,19.8,48.1"/>
		</g>
		<g>
			<path d="M19.8,48.1c0,0.7,0.3,1.7,1.4,1.7c0.7,0,1.7-0.3,1.7-1.4v-0.3c0-11.2,8.7-20.2,19.9-20.2c3.5,0,7,1,10.1,2.8
				c0.7,0.3,1.7,0.3,2.1-0.3l0,0c0-0.7,0-1.7-0.7-2.1l0,0c-3.5-2.1-7.7-3.1-11.5-3.1C29.9,25,19.8,35.5,19.8,48.1"/>
		</g>
		<g>
			<path d="M43.5,43.9c-0.3,0-0.7,0-1,0c-2.1,0-3.5,1.4-3.5,3.1c0,2.1,1.4,3.5,3.1,3.5s3.5-1.4,3.5-3.1l0,0c0-0.3,0-0.7,0-1
				l12.9-15.7L43.5,43.9z"/>
		</g>
		<g>
			<path d="M43.5,43.9c-0.3,0-0.7,0-1,0c-2.1,0-3.5,1.4-3.5,3.1c0,2.1,1.4,3.5,3.1,3.5s3.5-1.4,3.5-3.1l0,0c0-0.3,0-0.7,0-1
				l12.9-15.7L43.5,43.9z"/>
		</g>
	</g>
	<g>
		<path d="M22.7,31H9.8c-0.8,0-1.5-0.7-1.5-1.5S9,28,9.8,28h12.9c0.8,0,1.5,0.7,1.5,1.5S23.5,31,22.7,31z"/>
	</g>
	<g>
		<path d="M49.3,20h-44c-0.8,0-1.5-0.7-1.5-1.5S4.5,17,5.3,17h44c0.8,0,1.5,0.7,1.5,1.5S50.1,20,49.3,20z"/>
	</g>
	<g>
		<path d="M18.7,37.7H9.8c-0.8,0-1.5-0.7-1.5-1.5s0.7-1.5,1.5-1.5h8.9c0.8,0,1.5,0.7,1.5,1.5S19.5,37.7,18.7,37.7z"/>
	</g>
	<g>
		<path d="M16.5,47H7.2c-2.6,0-4.8-2.1-4.8-4.8V14.7c0-2.6,2.1-4.8,4.8-4.8H47c2.6,0,4.8,2.1,4.8,4.8V22c0,0.8-0.7,1.5-1.5,1.5
			s-1.5-0.7-1.5-1.5v-7.3c0-1-0.8-1.8-1.8-1.8H7.2c-1,0-1.8,0.8-1.8,1.8v27.6c0,1,0.8,1.8,1.8,1.8h9.3c0.8,0,1.5,0.7,1.5,1.5
			S17.4,47,16.5,47z"/>
	</g>
</g>
</svg>
