<?xml version="1.0" encoding="utf-8"?>
<!-- Generator: Adobe Illustrator 25.0.0, SVG Export Plug-In . SVG Version: 6.00 Build 0)  -->
<svg version="1.1" id="Layer_1" xmlns="http://www.w3.org/2000/svg" xmlns:xlink="http://www.w3.org/1999/xlink" x="0px" y="0px"
	 viewBox="0 0 60 60" style="enable-background:new 0 0 60 60;" xml:space="preserve">
<g>
	<g>
		<g>
			<path d="M18.2,49.9H8.4c-2.6,0-4.8-2.1-4.8-4.8V12.1c0-2.6,2.1-4.8,4.8-4.8h27.3c2.6,0,4.8,2.1,4.8,4.8v3.4
				c0,0.8-0.7,1.5-1.5,1.5s-1.5-0.7-1.5-1.5v-3.4c0-1-0.8-1.8-1.8-1.8H8.4c-1,0-1.8,0.8-1.8,1.8v33.1c0,1,0.8,1.8,1.8,1.8h9.7
				c0.8,0,1.5,0.7,1.5,1.5S19,49.9,18.2,49.9z"/>
		</g>
		<g>
			<path d="M25,21.5H12c-0.8,0-1.5-0.7-1.5-1.5c0-0.8,0.7-1.5,1.5-1.5H25c0.8,0,1.5,0.7,1.5,1.5C26.5,20.8,25.8,21.5,25,21.5z"/>
		</g>
		<g>
			<path d="M18,31.1H12c-0.8,0-1.5-0.7-1.5-1.5s0.7-1.5,1.5-1.5H18c0.8,0,1.5,0.7,1.5,1.5S18.8,31.1,18,31.1z"/>
		</g>
		<g>
			<path d="M16,40.5H12c-0.8,0-1.5-0.7-1.5-1.5s0.7-1.5,1.5-1.5H16c0.8,0,1.5,0.7,1.5,1.5S16.8,40.5,16,40.5z"/>
		</g>
	</g>
	<path d="M56,50.9l-6.1-6.1c1.9-2.6,3.1-5.8,3.1-9.3c0-8.6-7-15.6-15.6-15.6s-15.6,7-15.6,15.6s7,15.6,15.6,15.6
		c4.1,0,7.7-1.6,10.5-4.1l6,6L56,50.9z M37.4,48.1c-7,0-12.6-5.7-12.6-12.6s5.7-12.6,12.6-12.6S50,28.6,50,35.5S44.3,48.1,37.4,48.1
		z"/>
</g>
</svg>
