<?xml version="1.0" encoding="utf-8"?>
<!-- Generator: Adobe Illustrator 25.0.0, SVG Export Plug-In . SVG Version: 6.00 Build 0)  -->
<svg version="1.1" id="Layer_1" xmlns="http://www.w3.org/2000/svg" xmlns:xlink="http://www.w3.org/1999/xlink" x="0px" y="0px"
	 viewBox="0 0 39.5 49.4" style="enable-background:new 0 0 39.5 49.4;" xml:space="preserve">
<g id="Layer_2_1_">
	<g id="Layer_1-2">
		<path d="M19.8,49.4l-9.2-12.2c-5.3-2.8-9-7.8-10.2-13.7v-0.1L0,19.8C0,8.8,8.8,0,19.8,0c10.9,0,19.8,8.8,19.8,19.8
			c0,1.1-0.1,2.2-0.3,3.2l-0.1,0.5C38,29.4,34.3,34.4,29,37.2L19.8,49.4z M3.3,23c1,5.1,4.3,9.4,8.9,11.7l0.3,0.2l7.2,9.5l7.2-9.5
			l0.3-0.2c4.6-2.3,7.9-6.7,8.9-11.7l0.1-0.5c0.1-0.9,0.2-1.8,0.2-2.7C36.6,10.5,29.1,3,19.8,3C10.6,3,3,10.4,3,19.7c0,0,0,0,0,0
			L3.3,23z M19.8,29.8c-5.5,0-10-4.5-10-10s4.5-10,10-10s10,4.5,10,10C29.8,25.3,25.3,29.8,19.8,29.8C19.8,29.8,19.8,29.8,19.8,29.8
			L19.8,29.8z M19.8,12.8c-3.9,0-7,3.1-7,7s3.1,7,7,7s7-3.1,7-7C26.8,15.9,23.6,12.7,19.8,12.8C19.8,12.7,19.8,12.7,19.8,12.8
			L19.8,12.8z"/>
	</g>
</g>
</svg>
