<?xml version="1.0" encoding="utf-8"?>
<!-- Generator: Adobe Illustrator 25.0.0, SVG Export Plug-In . SVG Version: 6.00 Build 0)  -->
<svg version="1.1" id="Layer_1" xmlns="http://www.w3.org/2000/svg" xmlns:xlink="http://www.w3.org/1999/xlink" x="0px" y="0px"
	 viewBox="0 0 55 52.5" style="enable-background:new 0 0 55 52.5;" xml:space="preserve">
<g>
	<g>
		<path d="M6.7,30.5c-0.4,0-0.7-0.1-1-0.4c-0.4-0.4-0.5-1-0.2-1.6l3.1-6.2l-7.1-2.1c-0.6-0.2-0.9-0.6-1-1.2s0.3-1.1,0.8-1.3l6.6-3
			l-4-6C3.6,8.3,3.6,7.7,4,7.3c0.3-0.5,0.9-0.7,1.5-0.5l7.4,2.1l0.6-7.2c0-0.6,0.4-1.1,1-1.2c0.6-0.2,1.1,0.1,1.5,0.5l5.2,7.4
			c0.4,0.6,0.3,1.5-0.3,1.9c-0.6,0.4-1.5,0.3-1.9-0.3l-3.1-4.3l-0.4,5.1c0,0.4-0.2,0.8-0.6,1s-0.8,0.3-1.2,0.2l-5.4-1.5l2.8,4.2
			c0.2,0.3,0.3,0.8,0.2,1.1c-0.1,0.4-0.4,0.7-0.8,0.9l-4.7,2.1l5.1,1.5c0.4,0.1,0.7,0.4,0.9,0.8c0.2,0.4,0.1,0.8,0,1.2l-2.1,4.1
			l4.3-2c0.7-0.3,1.5,0,1.8,0.7c0.3,0.7,0,1.5-0.7,1.8l-7.9,3.7C7.1,30.5,6.9,30.5,6.7,30.5z"/>
	</g>
	<g>
		<path d="M48.7,52.8H21.4c-2.6,0-4.8-2.1-4.8-4.8V16.5c0-2.6,2.1-4.8,4.8-4.8h27.3c2.6,0,4.8,2.1,4.8,4.8V48
			C53.5,50.7,51.4,52.8,48.7,52.8z M21.4,14.7c-1,0-1.8,0.8-1.8,1.8V48c0,1,0.8,1.8,1.8,1.8h27.3c1,0,1.8-0.8,1.8-1.8V16.5
			c0-1-0.8-1.8-1.8-1.8H21.4z"/>
	</g>
	<g>
		<path d="M45.9,24.8H25c-0.8,0-1.5-0.7-1.5-1.5s0.7-1.5,1.5-1.5h20.9c0.8,0,1.5,0.7,1.5,1.5S46.8,24.8,45.9,24.8z"/>
	</g>
	<g>
		<path d="M45.9,35.5H25c-0.8,0-1.5-0.7-1.5-1.5s0.7-1.5,1.5-1.5h20.9c0.8,0,1.5,0.7,1.5,1.5S46.8,35.5,45.9,35.5z"/>
	</g>
	<g>
		<path d="M45.9,44.8H25c-0.8,0-1.5-0.7-1.5-1.5s0.7-1.5,1.5-1.5h20.9c0.8,0,1.5,0.7,1.5,1.5S46.8,44.8,45.9,44.8z"/>
	</g>
</g>
</svg>
