<?xml version="1.0" encoding="utf-8"?>
<!-- Generator: Adobe Illustrator 25.0.0, SVG Export Plug-In . SVG Version: 6.00 Build 0)  -->
<svg version="1.1" id="Layer_1" xmlns="http://www.w3.org/2000/svg" xmlns:xlink="http://www.w3.org/1999/xlink" x="0px" y="0px"
	 viewBox="0 0 60 60" style="enable-background:new 0 0 60 60;" xml:space="preserve">
<g>
	<path d="M22.3,33.3c3.8-5.7,11.3-7.1,17-3.3c2.1,1.4,3.8,3.5,4.7,6.1c0.7,2.1,1.7,2.8,4,2.6c3.8-0.7,7.3,1.9,8,5.9
		c0,0.2,0,0.5,0,0.7c0.5,4-2.6,7.5-6.6,8l0,0c-6.4,0.2-12.5,0-18.9,0l0,0c-5.7,0-11.1,0-16.7,0C10.3,53.9,7,52,5.6,48.7
		c-1.7-4-0.7-8.5,2.1-11.8c2.6-2.8,6.6-3.5,9.9-1.9c0.7,0.2,1.4,0.5,2.1,0.7C20.4,35.2,21.1,34.5,22.3,33.3 M22.3,28.4
		c-2.4,2.1-4.2,4-7.8,2.4c-0.7-0.2-1.4-0.2-2.1,0C5.1,31.9,1.3,36.9,1.3,44.9l0,0v0.5c0,5.9,4.5,10.8,10.1,11.1c0.2,0,0.7,0,0.9,0
		h17.7h11.1h0.7c2.4,0,4.7,0,7.1,0c5.7-0.5,9.9-5.2,9.7-11.1c0-5.4-4.2-9.9-9.9-9.9c-1.7,0-2.1-0.7-2.8-1.9
		c-2.6-5.4-8.3-8.7-14.1-8.7C28.5,24.6,24.9,26,22.3,28.4"/>
	<path d="M22.9,25.1c0.9,0.1,1.6,0.3,2.7,0.3l0.6-0.9c1.6-3.4,5.1-5.3,8.6-4.7c3.5,0.7,6.3,3.2,7.3,6.6c0.3,1,1.7,1.6,2.6,2.6
		c0.7-6.1-3.6-11.5-9.4-12.1c-0.7-0.2-0.7-0.2-1-0.3c-2.1-0.3-4.4,0.4-6.2,1.3C25.3,19.5,23.3,22,22.9,25.1"/>
	<path d="M44.3,17.6c-0.4,0.2-0.4,1.4-0.6,2c0.7,0.2,1.5,0.6,2.3,0.5c1.1-0.6,2.2-1.2,3.3-1.8l0.9-0.5c0.7-0.4,1.6-0.8,2.2-1.2
		c0.7-0.4,0.6-1.5,0.8-2.2c-0.7-0.2-1.6-0.9-2-0.6c-1.1,0.6-2.2,1.2-3.3,1.8C46.7,16.3,45.2,17.1,44.3,17.6"/>
	<path d="M10.3,21.3c0,0.6,0.4,1.2,1,1.8c2.5,0.9,4.9,1.7,7.5,2.2c0.3,0.1,1.2-0.4,1.6-0.8c0.3-0.5,0.1-0.9,0.2-1.2
		s-0.4-0.7-0.6-0.5c-2.7-0.8-5.6-1.9-8.2-2.5c-0.2,0.1-0.2,0.1-0.4,0.2C11,20.4,10.6,20.8,10.3,21.3"/>
	<path d="M56.7,28.2c-0.2,0.5-0.8,1-1.5,1.3c-2.7,0-5.2-0.1-7.8-0.4c-0.4,0-1-0.8-1.2-1.3c-0.1-0.5,0.2-0.9,0.2-1.2
		c0-0.4,0.6-0.5,0.7-0.3c2.8,0.2,5.9,0.1,8.5,0.5c0.2,0.2,0.2,0.2,0.3,0.4C56.4,27.1,56.5,27.6,56.7,28.2"/>
	<path d="M38.6,6.3c-0.8,2.2-1.3,4.4-1.8,6.7c-0.2,0.7,0.6,1.7,0.8,2.5c0.7-0.4,1.8-1,2-1.6c0.8-2.2,1.4-4.2,2.1-6.3
		c0-0.6,0.2-1.2,0.2-1.8c-0.6-0.5-1.2-1.1-1.6-0.9l-0.2,0.1C39.2,5.4,38.8,5.7,38.6,6.3"/>
	<path d="M23,7c-0.5,0.6-0.7,1.3-0.5,1.7c0.6,1.1,1.2,2.2,1.9,3.5l0,0c0.6,1.1,1.2,2.2,1.9,3.5c0.2,0.4,1.3,0.7,1.7,0.5
		c0.4-0.2,1-1.4,0.7-1.8c-1.1-2.6-2.3-4.8-3.8-7.1C24.7,6.9,23.7,6.6,23,7L23,7z"/>
</g>
</svg>
