<?xml version="1.0" encoding="utf-8"?>
<!-- Generator: Adobe Illustrator 25.0.0, SVG Export Plug-In . SVG Version: 6.00 Build 0)  -->
<svg version="1.1" id="Layer_1" xmlns="http://www.w3.org/2000/svg" xmlns:xlink="http://www.w3.org/1999/xlink" x="0px" y="0px"
	 viewBox="0 0 55.9 54.5" style="enable-background:new 0 0 55.9 54.5;" xml:space="preserve">
<g id="Layer_2_1_">
	<g id="Layer_1-2">
		<path d="M4.7,13.1c0.8,0.2,1.6-0.3,1.8-1.1c2.2-8.2,9.7-10.2,15.8-8.6s11.7,7,9.5,15.2c-0.2,0.8,0.3,1.6,1.1,1.8c0,0,0,0,0,0
			c0.1,0,0.3,0,0.4,0c0.7,0,1.3-0.5,1.5-1.1c2.5-9.7-4-16.9-11.7-18.9S6.2,1.6,3.7,11.3C3.5,12.1,3.9,12.9,4.7,13.1z"/>
		<path d="M1.3,19.1c2.9,0.4,5.8-0.9,8.1-3.6c0.6-0.7,1.1-1.4,1.7-2.2c0.7-1.1,1.6-2.1,2.5-3c2.4-2,5.7-2.6,8.7-1.6
			c2.3,0.7,4,2.7,4.3,5.1v0.2c0.4,2,0.5,4,0.1,6c-0.2,0.8,0.2,1.6,1,1.8c0.1,0,0.3,0.1,0.4,0.1c0.7,0,1.3-0.5,1.4-1.1
			c0.7-2.4,0.3-5,0-7.2v-0.2C29.1,10,26.6,7.1,23.3,6c-4-1.4-8.5-0.6-11.7,2.1c-1.1,1-2.1,2.2-2.9,3.4c-0.5,0.7-1,1.4-1.5,2
			c-1.1,1.3-3.1,2.9-5.4,2.6C0.9,16,0.1,16.6,0,17.4C-0.1,18.3,0.5,19,1.3,19.1L1.3,19.1L1.3,19.1z"/>
		<path d="M3.7,34.6c0.1,0,0.3,0,0.4,0C12.7,32.3,22,28.9,24.7,21l0-0.2c0.7-3,0.3-5.5-1-7.4c-1.8-2.4-4.9-3.3-7.7-2.3
			c-1.4,0.6-2.5,1.8-3,3.3c-0.2,0.3-0.3,0.7-0.5,1c-0.7,1.2-1.7,2.2-2.8,3c-2.5,1.6-5.4,2.7-8.4,3c-0.8,0.1-1.4,0.9-1.3,1.7
			c0.1,0.8,0.9,1.4,1.7,1.3c3.5-0.4,6.8-1.6,9.7-3.5c1.4-1,2.6-2.4,3.5-3.9c0.2-0.4,0.4-0.8,0.6-1.2c0.5-1,0.8-1.6,1.5-1.9
			c1.5-0.5,3.2,0,4.1,1.3c1,1.4,0.8,3.4,0.5,4.9c-2.3,6.5-11.1,9.6-18.5,11.6c-0.8,0.2-1.3,1-1.1,1.8C2.4,34.1,3,34.6,3.7,34.6
			L3.7,34.6z"/>
		<path d="M2.9,29.4c9.5-1.6,15.2-5.8,17.5-12.8c0.2-0.8-0.2-1.6-1-1.9c-0.8-0.2-1.5,0.2-1.8,0.9c-1.9,6-6.8,9.4-15.1,10.8
			c-0.8,0.1-1.4,0.9-1.2,1.7c0.1,0.7,0.7,1.3,1.5,1.3L2.9,29.4z"/>
		<path d="M18.4,30.7c-0.6-0.6-1.5-0.6-2.1,0c-2.8,2.7-6.6,4.2-12.2,4.8c-0.8,0-1.5,0.7-1.4,1.6s0.7,1.5,1.6,1.4l0,0h0.2
			c4.3-0.4,9.8-1.5,14-5.6C18.9,32.3,18.9,31.3,18.4,30.7C18.4,30.7,18.4,30.7,18.4,30.7z"/>
		<path d="M18.4,37.9c0.5-0.6,0.4-1.6-0.2-2.1c-0.6-0.5-1.6-0.4-2.1,0.2l0,0c-2,2.5-4.8,3.7-8.8,4c-0.8,0-1.5,0.7-1.5,1.5
			c0,0.8,0.7,1.5,1.6,1.5h0.1C12.3,42.7,15.9,41,18.4,37.9z"/>
		<path d="M20.3,40.8c-0.4-0.7-1.3-1-2-0.6c-2.8,1.5-5.7,2.7-8.6,3.8c-0.8,0.3-1.2,1.1-0.9,1.9c0.2,0.6,0.8,1,1.4,1
			c0.2,0,0.3,0,0.5-0.1c3.1-1.1,6.1-2.4,9-4C20.4,42.4,20.7,41.5,20.3,40.8z"/>
		<path d="M15.1,46.1c-0.7,0.4-1.1,1.3-0.7,2c0.4,0.7,1.3,1.1,2,0.7c4.6-2.2,5.7-0.9,6-0.4c0.5,0.6,1.5,0.8,2.1,0.2c0,0,0,0,0,0
			c0.6-0.5,0.8-1.5,0.2-2.1C22.8,44.1,19.5,44,15.1,46.1z"/>
		<path d="M55.9,52.4l-6.1-6.1l0,0c5.2-6.9,3.9-16.6-3-21.8c-5.5-4.2-13.1-4.2-18.6-0.2c-0.7,0.5-1.3,1-1.8,1.7
			c-0.6,0.6-1.2,1.2-1.6,1.9c-0.7,0.9-1.2,1.8-1.7,2.8c-0.9,1.9-1.3,4-1.4,6.1c0,0.1,0,0.2,0,0.4c0,8.6,6.9,15.6,15.5,15.6
			c3.9,0,7.7-1.5,10.6-4.1l6,6L55.9,52.4z M37.2,49.7c-6.2,0-11.4-4.5-12.4-10.5c2.1,1.4,4.4,2.5,6.9,3.1c0.1,0,0.2,0,0.3,0
			c0.8,0.1,1.6-0.5,1.7-1.3c0.1-0.8-0.5-1.6-1.3-1.7c-2.8-0.8-5.4-2.1-7.6-4c0.1-0.7,0.3-1.5,0.5-2.2c2.3,2.6,5.5,4.2,9,4.6h0.1
			c0.8,0,1.5-0.6,1.6-1.4c0-0.8-0.6-1.5-1.4-1.6c-2.8-0.2-5.4-1.7-7.9-4.5c0.4-0.6,0.9-1.2,1.4-1.7c2,2.5,4.9,4.2,8,4.8h0.2
			c0.8,0.1,1.5-0.6,1.6-1.4s-0.6-1.5-1.4-1.6l0,0c-2.4-0.5-4.6-1.8-6.2-3.7c2.1-1.4,4.5-2.1,6.9-2.1c7,0,12.6,5.6,12.6,12.6
			S44.1,49.7,37.2,49.7L37.2,49.7z"/>
	</g>
</g>
</svg>
