<?xml version="1.0" encoding="utf-8"?>
<!-- Generator: Adobe Illustrator 25.0.0, SVG Export Plug-In . SVG Version: 6.00 Build 0)  -->
<svg version="1.1" id="Layer_1" xmlns="http://www.w3.org/2000/svg" xmlns:xlink="http://www.w3.org/1999/xlink" x="0px" y="0px"
	 viewBox="0 0 60 60" style="enable-background:new 0 0 60 60;" xml:space="preserve">
<g id="Layer_2_1_">
	<g id="Layer_1-2">
		<path d="M30,39.2c-13.4,0-27-3-27-8.8c0-4.3,7.3-6.5,12.4-7.5l3.9-15.5c0.4-1.8,1.7-3.2,3.3-3.9c1.5-0.6,3.3-0.4,4.7,0.5l2.3,1.6
			l2.7-1.6c1.5-0.9,3.4-1.1,5-0.4c1.8,0.7,3.2,2.3,3.7,4.2l4.5,15.3c5.5,1.1,11.5,3.3,11.5,7.3C57,36.2,43.4,39.2,30,39.2z
			 M24.4,6.2c-0.3,0-0.5,0-0.8,0.1c-0.8,0.3-1.4,1-1.5,1.9l-4.3,17.3l-1,0.2C8.9,27.2,6,29.4,6,30.5c0,2,8.5,5.8,24,5.8
			s24-3.8,24-5.8c0-1-2.7-3.2-10-4.6l-1-0.2L38.1,8.6c-0.3-1-1-1.8-1.9-2.2c-0.8-0.3-1.7-0.2-2.4,0.2L31,8.3
			c-0.9,0.6-2.1,0.5-3.1-0.1l-2.4-1.6C25.2,6.4,24.8,6.3,24.4,6.2z"/>
		<path d="M39,39.8c-3.2,0-6.1,1.8-7.6,4.7c-0.9-0.3-1.9-0.3-2.8,0c-2.1-4.2-7.2-5.8-11.4-3.7s-5.8,7.2-3.7,11.4s7.2,5.8,11.4,3.7
			c2.9-1.4,4.7-4.4,4.6-7.6c0-0.3,0-0.7-0.1-1c0.4-0.1,0.8-0.1,1.1,0c0,0.3-0.1,0.7-0.1,1c0,4.7,3.8,8.5,8.5,8.5s8.5-3.8,8.5-8.5
			S43.7,39.8,39,39.8C39,39.8,39,39.8,39,39.8z M21,53.8c-3,0-5.5-2.5-5.5-5.5s2.5-5.5,5.5-5.5s5.5,2.5,5.5,5.5
			C26.5,51.3,24,53.7,21,53.8z M39,53.8c-3,0-5.5-2.5-5.5-5.5s2.5-5.5,5.5-5.5s5.5,2.5,5.5,5.5C44.5,51.3,42,53.7,39,53.8z"/>
	</g>
</g>
</svg>
