<?xml version="1.0" encoding="utf-8"?>
<!-- Generator: Adobe Illustrator 25.0.0, SVG Export Plug-In . SVG Version: 6.00 Build 0)  -->
<svg version="1.1" id="Layer_1" xmlns="http://www.w3.org/2000/svg" xmlns:xlink="http://www.w3.org/1999/xlink" x="0px" y="0px"
	 viewBox="0 0 60 55.5" style="enable-background:new 0 0 60 55.5;" xml:space="preserve">
<g>
	<g id="fraud-database-check_2_">
		<g>
			<g>
				<g>
					<g>
						<path d="M26.1,14H10.6c-0.4-1.2-1.8-1.7-2.9-1.4c-1.2,0.4-1.8,1.7-1.4,2.8c0.4,1.2,1.8,1.7,2.9,1.4c0.7-0.2,1.2-0.7,1.4-1.4
							h15.5c0.4,0,0.8-0.3,0.8-0.7C27,14.3,26.6,14,26.1,14z M8.5,15.5c-0.4,0-0.8-0.3-0.8-0.8C7.7,14.4,8,14,8.5,14
							c0.4,0,0.8,0.3,0.8,0.8C9.3,15.2,8.9,15.5,8.5,15.5z"/>
					</g>
				</g>
			</g>
			<g>
				<g>
					<g>
						<path d="M26.1,30.2H10.6c-0.4-1.2-1.8-1.7-2.9-1.4s-1.8,1.7-1.4,2.8s1.8,1.7,2.9,1.4c0.7-0.2,1.2-0.7,1.4-1.4h15.5
							c0.4,0,0.8-0.3,0.8-0.7C27,30.4,26.6,30.2,26.1,30.2z M8.5,31.7c-0.4,0-0.8-0.3-0.8-0.8c0-0.4,0.3-0.8,0.8-0.8
							c0.4,0,0.8,0.3,0.8,0.8C9.3,31.3,8.9,31.7,8.5,31.7z"/>
					</g>
				</g>
			</g>
			<g>
				<g>
					<g>
						<rect x="29.2" y="30.2" width="1.7" height="1.7"/>
					</g>
				</g>
			</g>
			<g>
				<g>
					<g>
						<rect x="29.2" y="33.3" width="1.7" height="1.7"/>
					</g>
				</g>
			</g>
			<g>
				<g>
					<g>
						<path d="M26.1,46.3H10.6c-0.4-1.2-1.8-1.7-2.9-1.4s-1.8,1.7-1.4,2.8c0.4,1.2,1.8,1.7,2.9,1.4c0.7-0.2,1.2-0.7,1.4-1.4h15.5
							c0.4,0,0.7-0.3,0.8-0.7C26.9,46.7,26.6,46.3,26.1,46.3z M8.5,47.9c-0.4,0-0.8-0.3-0.8-0.8s0.3-0.8,0.8-0.8
							c0.4,0,0.8,0.3,0.8,0.8C9.3,47.6,8.9,47.9,8.5,47.9z"/>
					</g>
				</g>
			</g>
			<g>
				<g>
					<g>
						<rect x="29.2" y="43.2" width="1.7" height="1.7"/>
					</g>
				</g>
			</g>
			<g>
				<g>
					<g>
						<rect x="29.2" y="46.3" width="1.7" height="1.7"/>
					</g>
				</g>
			</g>
			<g>
				<g>
					<g>
						<rect x="29.2" y="49.3" width="1.7" height="1.7"/>
					</g>
				</g>
			</g>
			<g>
				<path d="M45.4,40.3h-2.3v-2.5h0.1c-1.6-0.3-3-0.9-4.4-1.7h-35c-0.4,0-0.8-0.3-0.8-0.8v-9c0-0.4,0.3-0.8,0.8-0.8h25.1
					c-0.2-0.5-0.4-1.1-0.5-1.7H10.7v-2.3h17.1c-0.1-0.5-0.2-1.1-0.2-1.7H3.8c-0.4,0-0.8-0.3-0.8-0.8v-9c0,0,0.3-0.8,0.8-0.8h25.7
					c0.3-0.5,0.5-1.1,0.9-1.7H3.8c-1.3,0.1-2.5,2.4-2.5,2.4v9.4c0,1.2,1,2.3,2.4,2.3h2.4v2.3H3.8c-1.3,0-2.4,1-2.4,2.3v9.3
					c0,1.2,1,2.3,2.4,2.3h2.4v2.3H3.8c-1.3,0-2.4,1-2.4,2.3v9.3c0,1.3,1,2.3,2.3,2.3h41.6c1.3,0,2.3-1,2.3-2.3v-9.2
					C47.7,41.3,46.7,40.3,45.4,40.3z M7.6,21.6h1.7v2.3H7.6V21.6z M40,37.8h1.7v2.3H40V37.8z M10.7,37.8h27.8v2.3H10.7V37.8z
					 M7.6,37.8h1.7v2.3H7.6V37.8z M46.2,51.6c0,0.4-0.3,0.8-0.8,0.8H4c-0.4,0-0.8-0.3-0.8-0.8v-9.3c0-0.4,0.3-0.8,0.8-0.8h41.5
					c0.4,0,0.8,0.3,0.8,0.8L46.2,51.6L46.2,51.6z"/>
			</g>
			<g>
				<g>
					<g>
						<rect x="32.3" y="33.3" width="1.7" height="1.7"/>
					</g>
				</g>
			</g>
			<g>
				<g>
					<g>
						<rect x="35.4" y="43.2" width="1.7" height="1.7"/>
					</g>
				</g>
			</g>
			<g>
				<g>
					<g>
						<rect x="38.5" y="43.2" width="1.7" height="1.7"/>
					</g>
				</g>
			</g>
			<g>
				<g>
					<g>
						<rect x="41.5" y="43.2" width="1.7" height="1.7"/>
					</g>
				</g>
			</g>
			<g>
				<g>
					<g>
						<rect x="32.3" y="43.2" width="1.7" height="1.7"/>
					</g>
				</g>
			</g>
			<g>
				<g>
					<g>
						<rect x="35.4" y="46.3" width="1.7" height="1.7"/>
					</g>
				</g>
			</g>
			<g>
				<g>
					<g>
						<rect x="38.5" y="46.3" width="1.7" height="1.7"/>
					</g>
				</g>
			</g>
			<g>
				<g>
					<g>
						<rect x="41.5" y="46.3" width="1.7" height="1.7"/>
					</g>
				</g>
			</g>
			<g>
				<g>
					<g>
						<rect x="32.3" y="46.3" width="1.7" height="1.7"/>
					</g>
				</g>
			</g>
			<g>
				<g>
					<g>
						<rect x="35.4" y="49.3" width="1.7" height="1.7"/>
					</g>
				</g>
			</g>
			<g>
				<g>
					<g>
						<rect x="38.5" y="49.3" width="1.7" height="1.7"/>
					</g>
				</g>
			</g>
			<g>
				<g>
					<g>
						<rect x="41.5" y="49.3" width="1.7" height="1.7"/>
					</g>
				</g>
			</g>
			<g>
				<g>
					<g>
						<rect x="32.3" y="49.3" width="1.7" height="1.7"/>
					</g>
				</g>
			</g>
			<path d="M52.5,11.1c-0.5-0.4-1.2-0.5-1.6-0.1L40.2,21.7l-3.9-3.9c-0.4-0.4-1.1-0.4-1.6,0c-0.1,0.1-0.4,0.4-0.4,0.8
				c0,0.3,0.1,0.6,0.4,0.8l4.6,4.6c0.1,0.1,0.4,0.4,0.8,0.4c0.3,0,0.6-0.1,0.8-0.4l11.5-11.5C52.9,12.3,52.9,11.6,52.5,11.1z"/>
			<path d="M44.1,2.8c-8.2,0-14.8,6.7-14.8,14.8S36,32.4,44.1,32.4s14.8-6.7,14.8-14.8S52.3,2.8,44.1,2.8z M56.9,17.6
				c0,7-5.7,12.8-12.8,12.8s-12.8-5.7-12.8-12.8S37.1,4.8,44.1,4.8S56.9,10.5,56.9,17.6z"/>
		</g>
	</g>
	<g id="Layer_1_2_">
	</g>
</g>
</svg>
