<?xml version="1.0" encoding="utf-8"?>
<!-- Generator: Adobe Illustrator 25.0.0, SVG Export Plug-In . SVG Version: 6.00 Build 0)  -->
<svg version="1.1" id="Layer_1" xmlns="http://www.w3.org/2000/svg" xmlns:xlink="http://www.w3.org/1999/xlink" x="0px" y="0px"
	 viewBox="0 0 60 60" style="enable-background:new 0 0 60 60;" xml:space="preserve">
<style type="text/css">
	.st0{fill-rule:evenodd;clip-rule:evenodd;}
</style>
<path d="M15.9,6C7.8,6,1.1,12.7,1.1,20.8c0,8.2,6.7,14.8,14.8,14.8c0.9,0,1.7-0.1,2.5-0.2c0.6-0.1,1.3-0.3,1.9-0.5
	c0.7-0.2,1.3-0.5,1.9-0.7c1.2-0.6,2.4-1.3,3.4-2.2c1.9-1.7,3.4-3.8,4.2-6.2c0.2-0.5,0.3-0.9,0.4-1.4c0.3-1.2,0.5-2.4,0.5-3.6
	C30.7,12.7,24.1,6,15.9,6z M20,33c-0.3,0.1-0.6,0.2-0.9,0.3c-1,0.3-2.1,0.4-3.2,0.4c-7.1,0-12.8-5.7-12.8-12.8
	C3.1,13.8,8.8,8,15.9,8c7.1,0,12.8,5.8,12.8,12.8c0,3.6-1.5,6.9-3.9,9.2c-0.6,0.6-1.2,1.1-1.9,1.5C22.1,32.1,21.1,32.6,20,33z"/>
<g>
	<g>
		<path d="M49.5,34.5c-0.8-1.4-2.6-4.7-2.7-4.8c-0.3-0.4-0.6-0.9-1-1.1c-0.5-0.2-1.1-0.2-2.2-0.2h-8.9c-1.1,0-1.7,0-2.2,0.2
			c-0.5,0.2-0.8,0.7-1,1.1c-0.1,0.1-0.7,1.2-1.8,3.4l-1.6,3l22.4,0L49.5,34.5z M31.6,34l-0.1-0.4c0.7-1.3,1.5-2.8,1.6-2.9
			c0.1-0.2,0.2-0.3,0.2-0.3c0.2,0,0.8,0,1.4,0h8.9c0.6,0,1.2,0,1.3,0c0,0,0.1,0.1,0.2,0.3c0.1,0.2,1.1,1.9,1.8,3.3L31.6,34z
			 M49.5,34.5c-0.8-1.4-2.6-4.7-2.7-4.8c-0.3-0.4-0.6-0.9-1-1.1c-0.5-0.2-1.1-0.2-2.2-0.2h-8.9c-1.1,0-1.7,0-2.2,0.2
			c-0.5,0.2-0.8,0.7-1,1.1c-0.1,0.1-0.7,1.2-1.8,3.4l-1.6,3l22.4,0L49.5,34.5z M31.6,34l-0.1-0.4c0.7-1.3,1.5-2.8,1.6-2.9
			c0.1-0.2,0.2-0.3,0.2-0.3c0.2,0,0.8,0,1.4,0h8.9c0.6,0,1.2,0,1.3,0c0,0,0.1,0.1,0.2,0.3c0.1,0.2,1.1,1.9,1.8,3.3L31.6,34z
			 M58.6,33.5c0-1.9-1.5-3.4-3.4-3.4h-2.9l-1.1-2.4c-0.6-1.3-1.2-2.3-2.2-2.9c-1-0.6-2-0.6-3.7-0.5H33.2c-1.3,0-2.2,0-2.9,0.2
			c-0.2,0.1-0.5,0.2-0.7,0.3c-1.1,0.6-1.6,1.6-2.2,2.9c0,0-0.1,0.3-0.4,0.8L26.2,30h-1.4c-0.6,0.6-1.2,1.1-1.9,1.5
			c-0.9,0.6-1.9,1.1-3,1.4c0,0.2,0,0.3,0,0.5c0,0.6,0.1,1.1,0.4,1.5c0.5,1,1.5,1.7,2.7,1.9l0,0.1h0l-0.8,1.6
			c-0.5,1.1-0.6,1.3-0.6,2.3V48c0,0.5,0,1.6,0.8,2v2.1c0,1.2,1,2.2,2.2,2.2h3.7c1.2,0,2.2-1,2.2-2.2v-1.8H48v1.8
			c0,1.2,1,2.2,2.2,2.2h3.6c1.2,0,2.2-1,2.2-2.2v-2c0.8-0.4,0.8-1.4,0.8-2v-7.2c0-1,0-1.2-0.6-2.3l-0.8-1.7
			C57.3,36.7,58.6,35.2,58.6,33.5z M55.2,34.9h-2.8l2.1,4.5c0.4,0.8,0.4,0.8,0.4,1.5v7.4h-0.8v3.8c0,0.1-0.1,0.2-0.2,0.2h-3.6
			c-0.1,0-0.2-0.1-0.2-0.2v-3.8H28.6v3.8c0,0.1-0.1,0.2-0.2,0.2h-3.7c-0.1,0-0.2-0.1-0.2-0.2v-3.8h-0.8v-7.4c0-0.7,0-0.7,0.4-1.5
			l2.1-4.4h-0.1l0,0h-2.7c-0.5,0-0.9-0.2-1.2-0.6C22.1,34,22,33.7,22,33.5c0-0.8,0.6-1.4,1.4-1.4h4.1l1.6-3.5c0.5-1.1,0.9-1.7,1.4-2
			c0.5-0.3,1.2-0.3,2.7-0.3h12.1c1.5,0,2.2,0,2.7,0.3c0.5,0.3,0.9,0.9,1.4,2l3,6.2l0.2-2.8h2.6c0.8,0,1.4,0.6,1.4,1.4
			C56.6,34.2,56,34.9,55.2,34.9z M46.8,29.7c-0.3-0.4-0.6-0.9-1-1.1c-0.5-0.2-1.1-0.2-2.2-0.2h-8.9c-1.1,0-1.7,0-2.2,0.2
			c-0.5,0.2-0.8,0.7-1,1.1c-0.1,0.1-0.7,1.2-1.8,3.4l-1.6,3l22.4,0l-0.8-1.5C48.7,33.1,46.9,29.9,46.8,29.7z M31.6,34l-0.1-0.4
			c0.7-1.3,1.5-2.8,1.6-2.9c0.1-0.2,0.2-0.3,0.2-0.3c0.2,0,0.8,0,1.4,0h8.9c0.6,0,1.2,0,1.3,0c0,0,0.1,0.1,0.2,0.3
			c0.1,0.2,1.1,1.9,1.8,3.3L31.6,34z"/>
	</g>
	<g>
		<g>
			<g>
				<path class="st0" d="M30.1,39.6c-1.6,0-2.9,1.3-2.9,2.9s1.3,2.9,2.9,2.9c1.6,0,2.9-1.3,2.9-2.9C33,40.9,31.7,39.6,30.1,39.6z"/>
				<path d="M30.1,39.1c-1.9,0-3.4,1.5-3.4,3.4s1.5,3.4,3.4,3.4c1.9,0,3.4-1.5,3.4-3.4S32,39.1,30.1,39.1z M30.1,44.9
					c-1.3,0-2.4-1.1-2.4-2.4s1.1-2.4,2.4-2.4c1.3,0,2.4,1.1,2.4,2.4S31.4,44.9,30.1,44.9z"/>
			</g>
		</g>
		<g>
			<g>
				<path class="st0" d="M48.1,39.6c-1.6,0-2.9,1.3-2.9,2.9s1.3,2.9,2.9,2.9c1.6,0,2.9-1.3,2.9-2.9C51,40.9,49.7,39.6,48.1,39.6z"/>
				<path d="M48.1,39.1c-1.9,0-3.4,1.5-3.4,3.4s1.5,3.4,3.4,3.4c1.9,0,3.4-1.5,3.4-3.4S50,39.1,48.1,39.1z M48.1,44.9
					c-1.3,0-2.4-1.1-2.4-2.4s1.1-2.4,2.4-2.4c1.3,0,2.4,1.1,2.4,2.4S49.4,44.9,48.1,44.9z"/>
			</g>
		</g>
	</g>
</g>
<path d="M17.4,19.6L15,19.1c-0.9-0.2-1.4-0.7-1.4-1.4c0-0.9,0.8-1.5,2-1.5c1.3,0,2.1,0.6,2.4,1.5h2.7c-0.4-1.9-1.5-3.3-3.5-3.7v-2.1
	h-2.4v2.1c-2.3,0.3-3.8,1.8-3.8,4c0,2.3,1.5,3.3,3.3,3.7l2.2,0.5c1.2,0.3,1.7,0.7,1.7,1.5c0,1-0.8,1.6-2.1,1.6
	c-1.3,0-2.2-0.5-2.6-1.7h-2.8c0.4,2.2,2,3.5,4.1,3.9l-0.1,2.1H17v-2.2c2.2-0.3,3.7-1.8,3.7-4C20.7,21.4,19.4,20.1,17.4,19.6z"/>
</svg>
