<svg xmlns="http://www.w3.org/2000/svg" width="51.199" height="43.728" viewBox="0 0 51.199 43.728">
  <g id="claim" transform="translate(1 1)">
    <path id="Path_12411" data-name="Path 12411" d="M390.843,1101.4v-7.406a.378.378,0,0,0-.408-.362,8.4,8.4,0,0,0-8.222,7.745.375.375,0,0,0,.384.384h7.861A.373.373,0,0,0,390.843,1101.4Z" transform="translate(-382.213 -1093.627)" fill="#fff" stroke="#fab61c" stroke-miterlimit="10" stroke-width="2"/>
    <path id="Rectangle_3494" data-name="Rectangle 3494" d="M1,0H31.936a4,4,0,0,1,4,4V37.728a4,4,0,0,1-4,4H6a6,6,0,0,1-6-6V1A1,1,0,0,1,1,0Z" transform="translate(7.067)" fill="#fff" stroke="#1eb1a5" stroke-miterlimit="10" stroke-width="2"/>
    <g id="Path_12412" data-name="Path 12412" transform="translate(-165.335 -1200.136)" fill="#fff" stroke-linecap="square" stroke-linejoin="round">
      <path d="M 207.8137512207031 1241.845947265625 L 182.0073852539063 1241.845947265625 C 184.0545196533203 1240.034545898438 185.4521331787109 1237.155395507813 185.6943206787109 1233.908569335938 C 185.6953125 1233.895263671875 185.6969299316406 1233.882934570313 185.6989288330078 1233.871948242188 L 214.5296630859375 1233.871948242188 C 214.5337982177734 1233.895263671875 214.5357666015625 1233.923706054688 214.5327606201172 1233.956665039063 C 214.3313598632813 1236.158447265625 213.5169219970703 1238.179809570313 212.2394714355469 1239.648559570313 C 211.0069580078125 1241.065551757813 209.4352111816406 1241.845947265625 207.8137512207031 1241.845947265625 Z" stroke="none"/>
      <path d="M 207.8137512207031 1240.845947265625 C 209.1414489746094 1240.845947265625 210.4452362060547 1240.187622070313 211.4849548339844 1238.992309570313 C 212.4306488037109 1237.905029296875 213.0931549072266 1236.467895507813 213.3960418701172 1234.871948242188 L 186.5986785888672 1234.871948242188 C 186.2915954589844 1237.149536132813 185.4754638671875 1239.202758789063 184.2858276367188 1240.845947265625 L 207.8137512207031 1240.845947265625 M 207.8137512207031 1242.845947265625 L 178.4233245849609 1242.845947265625 L 178.4233245849609 1242.6689453125 C 181.7760620117188 1241.851806640625 184.3665161132813 1238.265991210938 184.6970825195313 1233.834228515625 C 184.7377624511719 1233.2880859375 185.0958251953125 1232.871948242188 185.5232086181641 1232.871948242188 L 214.7005920410156 1232.871948242188 C 215.193115234375 1232.871948242188 215.5860443115234 1233.419799804688 215.5285949707031 1234.047729492188 C 215.0754089355469 1239.002319335938 211.7944641113281 1242.845947265625 207.8137512207031 1242.845947265625 Z" stroke="none" fill="#fab61c"/>
    </g>
    <path id="Path_12414" data-name="Path 12414" d="M279.057,1147.343H264.3a.81.81,0,0,0-.865.74h0a.81.81,0,0,0,.865.74h14.753a.809.809,0,0,0,.865-.74h0A.81.81,0,0,0,279.057,1147.343Z" transform="translate(-241.295 -1134.998)" fill="#f9b61b"/>
    <path id="Path_12415" data-name="Path 12415" d="M279.057,1170.941H264.3a.81.81,0,0,0-.865.74h0a.81.81,0,0,0,.865.74h14.753a.809.809,0,0,0,.865-.74h0A.81.81,0,0,0,279.057,1170.941Z" transform="translate(-241.295 -1153.173)" fill="#f9b61b"/>
    <path id="Path_12417" data-name="Path 12417" d="M279.057,1198.3H264.3a.81.81,0,0,0-.865.74h0a.81.81,0,0,0,.865.74h14.753a.809.809,0,0,0,.865-.74h0A.81.81,0,0,0,279.057,1198.3Z" transform="translate(-241.295 -1174.247)" fill="#f9b61b"/>
    <path id="Path_12419" data-name="Path 12419" d="M339.4,1125.3a2.281,2.281,0,0,1,2.281,2.281H343.2a3.809,3.809,0,0,0-3.042-3.726v-1.6h-1.521v1.6a3.8,3.8,0,0,0,.76,7.527,2.281,2.281,0,1,1-2.281,2.281h-1.521a3.809,3.809,0,0,0,3.042,3.726v1.6h1.521v-1.6a3.8,3.8,0,0,0-.76-7.527,2.281,2.281,0,1,1,0-4.562Z" transform="translate(-324.197 -1111.934)" fill="#1db2a6"/>
  </g>
</svg>
