<?xml version="1.0" encoding="utf-8"?>
<!-- Generator: Adobe Illustrator 25.0.0, SVG Export Plug-In . SVG Version: 6.00 Build 0)  -->
<svg version="1.1" id="Layer_1" xmlns="http://www.w3.org/2000/svg" xmlns:xlink="http://www.w3.org/1999/xlink" x="0px" y="0px"
	 viewBox="0 0 19.5 18.2" style="enable-background:new 0 0 19.5 18.2;" xml:space="preserve">
<style type="text/css">
	.st0{fill:#1F2240;}
</style>
<g id="Component_57_10" transform="translate(17.313 16.113) rotate(180)">
	<g id="Line_399">
		<path class="st0" d="M1.8,5.5h14c0.8,0,1.5,0.7,1.5,1.5s-0.7,1.5-1.5,1.5h-14C1,8.5,0.3,7.8,0.3,7S1,5.5,1.8,5.5z"/>
	</g>
	<g id="Path_12638">
		<path class="st0" d="M7.5-1.5c0.4,0,0.8,0.2,1.1,0.5c0.6,0.6,0.5,1.6-0.1,2.1L2.2,7l6.3,5.9c0.6,0.6,0.6,1.5,0.1,2.1
			C8,15.6,7,15.7,6.4,15.1L-2.2,7l8.6-8.1C6.7-1.4,7.1-1.5,7.5-1.5z"/>
	</g>
</g>
</svg>
