<?xml version="1.0" encoding="utf-8"?>
<!-- Generator: Adobe Illustrator 25.0.0, SVG Export Plug-In . SVG Version: 6.00 Build 0)  -->
<svg version="1.1" id="Layer_1" xmlns="http://www.w3.org/2000/svg" xmlns:xlink="http://www.w3.org/1999/xlink" x="0px" y="0px"
	 viewBox="0 0 67.9 29.2" style="enable-background:new 0 0 67.9 29.2;" xml:space="preserve">
<style type="text/css">
	.st0{fill:#FAB61C;}
</style>
<g id="curve5" transform="translate(3.376 3.376)">
	<g id="Path_12394">
		<path class="st0" d="M61,24.8c-0.5,0-1-0.2-1.5-0.5c-4.8-3.4-10.4-4.8-29.3-3.3C9.4,22.7-1.8,2-2.2,1.2c-0.6-1.2-0.2-2.7,1-3.4
			c1.2-0.6,2.7-0.2,3.4,1l0,0C2.3-1,12.3,17.4,30,16.1c20.4-1.6,26.8,0.1,32.5,4.2c1.1,0.8,1.4,2.4,0.6,3.5
			C62.6,24.5,61.8,24.8,61,24.8z"/>
	</g>
</g>
</svg>
