<svg xmlns="http://www.w3.org/2000/svg" width="31.129" height="24.745" viewBox="0 0 31.129 24.745">
  <g id="dashboard" transform="translate(0 -52.499)">
    <g id="Group_17557" data-name="Group 17557" transform="translate(0 52.499)">
      <g id="Group_17556" data-name="Group 17556" transform="translate(0 0)">
        <path id="Path_12611" data-name="Path 12611" d="M210.566,123.854a1.216,1.216,0,0,0-1.545-.145c-1.819,1.24-10.945,7.476-11.926,8.457a3.648,3.648,0,0,0,5.159,5.159c.981-.981,7.217-10.107,8.457-11.926A1.216,1.216,0,0,0,210.566,123.854Zm-10.032,11.751a1.216,1.216,0,0,1-1.72-1.719c.381-.377,2.972-2.224,6.16-4.44C202.759,132.634,200.911,135.225,200.534,135.606Z" transform="translate(-184.11 -119.182)" fill="#fff"/>
        <path id="Path_12612" data-name="Path 12612" d="M5.607,73.719l-1.5.732a13.071,13.071,0,0,1-.82-11.05l1.72.825a1.216,1.216,0,1,0,1.052-2.193l-1.7-.815a13.149,13.149,0,0,1,9.988-6.232v1.829a1.216,1.216,0,0,0,2.432,0v-1.83a12.982,12.982,0,0,1,4.181,1.1,1.216,1.216,0,1,0,1-2.217A15.551,15.551,0,0,0,2.637,76.7a1.216,1.216,0,0,0,1.544.417L6.674,75.9a1.216,1.216,0,1,0-1.066-2.186Z" transform="translate(0 -52.499)" fill="#fff"/>
        <path id="Path_12613" data-name="Path 12613" d="M396.04,192.21a1.216,1.216,0,1,0-2.217,1A13.09,13.09,0,0,1,393.3,205l-1.567-.746a1.216,1.216,0,1,0-1.046,2.2l2.553,1.216a1.216,1.216,0,0,0,1.534-.422,15.527,15.527,0,0,0,1.265-15.038Z" transform="translate(-366.284 -183.043)" fill="#fff"/>
      </g>
    </g>
  </g>
</svg>
