<svg id="fraud" xmlns="http://www.w3.org/2000/svg" width="47.511" height="42.71" viewBox="0 0 47.511 42.71">
  <path id="Path_12426" data-name="Path 12426" d="M159.359,50.472h-23.3l6.593-11.42a5.839,5.839,0,0,1,10.113,0Z" transform="translate(-123.954 -36.131)" fill="#fab61c"/>
  <path id="Path_12427" data-name="Path 12427" d="M53.092,297.218H17.264a5.839,5.839,0,0,1-5.059-8.759L18.243,278a8.422,8.422,0,0,0,7.632,4.874h4.159a3.306,3.306,0,0,0,2.574-1.232,3.3,3.3,0,0,1,5.144,0,3.3,3.3,0,0,0,2.574,1.232h4.155A8.422,8.422,0,0,0,52.113,278l6.038,10.459a5.839,5.839,0,0,1-5.059,8.759Z" transform="translate(-11.423 -254.508)" fill="#fab61c"/>
  <path id="Path_12428" data-name="Path 12428" d="M190.976,81.135H175.3l5.641-9.769a2.533,2.533,0,0,1,4.394,0Z" transform="translate(-159.383 -66.794)" fill="#fff"/>
  <path id="Path_12429" data-name="Path 12429" d="M83.764,316.306H47.936a2.534,2.534,0,0,1-2.2-3.805l5.344-9.256a8.366,8.366,0,0,0,5.466,2.02h4.159a3.307,3.307,0,0,0,2.574-1.232,3.3,3.3,0,0,1,5.144,0A3.3,3.3,0,0,0,71,305.265h4.155a8.365,8.365,0,0,0,5.466-2.02l5.344,9.256a2.534,2.534,0,0,1-2.2,3.805Z" transform="translate(-42.095 -276.899)" fill="#fff"/>
  <path id="Path_12430" data-name="Path 12430" d="M106.922,183.78H75.814a2.156,2.156,0,0,0-2.156,2.156V189.4a8.408,8.408,0,0,0,8.407,8.405h4.159a3.306,3.306,0,0,0,2.574-1.232,3.3,3.3,0,0,1,5.144,0,3.3,3.3,0,0,0,2.574,1.232h4.155a8.4,8.4,0,0,0,8.407-8.388v-3.481a2.156,2.156,0,0,0-2.156-2.156Z" transform="translate(-67.613 -169.439)" fill="#fff" stroke="#1db2a6" stroke-width="2"/>
  <path id="Path_12431" data-name="Path 12431" d="M134.311,231.926a3.943,3.943,0,0,0,7.737,1.527q.015-.079.028-.158Z" transform="translate(-122.307 -212.909)" fill="#1db2a6" stroke="#1db2a6" stroke-width="1"/>
  <path id="Path_12432" data-name="Path 12432" d="M304.8,231.926a3.943,3.943,0,1,1-7.737,1.528q-.016-.079-.028-.158Z" transform="translate(-269.295 -212.909)" fill="#1db2a6" stroke="#1db2a6" stroke-width="1"/>
  <g id="Group_16723" data-name="Group 16723" transform="translate(10.643 31.451)">
    <path id="Path_12433" data-name="Path 12433" d="M178,349.646h-1.891a.486.486,0,0,0-.486.486v4.5a.486.486,0,1,0,.971,0V353.4h1.157l1.089,1.514a.486.486,0,1,0,.8-.55l-.012-.017L178.8,353.2a1.721,1.721,0,0,0,.916-1.519v-.313A1.722,1.722,0,0,0,178,349.646Zm.749,2.033a.749.749,0,0,1-.749.748h-1.406v-1.81H178a.749.749,0,0,1,.749.748Z" transform="translate(-170.317 -349.646)" fill="#fab61c"/>
    <path id="Path_12434" data-name="Path 12434" d="M235.4,349.646a2.051,2.051,0,0,0-2.048,2.048v2.935a.486.486,0,1,0,.971,0V353.4h2.154v1.23a.486.486,0,1,0,.971,0v-2.935A2.051,2.051,0,0,0,235.4,349.646Zm1.077,2.781h-2.154v-.733a1.077,1.077,0,0,1,2.154,0Z" transform="translate(-222.441 -349.646)" fill="#fab61c"/>
    <path id="Path_12435" data-name="Path 12435" d="M124.309,350.617a.486.486,0,0,0,0-.971h-2.823a.486.486,0,0,0-.486.486v4.5a.486.486,0,1,0,.971,0v-1.662h2.338a.486.486,0,1,0,0-.971h-2.338v-1.378Z" transform="translate(-121 -349.646)" fill="#fab61c"/>
    <path id="Path_12436" data-name="Path 12436" d="M350.868,349.646h-1.563a.486.486,0,0,0-.486.486v4.5a.486.486,0,0,0,.486.486h1.563a2.051,2.051,0,0,0,2.048-2.048v-1.372A2.051,2.051,0,0,0,350.868,349.646Zm1.077,3.42a1.078,1.078,0,0,1-1.077,1.077h-1.077v-3.526h1.077a1.078,1.078,0,0,1,1.077,1.077Z" transform="translate(-326.692 -349.646)" fill="#fab61c"/>
    <path id="Path_12437" data-name="Path 12437" d="M294.7,349.646a.486.486,0,0,0-.486.486v2.934a1.077,1.077,0,0,1-2.154,0v-2.936a.486.486,0,0,0-.971,0v2.934a2.048,2.048,0,0,0,4.1,0v-2.934A.486.486,0,0,0,294.7,349.646Z" transform="translate(-274.566 -349.646)" fill="#fab61c"/>
  </g>
</svg>
