<?xml version="1.0" encoding="utf-8"?>
<!-- Generator: Adobe Illustrator 25.0.0, SVG Export Plug-In . SVG Version: 6.00 Build 0)  -->
<svg version="1.1" id="fraud" xmlns="http://www.w3.org/2000/svg" xmlns:xlink="http://www.w3.org/1999/xlink" x="0px" y="0px"
	 viewBox="0 0 47.5 42.7" style="enable-background:new 0 0 47.5 42.7;" xml:space="preserve">
<style type="text/css">
	.st0{fill:#FAB61C;}
	.st1{fill:#FFFFFF;}
	.st2{fill:#1DB2A6;}
</style>
<g id="Path_12426">
	<path class="st0" d="M35.4,14.3H12.1l6.6-11.4c1.6-2.8,5.2-3.7,8-2.1c0.9,0.5,1.6,1.2,2.1,2.1L35.4,14.3z"/>
</g>
<g id="Path_12427">
	<path class="st0" d="M41.7,42.7H5.8c-3.2,0-5.8-2.6-5.8-5.8c0-1,0.3-2,0.8-2.9l6-10.5c1.4,3,4.4,4.9,7.6,4.9h4.2
		c1,0,1.9-0.5,2.6-1.2c1.1-1.4,3.2-1.6,4.6-0.5c0.2,0.1,0.4,0.3,0.5,0.5c0.6,0.8,1.6,1.2,2.6,1.2h4.2c3.3,0,6.3-1.9,7.6-4.9l6,10.5
		c1.6,2.8,0.7,6.4-2.1,8C43.7,42.4,42.7,42.7,41.7,42.7z"/>
</g>
<g id="Path_12428">
	<path class="st1" d="M31.6,14.3H15.9l5.6-9.8c0.7-1.2,2.2-1.6,3.5-0.9c0.4,0.2,0.7,0.5,0.9,0.9L31.6,14.3z"/>
</g>
<g id="Path_12429">
	<path class="st1" d="M41.7,39.4H5.8c-1.4,0-2.5-1.1-2.5-2.5c0-0.4,0.1-0.9,0.3-1.3L9,26.3c1.5,1.3,3.5,2,5.5,2h4.2
		c1,0,1.9-0.5,2.6-1.2c1.1-1.4,3.2-1.6,4.6-0.5c0.2,0.1,0.4,0.3,0.5,0.5c0.6,0.8,1.6,1.2,2.6,1.2h4.2c2,0,3.9-0.7,5.5-2l5.3,9.3
		c0.7,1.2,0.3,2.8-0.9,3.5C42.6,39.3,42.1,39.4,41.7,39.4L41.7,39.4z"/>
</g>
<g id="Path_12430">
	<path class="st1" d="M39.3,14.3H8.2c-1.2,0-2.2,1-2.2,2.2l0,0V20c0,4.6,3.8,8.4,8.4,8.4h4.2c1,0,1.9-0.5,2.6-1.2
		c1.1-1.4,3.2-1.6,4.6-0.5c0.2,0.1,0.4,0.3,0.5,0.5c0.6,0.8,1.6,1.2,2.6,1.2h4.2c4.6,0,8.4-3.8,8.4-8.4v-3.5
		C41.5,15.3,40.5,14.3,39.3,14.3C39.3,14.3,39.3,14.3,39.3,14.3L39.3,14.3z"/>
	<path class="st2" d="M33.1,29.4C33.1,29.4,33.1,29.4,33.1,29.4h-4.2c-1.3,0-2.5-0.6-3.4-1.6c-0.1-0.1-0.2-0.2-0.4-0.4
		c-0.5-0.4-1.1-0.6-1.7-0.5c-0.6,0.1-1.2,0.4-1.5,0.8c-0.8,1-2,1.6-3.4,1.6h-4.2C9.3,29.4,5,25.1,5,20v-3.5c0-1.7,1.4-3.2,3.2-3.2
		h31.1c1.7,0,3.2,1.4,3.2,3.2V20C42.5,25.2,38.2,29.4,33.1,29.4z M23.8,24.9c1,0,1.9,0.3,2.7,0.9c0.2,0.2,0.5,0.4,0.7,0.7
		c0.4,0.5,1.1,0.9,1.8,0.9h4.2c0,0,0,0,0,0c4.1,0,7.4-3.3,7.4-7.4v-3.5c0-0.6-0.5-1.2-1.2-1.2H8.2c-0.6,0-1.2,0.5-1.2,1.2V20
		c0,4.1,3.3,7.4,7.4,7.4h4.2c0.7,0,1.4-0.3,1.8-0.9c0.7-0.9,1.7-1.5,2.9-1.6C23.5,24.9,23.6,24.9,23.8,24.9z"/>
</g>
<g id="Path_12431">
	<path class="st2" d="M12,19c-0.4,2.1,1,4.2,3.1,4.6c2.1,0.4,4.2-1,4.6-3.1c0-0.1,0-0.1,0-0.2L12,19z"/>
	<path class="st2" d="M15.9,24.2c-0.3,0-0.6,0-0.9-0.1c-1.2-0.2-2.2-0.9-2.8-1.9c-0.7-1-0.9-2.2-0.7-3.3l0.1-0.5l8.7,1.5l-0.1,0.7
		C19.8,22.8,18,24.2,15.9,24.2z M12.4,19.6c0,0.7,0.2,1.5,0.6,2.1c0.5,0.8,1.3,1.3,2.2,1.5c1.7,0.3,3.5-0.7,4-2.4L12.4,19.6z"/>
</g>
<g id="Path_12432">
	<path class="st2" d="M35.5,19c0.4,2.1-1,4.2-3.1,4.6c-2.1,0.4-4.2-1-4.6-3.1l0,0c0-0.1,0-0.1,0-0.2L35.5,19z"/>
	<path class="st2" d="M31.6,24.2c-2.1,0-3.9-1.5-4.4-3.6L27.2,20l8.7-1.5l0.1,0.5c0.5,2.4-1.1,4.7-3.5,5.2
		C32.2,24.2,31.9,24.2,31.6,24.2z M28.3,20.8c0.5,1.7,2.2,2.7,4,2.4c1.7-0.3,2.9-1.9,2.8-3.6L28.3,20.8z"/>
</g>
<g id="Group_16723" transform="translate(10.643 31.451)">
	<g id="Path_12433">
		<path class="st0" d="M7.7,0H5.8C5.5,0,5.3,0.2,5.3,0.5V5c0,0.3,0.2,0.5,0.5,0.5C6,5.5,6.3,5.3,6.3,5c0,0,0,0,0,0V3.8h1.2l1.1,1.5
			C8.7,5.5,9,5.6,9.2,5.4C9.4,5.3,9.5,5,9.4,4.8c0,0,0,0,0,0l0,0L8.5,3.6C9,3.3,9.4,2.7,9.4,2V1.7C9.4,0.8,8.6,0,7.7,0z M8.4,2
			c0,0.4-0.3,0.7-0.7,0.7H6.3V1h1.4c0.4,0,0.7,0.3,0.7,0.7V2z"/>
	</g>
	<g id="Path_12434">
		<path class="st0" d="M13,0c-1.1,0-2,0.9-2,2V5c0,0.3,0.2,0.5,0.5,0.5c0.3,0,0.5-0.2,0.5-0.5c0,0,0,0,0,0V3.8H14V5
			c0,0.3,0.2,0.5,0.5,0.5C14.8,5.5,15,5.3,15,5c0,0,0,0,0,0V2C15,0.9,14.1,0,13,0z M14,2.8h-2.2V2C11.9,1.5,12.4,1,13,1
			C13.6,1,14,1.5,14,2l0,0V2.8z"/>
	</g>
	<g id="Path_12435">
		<path class="st0" d="M3.3,1c0.3,0,0.5-0.2,0.5-0.5C3.8,0.2,3.6,0,3.3,0H0.5C0.2,0,0,0.2,0,0.5V5c0,0.3,0.2,0.5,0.5,0.5S1,5.3,1,5
			c0,0,0,0,0,0V3.3h2.3c0.3,0,0.5-0.2,0.5-0.5S3.6,2.4,3.4,2.4c0,0,0,0,0,0H1V1L3.3,1z"/>
	</g>
	<g id="Path_12436">
		<path class="st0" d="M24.2,0h-1.6c-0.3,0-0.5,0.2-0.5,0.5V5c0,0.3,0.2,0.5,0.5,0.5h1.6c1.1,0,2-0.9,2-2V2.1
			C26.2,0.9,25.3,0,24.2,0z M25.3,3.4c0,0.6-0.5,1.1-1.1,1.1h-1.1V1h1.1c0.6,0,1.1,0.5,1.1,1.1V3.4z"/>
	</g>
	<g id="Path_12437">
		<path class="st0" d="M20.1,0c-0.3,0-0.5,0.2-0.5,0.5v2.9c0,0.6-0.5,1.1-1.1,1.1c-0.6,0-1.1-0.5-1.1-1.1V0.5C17.5,0.2,17.3,0,17,0
			c-0.3,0-0.5,0.2-0.5,0.5v2.9c0,1.1,0.9,2,2.1,2c1.1,0,2-0.9,2-2V0.5C20.6,0.2,20.4,0,20.1,0C20.1,0,20.1,0,20.1,0z"/>
	</g>
</g>
</svg>
