<?xml version="1.0" encoding="utf-8"?>
<!-- Generator: Adobe Illustrator 25.0.0, SVG Export Plug-In . SVG Version: 6.00 Build 0)  -->
<svg version="1.1" id="Layer_1" xmlns="http://www.w3.org/2000/svg" xmlns:xlink="http://www.w3.org/1999/xlink" x="0px" y="0px"
	 viewBox="0 0 45 45" style="enable-background:new 0 0 45 45;" xml:space="preserve">
<style type="text/css">
	.st0{fill:#FFFFFF;}
	.st1{fill:#3BA4FF;}
</style>
<g id="Group_16917" transform="translate(-1152 -354)">
	<g id="Group_16915" transform="translate(1152 354)">
		<g id="Ellipse_590">
			<g>
				<circle class="st0" cx="22.5" cy="22.5" r="22.5"/>
			</g>
			<g>
				<path class="st1" d="M22.5,45C10.1,45,0,34.9,0,22.5C0,10.1,10.1,0,22.5,0C34.9,0,45,10.1,45,22.5C45,34.9,34.9,45,22.5,45z
					 M22.5,3C11.7,3,3,11.7,3,22.5C3,33.3,11.7,42,22.5,42C33.3,42,42,33.3,42,22.5C42,11.7,33.3,3,22.5,3z"/>
			</g>
		</g>
		<g id="Path_12585">
			<path class="st1" d="M16.8,17.9h3.9c-0.1-1.4,0.9-2.7,2.4-2.8c0.2,0,0.3,0,0.5,0c1.4-0.1,2.7,0.9,2.8,2.3c0,0.1,0,0.3,0,0.4
				c0,2.7-2.3,3.2-5.3,3.2h-1.3l0.2,5h3.6l0.1-2.3c3.9,0,6.8-1.9,6.8-5.9s-2.8-6.3-6.8-6.3C19.3,11.7,16.7,14.3,16.8,17.9z
				 M24.2,30.8c0-1.3-1.1-2.4-2.4-2.4c0,0-0.1,0-0.1,0c-1.3-0.1-2.5,1-2.6,2.3c0,0,0,0.1,0,0.1c0,1.3,1.1,2.4,2.4,2.4
				c0,0,0.1,0,0.1,0c1.3,0.1,2.5-1,2.5-2.3C24.2,30.8,24.2,30.8,24.2,30.8z"/>
		</g>
	</g>
</g>
</svg>
