<?xml version="1.0" encoding="utf-8"?>
<!-- Generator: Adobe Illustrator 25.0.0, SVG Export Plug-In . SVG Version: 6.00 Build 0)  -->
<svg version="1.1" id="Layer_1" xmlns="http://www.w3.org/2000/svg" xmlns:xlink="http://www.w3.org/1999/xlink" x="0px" y="0px"
	 viewBox="0 0 22.6 25.1" style="enable-background:new 0 0 22.6 25.1;" xml:space="preserve">
<style type="text/css">
	.st0{fill:#B3B6CE;}
	.st1{fill:#F70B0B;}
	.st2{fill:none;stroke:#B3B6CE;stroke-width:2;stroke-linecap:square;stroke-miterlimit:10;}
</style>
<g id="Group_16572" transform="translate(1.004 1.014)">
	<g id="Path_9862">
		<path class="st0" d="M11.3,24.1c-0.2,0-0.5,0-0.7,0h-0.1c-0.9-0.2-1.9-0.6-2.7-1l-5.4-2c-1.1-0.4-1.6-1.6-1.2-2.7
			c0.1-0.3,0.3-0.5,0.5-0.7c0.1-0.1,0.1-0.1,0.1-0.2l-1-2.5c-0.2-0.5-0.2-1.1,0.1-1.6c0.2-0.5,0.7-0.9,1.2-1.1
			c0.4-0.1,0.7-0.2,1.1-0.1C19.9,15.1,20,15.1,20,15.1c1,0.2,1.3,0.8,1.4,1.1c0.4,1.2-0.8,2.5-2.4,4.1c-0.2,0.2-0.4,0.4-0.5,0.5
			C17.2,22.3,13.9,24.1,11.3,24.1z M10.9,22.1c1.8,0.2,4.9-1.3,6.1-2.7c0.1-0.1,0.3-0.3,0.6-0.6c0.4-0.3,1.3-1.3,1.7-1.8
			C17.2,16.6,8,15,2.9,14.2l0,0c0,0,0,0-0.1,0s-0.1,0.1-0.1,0.1l0.9,2.4c0.3,0.8,0.1,1.6-0.5,2.2l-1-0.3L3,19c0,0.1,0,0.1,0.1,0.2
			l5.5,2.1C9.3,21.6,10.1,21.9,10.9,22.1z M19.7,17.1L19.7,17.1L19.7,17.1z"/>
	</g>
	<g id="Group_16569" transform="translate(3.063 7.752)">
		<g id="Line_343">
			<rect x="-0.5" y="-1" transform="matrix(0.9859 -0.1676 0.1676 0.9859 -0.4698 0.1249)" class="st0" width="2" height="7.7"/>
		</g>
		<g id="Path_9863">
			<path class="st0" d="M15.2,8.9h-2V5.5L14.8,5l-1.3-2.4L8.6,2l0.2-2l5.9,0.7L16.6,4c0.3,0.5,0.4,1,0.2,1.5C16.7,6,16.4,6.4,16,6.7
				c-0.1,0.1-0.2,0.1-0.4,0.2L15.2,7V8.9z M14.9,5.1L14.9,5.1L14.9,5.1z"/>
		</g>
	</g>
	<g id="Ellipse_551">
		<circle class="st1" cx="14.3" cy="11" r="0.6"/>
		<path class="st0" d="M14.3,12.6c-0.9,0-1.6-0.7-1.6-1.6s0.7-1.6,1.6-1.6c0.9,0,1.6,0.7,1.6,1.6S15.2,12.6,14.3,12.6z M14.3,10.6
			c-0.2,0-0.4,0.2-0.4,0.4s0.2,0.4,0.4,0.4s0.4-0.2,0.4-0.4S14.5,10.6,14.3,10.6z"/>
	</g>
	<g id="Path_9864">
		<path class="st0" d="M19.6,10.7c-0.1,0-0.2,0-0.2,0L0.6,8.5C0,8.3-0.4,8-0.7,7.6s-0.4-1-0.3-1.5c0.2-0.9,1-1.5,2-1.5h0.3l3-4.7
			c0.4-0.7,1.3-1,2.1-0.9l8.4,1.9C15.3,1,15.7,1.3,16,1.7l3.1,4.6h0.5l0,0c1,0,1.8,0.7,1.9,1.7l0.1,0.4c0,0.2,0,0.3,0,0.5
			C21.4,10,20.6,10.7,19.6,10.7z M1.5,6.6l18.1,2.2l-0.1-0.4H19c-0.7,0-1.3-0.3-1.6-0.9l-3.1-4.6L5.9,1l-3,4.7
			C2.6,6.2,2.1,6.5,1.5,6.6z"/>
	</g>
	<g id="Path_9865">
		<path class="st2" d="M20.7,13.4"/>
	</g>
</g>
</svg>
