<?xml version="1.0" encoding="utf-8"?>
<!-- Generator: Adobe Illustrator 25.0.0, SVG Export Plug-In . SVG Version: 6.00 Build 0)  -->
<svg version="1.1" id="Layer_1" xmlns="http://www.w3.org/2000/svg" xmlns:xlink="http://www.w3.org/1999/xlink" x="0px" y="0px"
	 viewBox="0 0 40 40" style="enable-background:new 0 0 40 40;" xml:space="preserve">
<style type="text/css">
	.st0{fill:none;}
	.st1{fill:#B3B6CE;}
</style>
<g id="Group_17710" transform="translate(-1362 -195)">
	<g id="Group_16915" transform="translate(1362 195)">
		<g id="Path_12617">
			<g>
				<path class="st0" d="M20,0c11,0,20,9,20,20s-9,20-20,20S0,31,0,20S9,0,20,0z"/>
			</g>
			<g>
				<path class="st1" d="M20,2c-4.8,0-9.3,1.9-12.7,5.3S2,15.2,2,20s1.9,9.3,5.3,12.7S15.2,38,20,38s9.3-1.9,12.7-5.3S38,24.8,38,20
					s-1.9-9.3-5.3-12.7S24.8,2,20,2 M20,0c11,0,20,9,20,20s-9,20-20,20S0,31,0,20S9,0,20,0z"/>
			</g>
		</g>
	</g>
	<g id="Group_16919" transform="translate(1374.535 208.4)">
		<g id="Path_12586">
			<rect x="-3" y="5.7" transform="matrix(0.7058 -0.7084 0.7084 0.7058 -2.9995 7.2586)" class="st1" width="20.5" height="3"/>
		</g>
		<g id="Path_12587">
			<polygon class="st1" points="13.4,15.5 13.3,15.4 -1.1,1.1 1.1,-1.1 15.5,13.4 			"/>
		</g>
	</g>
</g>
</svg>
