<?xml version="1.0" encoding="utf-8"?>
<!-- Generator: Adobe Illustrator 25.0.0, SVG Export Plug-In . SVG Version: 6.00 Build 0)  -->
<svg version="1.1" id="Layer_1" xmlns="http://www.w3.org/2000/svg" xmlns:xlink="http://www.w3.org/1999/xlink" x="0px" y="0px"
	 viewBox="0 0 40 40" style="enable-background:new 0 0 40 40;" xml:space="preserve">
<style type="text/css">
	.st0{fill:none;}
	.st1{fill:#B3B6CE;}
</style>
<g id="Group_17707" transform="translate(-1206 -195)">
	<g id="Ellipse_590" transform="translate(1206 195)">
		<g>
			<circle class="st0" cx="20" cy="20" r="20"/>
		</g>
		<g>
			<path class="st1" d="M20,40C9,40,0,31,0,20C0,9,9,0,20,0c11,0,20,9,20,20C40,31,31,40,20,40z M20,2C10.1,2,2,10.1,2,20
				c0,9.9,8.1,18,18,18c9.9,0,18-8.1,18-18C38,10.1,29.9,2,20,2z"/>
		</g>
	</g>
	<g id="Path_12585">
		<path class="st1" d="M1220.8,210.8h3.4c-0.1-1.3,0.8-2.4,2.1-2.5c0.1,0,0.3,0,0.4,0c1.3-0.1,2.4,0.8,2.5,2.1c0,0.1,0,0.3,0,0.4
			c0,2.3-2,2.8-4.7,2.8h-1.2l0.1,4.4h3.2l0.1-2c3.5,0,6-1.7,6-5.2c0-3.5-2.5-5.5-6-5.5C1223,205.3,1220.7,207.6,1220.8,210.8z
			 M1227.3,222.1c0-1.2-0.9-2.1-2.1-2.1c0,0-0.1,0-0.1,0c-1.2-0.1-2.2,0.8-2.3,2c0,0,0,0.1,0,0.1c0,1.2,1,2.1,2.1,2.1
			c0,0,0.1,0,0.1,0C1226.2,224.3,1227.2,223.4,1227.3,222.1C1227.3,222.2,1227.3,222.1,1227.3,222.1z"/>
	</g>
</g>
</svg>
