<?xml version="1.0" encoding="utf-8"?>
<!-- Generator: Adobe Illustrator 25.0.0, SVG Export Plug-In . SVG Version: 6.00 Build 0)  -->
<svg version="1.1" id="Layer_1" xmlns="http://www.w3.org/2000/svg" xmlns:xlink="http://www.w3.org/1999/xlink" x="0px" y="0px"
	 viewBox="0 0 25.9 33.5" style="enable-background:new 0 0 25.9 33.5;" xml:space="preserve">
<style type="text/css">
	.st0{fill:#1F2240;}
</style>
<g>
	<path class="st0" d="M25.9,9.3c0-1.1-0.5-2.1-1.3-2.8l-6.8-5.6C17.2,0.3,16.3,0,15.4,0c-0.2,0-0.4,0-0.6,0.1V0H3.5
		C1.6,0,0,1.6,0,3.5V30c0,1.9,1.6,3.5,3.5,3.5h18.9c1.9,0,3.5-1.6,3.5-3.5V9.8h-0.1C25.9,9.6,25.9,9.5,25.9,9.3z M23.9,30
		c0,0.8-0.7,1.5-1.5,1.5H3.5C2.7,31.5,2,30.8,2,30V3.5C2,2.7,2.7,2,3.5,2h9.3v5.3c0,2.5,2,4.5,4.5,4.5h6.6V30z"/>
	<path class="st0" d="M4.4,17c0,0.6,0.4,1,1,1h14.5c0.6,0,1.1-0.4,1.1-1c0-0.6-0.4-1-1-1H5.4C4.8,16,4.4,16.4,4.4,17z"/>
	<path class="st0" d="M20,20.5H5.4c-0.6,0-1,0.4-1,1c0,0.6,0.4,1,1,1h14.5c0.6,0,1.1-0.4,1.1-1C21,20.9,20.6,20.5,20,20.5z"/>
	<path class="st0" d="M20,25H5.4c-0.6,0-1,0.4-1,1c0,0.6,0.4,1,1,1h14.5c0.6,0,1.1-0.4,1.1-1C21,25.4,20.6,25,20,25z"/>
</g>
</svg>
