<?xml version="1.0" encoding="utf-8"?>
<!-- Generator: Adobe Illustrator 25.0.0, SVG Export Plug-In . SVG Version: 6.00 Build 0)  -->
<svg version="1.1" id="Layer_1" xmlns="http://www.w3.org/2000/svg" xmlns:xlink="http://www.w3.org/1999/xlink" x="0px" y="0px"
	 viewBox="0 0 44.7 27" style="enable-background:new 0 0 44.7 27;" xml:space="preserve">
<style type="text/css">
	.st0{fill:#1F2240;}
</style>
<path class="st0" d="M44.5,5.9c0-3.3-2.7-6-6-6s-6,2.7-6,6c0,1.7,0.6,3.1,1.8,4.3c0.9,0.9,2.1,1.5,3.3,1.7V22c0,1.6-1.3,3-3,3H23.8
	v-9c2.8-0.5,5-3,5-5.9c0-3.3-2.7-6-6-6s-6,2.7-6,6c0,3,2.2,5.4,5,5.9v9H10c-1.6,0-3-1.3-3-3V11.9c2.8-0.5,5-3,5-5.9c0-3.3-2.7-6-6-6
	S0,2.7,0,6c0,3,2.2,5.4,5,5.9V22c0,2.8,2.2,5,5,5h24.6c2.8,0,5-2.2,5-5V11.9C42.5,11.4,44.6,8.9,44.5,5.9z M18.8,10.1
	c0-2.2,1.8-4,4-4s4,1.8,4,4c0,2.2-1.8,4-4,4S18.8,12.3,18.8,10.1z M38.6,10c-1,0-2-0.4-2.8-1.2C35,8.1,34.6,7.1,34.6,6
	c0-2.2,1.8-4,4-4c2.2,0,4,1.8,4,4S40.8,10,38.6,10z"/>
</svg>
