<?xml version="1.0" encoding="utf-8"?>
<!-- Generator: Adobe Illustrator 25.0.0, SVG Export Plug-In . SVG Version: 6.00 Build 0)  -->
<svg version="1.1" id="Layer_1" xmlns="http://www.w3.org/2000/svg" xmlns:xlink="http://www.w3.org/1999/xlink" x="0px" y="0px"
	 viewBox="0 0 40 40" style="enable-background:new 0 0 40 40;" xml:space="preserve">
<style type="text/css">
	.st0{fill:none;}
	.st1{fill:#B3B6CE;}
	.st2{fill:#F70B0B;}
	.st3{fill:none;stroke:#B3B6CE;stroke-width:2;stroke-linecap:square;stroke-miterlimit:10;}
</style>
<g id="Group_17709" transform="translate(-1310 -195)">
	<g id="Ellipse_551" transform="translate(1310 195)">
		<g>
			<circle class="st0" cx="20" cy="20" r="20"/>
		</g>
		<g>
			<path class="st1" d="M20,40C9,40,0,31,0,20C0,9,9,0,20,0c11,0,20,9,20,20C40,31,31,40,20,40z M20,2C10.1,2,2,10.1,2,20
				c0,9.9,8.1,18,18,18c9.9,0,18-8.1,18-18C38,10.1,29.9,2,20,2z"/>
		</g>
	</g>
	<g id="Group_16572" transform="translate(1319.821 203.203)">
		<g id="Path_9862">
			<path class="st1" d="M11.3,24.1c-0.2,0-0.5,0-0.7,0l-0.1,0c-0.9-0.2-1.9-0.6-2.7-1l-5.4-2c-0.5-0.2-1-0.6-1.2-1.1
				c-0.2-0.5-0.3-1.1-0.1-1.6c0.1-0.3,0.3-0.5,0.5-0.7c0.1-0.1,0.1-0.1,0.1-0.2L0.8,15c-0.4-1.1,0.2-2.3,1.3-2.7
				c0.4-0.1,0.7-0.2,1.1-0.1c7.6,1.3,16.7,2.9,16.8,2.9c1,0.2,1.3,0.8,1.4,1.1c0.4,1.2-0.8,2.5-2.4,4.1c-0.2,0.2-0.4,0.4-0.5,0.5
				C17.2,22.3,13.9,24.1,11.3,24.1z M10.9,22.1c1.8,0.2,4.9-1.3,6.1-2.7c0.1-0.1,0.3-0.3,0.6-0.6c0.4-0.3,1.3-1.3,1.7-1.8
				c-2.6-0.5-16.4-2.8-16.4-2.8l0,0c0,0,0,0-0.1,0c-0.1,0-0.1,0.1-0.1,0.1l0.9,2.4c0.3,0.8,0.1,1.6-0.5,2.2l-1-0.3L3,19
				c0,0.1,0,0.1,0.1,0.2l5.5,2.1C9.3,21.6,10.1,21.9,10.9,22.1z M19.7,17.1L19.7,17.1L19.7,17.1z"/>
		</g>
		<g id="Group_16569" transform="translate(3.063 7.752)">
			<g id="Line_343">
				<rect x="-0.5" y="-1" transform="matrix(0.9859 -0.1676 0.1676 0.9859 -0.4653 0.1202)" class="st1" width="2" height="7.7"/>
			</g>
			<g id="Path_9863">
				<path class="st1" d="M15.2,8.9h-2V5.5L14.8,5l-1.3-2.4L8.6,2l0.2-2l5.9,0.7l1.9,3.3C16.9,4.5,17,5,16.8,5.5S16.4,6.4,16,6.7
					c-0.1,0.1-0.2,0.1-0.4,0.2L15.2,7V8.9z M15,4.9L15,4.9L15,4.9L15,4.9z"/>
			</g>
		</g>
		<g id="Ellipse_551-2">
			<circle class="st2" cx="14.3" cy="11" r="0.6"/>
			<path class="st1" d="M14.3,12.6c-0.9,0-1.6-0.7-1.6-1.6s0.7-1.6,1.6-1.6c0.9,0,1.6,0.7,1.6,1.6S15.2,12.6,14.3,12.6z M14.3,10.6
				c-0.2,0-0.4,0.2-0.4,0.4s0.2,0.4,0.4,0.4c0.2,0,0.4-0.2,0.4-0.4S14.5,10.6,14.3,10.6z"/>
		</g>
		<g id="Path_9864">
			<path class="st1" d="M19.6,10.7c-0.1,0-0.2,0-0.2,0L0.6,8.5C-0.5,8.2-1.2,7.2-1,6.1C-0.8,5.2,0,4.6,1,4.6h0.3l3-4.7
				c0.4-0.7,1.3-1,2.1-0.9l8.4,1.9c0.5,0.1,0.9,0.4,1.2,0.8l3.1,4.6l0.5,0c1,0,1.8,0.7,1.9,1.7l0.1,0.4c0,0.2,0,0.3,0,0.5
				C21.4,10,20.6,10.7,19.6,10.7z M1.5,6.6l18.1,2.2l-0.1-0.4l-0.5,0c-0.7,0-1.3-0.3-1.6-0.9l-3.1-4.6L5.9,1l-3,4.7
				C2.6,6.2,2.1,6.5,1.5,6.6z M1,6.6L1,6.6L1,6.6z"/>
		</g>
		<g id="Path_9865">
			<path class="st3" d="M20.7,13.4"/>
		</g>
	</g>
</g>
</svg>
