<svg xmlns="http://www.w3.org/2000/svg" width="35.963" height="25.171" viewBox="0 0 35.963 25.171">
  <path id="Icon_awesome-users-cog" data-name="Icon awesome-users-cog" d="M34.309,19.633a6.592,6.592,0,0,0,0-2.394l1.45-.837a.407.407,0,0,0,.185-.478A8.434,8.434,0,0,0,34.078,12.7a.41.41,0,0,0-.506-.079l-1.45.837a6.6,6.6,0,0,0-2.074-1.2V10.586a.409.409,0,0,0-.32-.4,8.479,8.479,0,0,0-3.72,0,.409.409,0,0,0-.32.4V12.26a6.6,6.6,0,0,0-2.074,1.2l-1.45-.837a.411.411,0,0,0-.506.079,8.434,8.434,0,0,0-1.866,3.226.414.414,0,0,0,.185.478l1.45.837a6.592,6.592,0,0,0,0,2.394l-1.45.837a.407.407,0,0,0-.185.478,8.476,8.476,0,0,0,1.866,3.226.41.41,0,0,0,.506.079l1.45-.837a6.6,6.6,0,0,0,2.074,1.2v1.675a.409.409,0,0,0,.32.4,8.479,8.479,0,0,0,3.72,0,.409.409,0,0,0,.32-.4V24.612a6.6,6.6,0,0,0,2.074-1.2l1.45.837a.411.411,0,0,0,.506-.079,8.434,8.434,0,0,0,1.866-3.226.414.414,0,0,0-.185-.478l-1.45-.837Zm-6.435,1.529A2.726,2.726,0,1,1,30.6,18.436,2.728,2.728,0,0,1,27.874,21.162ZM5.395,13.041a3.6,3.6,0,1,0-3.6-3.6A3.6,3.6,0,0,0,5.395,13.041Zm12.588,1.8c.107,0,.208-.028.315-.034a10.36,10.36,0,0,1,2.04-3.327,2.215,2.215,0,0,1,1.624-.708,2.16,2.16,0,0,1,1.1.3l.444.259c.045-.028.09-.051.135-.079a6.22,6.22,0,0,0,.629-2.7,6.291,6.291,0,1,0-6.289,6.289ZM23.9,25.77c-.129-.067-.259-.146-.382-.219a2.776,2.776,0,0,1-1.545.551,2.234,2.234,0,0,1-1.624-.708,10.247,10.247,0,0,1-2.259-3.911c-.6-1.939,1.4-2.793,1.45-2.827q-.008-.219,0-.438l-.444-.259a2.289,2.289,0,0,1-.551-.455c-.185.011-.365.034-.551.034a8.871,8.871,0,0,1-3.85-.9h-.466a6.477,6.477,0,0,0-6.48,6.474V24.73a2.7,2.7,0,0,0,2.7,2.7H24.244a2.164,2.164,0,0,1-.348-1.141V25.77ZM9.728,15.885A3.586,3.586,0,0,0,7.193,14.84H3.6a3.6,3.6,0,0,0-3.6,3.6v1.8a1.8,1.8,0,0,0,1.8,1.8H5.5a8.241,8.241,0,0,1,4.226-6.148Z" transform="translate(0 -2.257)" fill="#1db2a6"/>
</svg>
