<svg xmlns="http://www.w3.org/2000/svg" width="19.688" height="19.69" viewBox="0 0 19.688 19.69">
  <path id="Icon_awesome-search-plus" data-name="Icon awesome-search-plus" d="M11.69,7.383V8.614a.463.463,0,0,1-.461.461H9.075v2.153a.463.463,0,0,1-.461.461H7.383a.463.463,0,0,1-.461-.461V9.075H4.768a.463.463,0,0,1-.461-.461V7.383a.463.463,0,0,1,.461-.461H6.922V4.768a.463.463,0,0,1,.461-.461H8.614a.463.463,0,0,1,.461.461V6.922h2.153A.463.463,0,0,1,11.69,7.383Zm7.729,10.948-1.088,1.088a.919.919,0,0,1-1.3,0L13.19,15.585a.922.922,0,0,1-.269-.654V14.3A7.995,7.995,0,1,1,14.3,12.921h.627a.922.922,0,0,1,.654.269l3.834,3.834A.931.931,0,0,1,19.419,18.331ZM13.228,8A5.23,5.23,0,1,0,8,13.228,5.225,5.225,0,0,0,13.228,8Z" fill="#1f2240"/>
</svg>
