<svg xmlns="http://www.w3.org/2000/svg" width="31.821" height="21.333" viewBox="0 0 31.821 21.333">
  <path id="Icon_awesome-folder-open" data-name="Icon awesome-folder-open" d="M31.638,17.172l-4,6.9a3.532,3.532,0,0,1-3.054,1.764H2.487a1.333,1.333,0,0,1-1.145-2.005l4-6.9A3.532,3.532,0,0,1,8.4,15.166h22.1a1.333,1.333,0,0,1,1.145,2.005ZM8.4,13.389h18.12V10.722a2.659,2.659,0,0,0-2.652-2.667H15.026L11.491,4.5H2.652A2.659,2.659,0,0,0,0,7.167V22.613l3.816-6.579A5.316,5.316,0,0,1,8.4,13.389Z" transform="translate(0 -4.5)" fill="#1f2240"/>
</svg>
