<svg xmlns="http://www.w3.org/2000/svg" xmlns:xlink="http://www.w3.org/1999/xlink" width="48.483" height="53.199" viewBox="0 0 48.483 53.199">
  <defs>
    <linearGradient id="linear-gradient" x1="0.5" y1="0.107" x2="0.5" y2="1" gradientUnits="objectBoundingBox">
      <stop offset="0" stop-color="#ffb707"/>
      <stop offset="1" stop-color="#ffd04b"/>
    </linearGradient>
  </defs>
  <g id="sprout.ai-logo-color" transform="translate(0)">
    <g id="Group_23" data-name="Group 23">
      <g id="Group_20" data-name="Group 20">
        <g id="Group_19" data-name="Group 19">
          <path id="Path_227" data-name="Path 227" d="M108.845,82.64a14.861,14.861,0,0,0,14.871-14.872,1.471,1.471,0,0,0-1.451-1.451h-9.31a14.732,14.732,0,0,0-12.573,7.134A15.4,15.4,0,0,0,86.115,63.174H76.684a1.56,1.56,0,0,0-1.451,1.451A14.86,14.86,0,0,0,90.105,79.5h7.858V91.95h-5.44a7.817,7.817,0,0,0-7.859,7.737v6.528a5.078,5.078,0,1,0,2.9,0V99.688A4.827,4.827,0,0,1,92.4,94.972h5.441V99.2a5.078,5.078,0,1,0,2.9,0V94.972h4.836a4.75,4.75,0,0,1,4.837,4.716v6.77a5.078,5.078,0,1,0,2.9,0v-6.77a7.818,7.818,0,0,0-7.859-7.737h-4.836V82.64Zm-22.73,30.589a2.056,2.056,0,1,1,2.055-2.056A2.038,2.038,0,0,1,86.115,113.229Zm13.3-7.013a2.055,2.055,0,1,1,2.056-2.055A2.037,2.037,0,0,1,99.414,106.216Zm12.816,7.134a2.055,2.055,0,1,1,2.056-2.055A2.037,2.037,0,0,1,112.23,113.35Zm.605-44.009h7.737a11.774,11.774,0,0,1-11.728,10.277h-7.737A11.773,11.773,0,0,1,112.835,69.34Zm-22.73,7.134A11.773,11.773,0,0,1,78.378,66.2h7.737A11.774,11.774,0,0,1,97.843,76.474Z" transform="translate(-75.233 -63.174)" fill="url(#linear-gradient)"/>
        </g>
      </g>
    </g>
  </g>
</svg>
