<?xml version="1.0" encoding="utf-8"?>
<!-- Generator: Adobe Illustrator 25.0.0, SVG Export Plug-In . SVG Version: 6.00 Build 0)  -->
<svg version="1.1" id="Layer_1" xmlns="http://www.w3.org/2000/svg" xmlns:xlink="http://www.w3.org/1999/xlink" x="0px" y="0px"
	 viewBox="0 0 34.7 31.6" style="enable-background:new 0 0 34.7 31.6;" xml:space="preserve">
<style type="text/css">
	.st0{fill:#FFFFFF;}
</style>
<g id="property-icon" transform="translate(1.396 1)">
	<g id="Group_1444">
		<g id="Path_1799">
			<path class="st0" d="M0,12.5c-0.3,0-0.6-0.1-0.8-0.4c-0.3-0.4-0.2-1.1,0.2-1.4L15.5-0.8c0.4-0.3,0.8-0.3,1.2,0l15.8,11.5
				c0.4,0.3,0.5,1,0.2,1.4c-0.3,0.4-0.9,0.5-1.4,0.2L16.1,1.2L0.6,12.4C0.4,12.5,0.2,12.5,0,12.5z"/>
		</g>
		<g id="Path_1800">
			<path class="st0" d="M19.7,29.6c-0.6,0-1-0.4-1-1v-9.8c-0.3-0.4-0.7-0.8-1.1-1c-0.9-0.5-1.9-0.7-2.9-0.5
				c-0.9,0.2-1.7,0.8-2.2,1.5v9.8c0,0.6-0.4,1-1,1s-1-0.4-1-1V18.6c0-0.2,0.1-0.4,0.1-0.5c0.8-1.3,2.1-2.3,3.6-2.6
				c1.5-0.4,3.1-0.1,4.4,0.7c0.8,0.5,1.5,1.1,1.9,1.9c0.1,0.2,0.1,0.3,0.1,0.5v10.1C20.7,29.2,20.3,29.6,19.7,29.6z"/>
		</g>
		<g id="Path_1801">
			<path class="st0" d="M5.9,7.5c-0.6,0-1-0.4-1-1V0c0-0.6,0.4-1,1-1h3.6c0.6,0,1,0.4,1,1v4.2c0,0.6-0.4,1-1,1s-1-0.4-1-1V1H6.9v5.5
				C6.9,7,6.4,7.5,5.9,7.5z"/>
		</g>
		<g id="Path_1802">
			<path class="st0" d="M27,30.6H4.9c-2,0-3.7-1.7-3.7-3.7V10c0-0.6,0.4-1,1-1s1,0.4,1,1v17c0,0.9,0.8,1.7,1.7,1.7H27
				c0.9,0,1.7-0.8,1.7-1.7V10c0-0.6,0.4-1,1-1s1,0.4,1,1v17C30.7,29,29.1,30.6,27,30.6z"/>
		</g>
	</g>
</g>
</svg>
