<svg id="steps" xmlns="http://www.w3.org/2000/svg" width="48" height="48" viewBox="0 0 48 48">
  <path id="Path_12451" data-name="Path 12451" d="M163.752,393.5a5.752,5.752,0,1,1,5.66-6.744h7.814l-.827-.828,1.4-1.4,2.52,2.52a.991.991,0,0,1,0,1.4l-2.52,2.52-1.4-1.4.827-.828h-7.814A5.778,5.778,0,0,1,163.752,393.5Zm0-9.521a3.769,3.769,0,1,0,3.769,3.769A3.773,3.773,0,0,0,163.752,383.983Z" transform="translate(-143.719 -345.504)" fill="#fab61c"/>
  <path id="Path_12452" data-name="Path 12452" d="M387.752,393.5a5.752,5.752,0,1,1,5.752-5.752A5.759,5.759,0,0,1,387.752,393.5Zm0-9.521a3.769,3.769,0,1,0,3.769,3.769A3.773,3.773,0,0,0,387.752,383.983Z" transform="translate(-345.504 -345.504)" fill="#1db2a6"/>
  <path id="Path_12453" data-name="Path 12453" d="M24.464,223.819l.828-.827H24.116a10.116,10.116,0,0,1,0-20.232H25.2a5.752,5.752,0,1,1,0,1.983H24.116a8.132,8.132,0,1,0,0,16.265h1.176l-.828-.828,1.4-1.4,2.52,2.52a.991.991,0,0,1,0,1.4l-2.52,2.52Zm6.4-23.836a3.769,3.769,0,1,0,3.769,3.769A3.773,3.773,0,0,0,30.86,199.983Z" transform="translate(-14 -179.752)" fill="#1db2a6"/>
  <path id="Path_12454" data-name="Path 12454" d="M19.752,25.5a5.752,5.752,0,1,1,5.66-6.744h7.814l-.828-.828,1.4-1.4,2.52,2.521a.991.991,0,0,1,0,1.4L33.8,22.974l-1.4-1.4.828-.828H25.412A5.778,5.778,0,0,1,19.752,25.5Zm0-9.521a3.769,3.769,0,1,0,3.769,3.769A3.773,3.773,0,0,0,19.752,15.983Z" transform="translate(-14 -14)" fill="#1db2a6"/>
  <path id="Path_12455" data-name="Path 12455" d="M238.291,38.7a.991.991,0,0,1,0-1.4l2.52-2.521,1.4,1.4-.827.828H253.67a8.132,8.132,0,1,0,0-16.265h-4.258a5.752,5.752,0,1,1,0-1.983h4.258a10.116,10.116,0,1,1,0,20.232H241.386l.827.828-1.4,1.4Zm5.462-22.718a3.769,3.769,0,1,0,3.769,3.769A3.773,3.773,0,0,0,243.752,15.983Z" transform="translate(-215.785 -14)" fill="#fab61c"/>
</svg>
