<svg id="turnaround" xmlns="http://www.w3.org/2000/svg" width="50.199" height="50.198" viewBox="0 0 50.199 50.198">
  <path id="Path_12447" data-name="Path 12447" d="M194.484,175.538a1.217,1.217,0,0,0-1.216,1.216v5.4h-4.2a1.216,1.216,0,1,0,0,2.432h5.413a1.217,1.217,0,0,0,1.216-1.216v-6.611A1.217,1.217,0,0,0,194.484,175.538Z" transform="translate(-169.384 -158.267)" fill="#fab61c"/>
  <path id="Path_12448" data-name="Path 12448" d="M125.418,110.278a.924.924,0,0,0,1.263-.338l.391-.678a12.731,12.731,0,0,1,1.052.795.924.924,0,1,0,1.19-1.414,14.67,14.67,0,1,0,5.233,11.232,14.527,14.527,0,0,0-3.078-8.992.924.924,0,1,0-1.46,1.134c.166.214.328.436.482.663l-.68.392a.924.924,0,1,0,.924,1.6l.683-.394a12.617,12.617,0,0,1,1.246,4.672h-1.95a.924.924,0,0,0,0,1.848h1.95a12.659,12.659,0,0,1-1.252,4.668l-.676-.39a.924.924,0,0,0-.924,1.6l.673.389a12.83,12.83,0,0,1-3.416,3.416l-.389-.673a.924.924,0,0,0-1.6.924l.39.676a12.662,12.662,0,0,1-4.668,1.252v-1.95a.924.924,0,0,0-1.848,0v1.95a12.66,12.66,0,0,1-4.668-1.252l.391-.676a.924.924,0,1,0-1.6-.924l-.389.673a12.83,12.83,0,0,1-3.416-3.416l.673-.389a.924.924,0,1,0-.924-1.6l-.676.39a12.661,12.661,0,0,1-1.252-4.668h1.95a.924.924,0,1,0,0-1.848h-1.95a12.66,12.66,0,0,1,1.252-4.668l.676.39a.924.924,0,0,0,.924-1.6l-.673-.389a12.832,12.832,0,0,1,3.416-3.416l.389.673a.924.924,0,1,0,1.6-.924l-.391-.676a12.666,12.666,0,0,1,4.668-1.252v1.95a.924.924,0,1,0,1.848,0v-1.949a12.749,12.749,0,0,1,4.669,1.251l-.391.677A.925.925,0,0,0,125.418,110.278Z" transform="translate(-94.778 -94.776)" fill="#fab61c"/>
  <path id="Path_12449" data-name="Path 12449" d="M47.576,19.209a3.168,3.168,0,0,0-2.609-2.159c-1.093-.141-2.206-.251-3.308-.328a1.32,1.32,0,0,1-1.128-.825l-.012-.029a1.318,1.318,0,0,1,.213-1.382c.724-.832,1.433-1.7,2.107-2.571a3.164,3.164,0,0,0,.318-3.371,12.554,12.554,0,0,0-5.505-5.505,3.122,3.122,0,0,0-1.427-.345,3.2,3.2,0,0,0-1.944.663c-.873.673-1.738,1.382-2.572,2.108a1.3,1.3,0,0,1-.855.319,1.366,1.366,0,0,1-.526-.106L30.3,5.666a1.32,1.32,0,0,1-.826-1.128c-.076-1.1-.186-2.216-.327-3.308a3.168,3.168,0,0,0-2.159-2.608,12.568,12.568,0,0,0-7.787,0A3.168,3.168,0,0,0,17.045,1.23c-.141,1.091-.251,2.2-.327,3.308a1.322,1.322,0,0,1-.832,1.13l-.024.01a1.361,1.361,0,0,1-.526.106,1.3,1.3,0,0,1-.855-.32c-.833-.725-1.7-1.434-2.571-2.107a3.2,3.2,0,0,0-1.945-.663,3.121,3.121,0,0,0-1.426.344A12.554,12.554,0,0,0,3.034,8.544a3.168,3.168,0,0,0,.317,3.372c.676.876,1.386,1.741,2.108,2.571a1.319,1.319,0,0,1,.215,1.376l-.014.033a1.32,1.32,0,0,1-1.128.826c-1.105.076-2.218.186-3.308.328a3.164,3.164,0,0,0-2.609,2.159,12.549,12.549,0,0,0,0,7.786,3.165,3.165,0,0,0,2.609,2.158c1.09.141,2.2.251,3.308.327a1.319,1.319,0,0,1,1.127.823l.014.035a1.321,1.321,0,0,1-.214,1.379c-.72.826-1.43,1.691-2.109,2.571a3.166,3.166,0,0,0-.317,3.37A12.557,12.557,0,0,0,8.54,43.165a3.147,3.147,0,0,0,1.424.345.924.924,0,0,0,0-1.848,1.266,1.266,0,0,1-.58-.14,10.741,10.741,0,0,1-4.71-4.711,1.311,1.311,0,0,1,.138-1.394c.656-.849,1.342-1.686,2.039-2.486a3.158,3.158,0,0,0,.526-3.3l-.012-.03a3.158,3.158,0,0,0-2.707-1.96c-1.067-.074-2.143-.18-3.2-.317a1.31,1.31,0,0,1-1.085-.887,10.735,10.735,0,0,1,0-6.662,1.31,1.31,0,0,1,1.084-.888c1.055-.136,2.132-.243,3.2-.317a3.158,3.158,0,0,0,2.706-1.958l.013-.031a3.157,3.157,0,0,0-.527-3.3c-.7-.8-1.383-1.637-2.038-2.486a1.312,1.312,0,0,1-.139-1.4,10.74,10.74,0,0,1,4.711-4.71,1.268,1.268,0,0,1,.58-.14,1.341,1.341,0,0,1,.814.279c.844.65,1.68,1.336,2.485,2.037a3.145,3.145,0,0,0,2.066.776,3.2,3.2,0,0,0,1.219-.242l.052-.021a3.159,3.159,0,0,0,1.957-2.706c.074-1.067.18-2.144.317-3.2A1.312,1.312,0,0,1,19.765.382a10.745,10.745,0,0,1,6.661,0,1.312,1.312,0,0,1,.888,1.085c.136,1.056.243,2.132.317,3.2a3.157,3.157,0,0,0,1.953,2.7l.051.021a3.213,3.213,0,0,0,1.224.243,3.144,3.144,0,0,0,2.066-.775c.805-.7,1.641-1.386,2.486-2.037a1.339,1.339,0,0,1,.814-.279,1.27,1.27,0,0,1,.581.14,10.741,10.741,0,0,1,4.71,4.71,1.31,1.31,0,0,1-.14,1.394c-.65.844-1.336,1.68-2.037,2.485a3.155,3.155,0,0,0-.534,3.287l.021.051a3.159,3.159,0,0,0,2.706,1.956c1.065.074,2.141.18,3.2.317a1.312,1.312,0,0,1,1.085.888,10.733,10.733,0,0,1,0,6.661,1.312,1.312,0,0,1-1.085.888c-1.058.137-2.134.243-3.2.317a3.157,3.157,0,0,0-2.7,1.955c-.007.017-.015.035-.02.048a3.158,3.158,0,0,0,.532,3.292c.7.8,1.384,1.638,2.037,2.485a1.31,1.31,0,0,1,.139,1.394,10.742,10.742,0,0,1-4.71,4.71,1.272,1.272,0,0,1-.581.14,1.34,1.34,0,0,1-.813-.278c-.847-.654-1.684-1.34-2.486-2.038a3.145,3.145,0,0,0-2.067-.775,3.219,3.219,0,0,0-1.233.246l-.015.005-.005,0-.016.007a3.159,3.159,0,0,0-1.958,2.707c-.074,1.067-.18,2.143-.317,3.2a1.31,1.31,0,0,1-.888,1.085,10.73,10.73,0,0,1-6.662,0,1.31,1.31,0,0,1-.887-1.085c-.136-1.054-.243-2.131-.317-3.2A3.157,3.157,0,0,0,16.6,38.831l-.039-.016a3.212,3.212,0,0,0-1.231-.246,3.144,3.144,0,0,0-2.066.775c-.445.388-.9.774-1.361,1.146a.924.924,0,1,0,1.166,1.434c.472-.383.946-.783,1.41-1.187a1.3,1.3,0,0,1,.854-.319,1.364,1.364,0,0,1,.521.1l.034.014a1.32,1.32,0,0,1,.827,1.128c.076,1.1.186,2.217.327,3.308A3.165,3.165,0,0,0,19.2,47.582a12.553,12.553,0,0,0,7.786,0,3.165,3.165,0,0,0,2.159-2.609c.141-1.091.251-2.2.327-3.308a1.323,1.323,0,0,1,.822-1.127l.035-.014a1.371,1.371,0,0,1,.524-.1,1.3,1.3,0,0,1,.855.319c.831.723,1.7,1.433,2.572,2.109a3.2,3.2,0,0,0,1.943.661h0a3.123,3.123,0,0,0,1.427-.344,12.555,12.555,0,0,0,5.505-5.505,3.165,3.165,0,0,0-.318-3.371c-.675-.876-1.384-1.741-2.107-2.57a1.319,1.319,0,0,1-.213-1.383l.011-.028a1.319,1.319,0,0,1,1.128-.827c1.1-.076,2.214-.186,3.308-.328a3.169,3.169,0,0,0,2.608-2.158A12.55,12.55,0,0,0,47.576,19.209Z" transform="translate(2.003 1.997)" fill="#1db2a6"/>
</svg>
